<svg width="1920" height="1065" xmlns="http://www.w3.org/2000/svg"><g><path d="M-19.101246474310756,-70.86607857607305L-96.56054953113198,72.70420225337148L23.968276949599385,-69.06795021146536Z" fill="#fafdf6" stroke="#fafdf6"></path><path d="M-19.101246474310756,-70.86607857607305L23.968276949599385,-69.06795021146536L386.48808505386114,-132.2290731780231Z" fill="#eff9ec" stroke="#eff9ec"></path><path d="M23.968276949599385,-69.06795021146536L-96.56054953113198,72.70420225337148L128.30417322926223,72.0285248849541Z" fill="#f4fcf1" stroke="#f4fcf1"></path><path d="M23.968276949599385,-69.06795021146536L128.30417322926223,72.0285248849541L192.85770870745182,34.03207168914378Z" fill="#eff9ec" stroke="#eff9ec"></path><path d="M23.968276949599385,-69.06795021146536L192.85770870745182,34.03207168914378L240.7556884456426,-56.56581111252308Z" fill="#edf8eb" stroke="#edf8eb"></path><path d="M23.968276949599385,-69.06795021146536L240.7556884456426,-56.56581111252308L386.48808505386114,-132.2290731780231Z" fill="#e8f6e7" stroke="#e8f6e7"></path><path d="M240.7556884456426,-56.56581111252308L192.85770870745182,34.03207168914378L334.18271410278976,15.348170483484864Z" fill="#e6f5e5" stroke="#e6f5e5"></path><path d="M240.7556884456426,-56.56581111252308L334.18271410278976,15.348170483484864L386.48808505386114,-132.2290731780231Z" fill="#e1f3e1" stroke="#e1f3e1"></path><path d="M386.48808505386114,-132.2290731780231L334.18271410278976,15.348170483484864L468.1922926940024,-15.428697634488344Z" fill="#dcf1de" stroke="#dcf1de"></path><path d="M386.48808505386114,-132.2290731780231L468.1922926940024,-15.428697634488344L673.0565612576902,-54.97363267466426Z" fill="#d2eedf" stroke="#d2eedf"></path><path d="M386.48808505386114,-132.2290731780231L673.0565612576902,-54.97363267466426L780.7648947648704,-65.33974357880652Z" fill="#caebe0" stroke="#caebe0"></path><path d="M386.48808505386114,-132.2290731780231L780.7648947648704,-65.33974357880652L1272.7840415015817,-131.11282981932163Z" fill="#bae3e2" stroke="#bae3e2"></path><path d="M468.1922926940024,-15.428697634488344L334.18271410278976,15.348170483484864L467.5330004654825,88.70468792505562Z" fill="#d7f1dc" stroke="#d7f1dc"></path><path d="M468.1922926940024,-15.428697634488344L467.5330004654825,88.70468792505562L641.8309253174812,108.25991816818714Z" fill="#cdeddb" stroke="#cdeddb"></path><path d="M468.1922926940024,-15.428697634488344L641.8309253174812,108.25991816818714L673.0565612576902,-54.97363267466426Z" fill="#caebdf" stroke="#caebdf"></path><path d="M673.0565612576902,-54.97363267466426L641.8309253174812,108.25991816818714L779.2554851341993,118.24708457104862Z" fill="#bee8dd" stroke="#bee8dd"></path><path d="M673.0565612576902,-54.97363267466426L779.2554851341993,118.24708457104862L780.7648947648704,-65.33974357880652Z" fill="#bfe6e2" stroke="#bfe6e2"></path><path d="M780.7648947648704,-65.33974357880652L779.2554851341993,118.24708457104862L954.8940510023385,-27.343427650630474Z" fill="#b8e2e2" stroke="#b8e2e2"></path><path d="M780.7648947648704,-65.33974357880652L954.8940510023385,-27.343427650630474L1096.4730844460428,-54.057944007217884Z" fill="#b0dce3" stroke="#b0dce3"></path><path d="M780.7648947648704,-65.33974357880652L1096.4730844460428,-54.057944007217884L1272.7840415015817,-131.11282981932163Z" fill="#a9d6e4" stroke="#a9d6e4"></path><path d="M954.8940510023385,-27.343427650630474L779.2554851341993,118.24708457104862L960.8045896142721,171.70761737041175Z" fill="#addfdc" stroke="#addfdc"></path><path d="M954.8940510023385,-27.343427650630474L960.8045896142721,171.70761737041175L1010.3834899328649,102.84183137118816Z" fill="#a8dadd" stroke="#a8dadd"></path><path d="M954.8940510023385,-27.343427650630474L1010.3834899328649,102.84183137118816L1096.4730844460428,-54.057944007217884Z" fill="#aad8e3" stroke="#aad8e3"></path><path d="M1096.4730844460428,-54.057944007217884L1010.3834899328649,102.84183137118816L1093.5965632740408,86.54518531635404Z" fill="#a4d5e1" stroke="#a4d5e1"></path><path d="M1096.4730844460428,-54.057944007217884L1093.5965632740408,86.54518531635404L1281.100679403171,66.41929496079683Z" fill="#9ed0e2" stroke="#9ed0e2"></path><path d="M1096.4730844460428,-54.057944007217884L1281.100679403171,66.41929496079683L1272.7840415015817,-131.11282981932163Z" fill="#9ccce2" stroke="#9ccce2"></path><path d="M1272.7840415015817,-131.11282981932163L1281.100679403171,66.41929496079683L1460.8187862765044,-65.11219871230423Z" fill="#93c3dd" stroke="#93c3dd"></path><path d="M1272.7840415015817,-131.11282981932163L1460.8187862765044,-65.11219871230423L1559.5717337541282,-99.88740591332316Z" fill="#8cbcda" stroke="#8cbcda"></path><path d="M1272.7840415015817,-131.11282981932163L1559.5717337541282,-99.88740591332316L1764.5709816087037,-105.73718989267945Z" fill="#84b4d6" stroke="#84b4d6"></path><path d="M1460.8187862765044,-65.11219871230423L1281.100679403171,66.41929496079683L1461.7423877399415,74.86723249778152Z" fill="#8cbed9" stroke="#8cbed9"></path><path d="M1460.8187862765044,-65.11219871230423L1461.7423877399415,74.86723249778152L1559.4778605736792,107.45835358276963Z" fill="#84b7d4" stroke="#84b7d4"></path><path d="M1460.8187862765044,-65.11219871230423L1559.4778605736792,107.45835358276963L1559.5717337541282,-99.88740591332316Z" fill="#84b4d6" stroke="#84b4d6"></path><path d="M1559.5717337541282,-99.88740591332316L1559.4778605736792,107.45835358276963L1669.1934410948306,101.57493129372597Z" fill="#7dafd1" stroke="#7dafd1"></path><path d="M1559.5717337541282,-99.88740591332316L1669.1934410948306,101.57493129372597L1764.5709816087037,-105.73718989267945Z" fill="#80aad1" stroke="#80aad1"></path><path d="M1764.5709816087037,-105.73718989267945L1669.1934410948306,101.57493129372597L1828.842271529138,-51.29939217120409Z" fill="#80a3cd" stroke="#80a3cd"></path><path d="M1764.5709816087037,-105.73718989267945L1828.842271529138,-51.29939217120409L2006.913418220356,-78.30435376614332Z" fill="#809bc9" stroke="#809bc9"></path><path d="M1828.842271529138,-51.29939217120409L1669.1934410948306,101.57493129372597L1824.6385995391756,93.13256210647523Z" fill="#7ca2c9" stroke="#7ca2c9"></path><path d="M1828.842271529138,-51.29939217120409L1824.6385995391756,93.13256210647523L2017.3416059743613,58.36407138034701Z" fill="#7d99c5" stroke="#7d99c5"></path><path d="M1828.842271529138,-51.29939217120409L2017.3416059743613,58.36407138034701L2006.913418220356,-78.30435376614332Z" fill="#8094c6" stroke="#8094c6"></path><path d="M2006.913418220356,-78.30435376614332L2017.3416059743613,58.36407138034701L2047.626364286989,281.44145739264786Z" fill="#798fbc" stroke="#798fbc"></path><path d="M-96.56054953113198,72.70420225337148L-115.99113126285374,403.9177514053881L-107.62900290079415,280.1648049149662Z" fill="#e8feeb" stroke="#e8feeb"></path><path d="M-96.56054953113198,72.70420225337148L-107.62900290079415,280.1648049149662L97.77627171948552,258.4388883970678Z" fill="#eafde7" stroke="#eafde7"></path><path d="M-96.56054953113198,72.70420225337148L97.77627171948552,258.4388883970678L128.30417322926223,72.0285248849541Z" fill="#eafbe7" stroke="#eafbe7"></path><path d="M128.30417322926223,72.0285248849541L97.77627171948552,258.4388883970678L233.8224578741938,175.85222809575498Z" fill="#e0f8de" stroke="#e0f8de"></path><path d="M128.30417322926223,72.0285248849541L233.8224578741938,175.85222809575498L192.85770870745182,34.03207168914378Z" fill="#e3f7e2" stroke="#e3f7e2"></path><path d="M192.85770870745182,34.03207168914378L233.8224578741938,175.85222809575498L334.18271410278976,15.348170483484864Z" fill="#e0f5e0" stroke="#e0f5e0"></path><path d="M334.18271410278976,15.348170483484864L233.8224578741938,175.85222809575498L371.4076810050756,221.73784377984703Z" fill="#d7f4d8" stroke="#d7f4d8"></path><path d="M334.18271410278976,15.348170483484864L371.4076810050756,221.73784377984703L467.5330004654825,88.70468792505562Z" fill="#d4f2d6" stroke="#d4f2d6"></path><path d="M467.5330004654825,88.70468792505562L371.4076810050756,221.73784377984703L557.035292359069,243.61538786441088Z" fill="#c8efd1" stroke="#c8efd1"></path><path d="M467.5330004654825,88.70468792505562L557.035292359069,243.61538786441088L641.8309253174812,108.25991816818714Z" fill="#c3ecd5" stroke="#c3ecd5"></path><path d="M641.8309253174812,108.25991816818714L557.035292359069,243.61538786441088L643.456158824265,177.64159156009555Z" fill="#bcebd3" stroke="#bcebd3"></path><path d="M641.8309253174812,108.25991816818714L643.456158824265,177.64159156009555L779.2554851341993,118.24708457104862Z" fill="#b9e8d7" stroke="#b9e8d7"></path><path d="M779.2554851341993,118.24708457104862L643.456158824265,177.64159156009555L859.4614284206182,284.3127133883536Z" fill="#afe6d4" stroke="#afe6d4"></path><path d="M779.2554851341993,118.24708457104862L859.4614284206182,284.3127133883536L960.8045896142721,171.70761737041175Z" fill="#a7e0d5" stroke="#a7e0d5"></path><path d="M1010.3834899328649,102.84183137118816L960.8045896142721,171.70761737041175L1117.5849720742553,198.4782606549561Z" fill="#9ed7d8" stroke="#9ed7d8"></path><path d="M1010.3834899328649,102.84183137118816L1117.5849720742553,198.4782606549561L1093.5965632740408,86.54518531635404Z" fill="#9dd5db" stroke="#9dd5db"></path><path d="M1093.5965632740408,86.54518531635404L1117.5849720742553,198.4782606549561L1281.100679403171,66.41929496079683Z" fill="#97d0dc" stroke="#97d0dc"></path><path d="M1281.100679403171,66.41929496079683L1117.5849720742553,198.4782606549561L1318.0425715260208,238.35055243223906Z" fill="#8ecad5" stroke="#8ecad5"></path><path d="M1281.100679403171,66.41929496079683L1318.0425715260208,238.35055243223906L1442.295928755775,184.4055698812008Z" fill="#86c2d1" stroke="#86c2d1"></path><path d="M1281.100679403171,66.41929496079683L1442.295928755775,184.4055698812008L1461.7423877399415,74.86723249778152Z" fill="#86bed3" stroke="#86bed3"></path><path d="M1461.7423877399415,74.86723249778152L1442.295928755775,184.4055698812008L1559.4778605736792,107.45835358276963Z" fill="#7eb7cf" stroke="#7eb7cf"></path><path d="M1559.4778605736792,107.45835358276963L1442.295928755775,184.4055698812008L1533.5751296952367,217.1099914982915Z" fill="#79b6ca" stroke="#79b6ca"></path><path d="M1559.4778605736792,107.45835358276963L1533.5751296952367,217.1099914982915L1675.9412532672286,176.2325669825077Z" fill="#73b0c8" stroke="#73b0c8"></path><path d="M1559.4778605736792,107.45835358276963L1675.9412532672286,176.2325669825077L1669.1934410948306,101.57493129372597Z" fill="#76acc8" stroke="#76acc8"></path><path d="M1669.1934410948306,101.57493129372597L1675.9412532672286,176.2325669825077L1824.6385995391756,93.13256210647523Z" fill="#76a6c5" stroke="#76a6c5"></path><path d="M1824.6385995391756,93.13256210647523L1675.9412532672286,176.2325669825077L1854.7128976229578,183.93742516636848Z" fill="#74a1c1" stroke="#74a1c1"></path><path d="M1824.6385995391756,93.13256210647523L1854.7128976229578,183.93742516636848L2017.3416059743613,58.36407138034701Z" fill="#7798c0" stroke="#7798c0"></path><path d="M2017.3416059743613,58.36407138034701L1854.7128976229578,183.93742516636848L2047.626364286989,281.44145739264786Z" fill="#7293b8" stroke="#7293b8"></path><path d="M-107.62900290079415,280.1648049149662L-115.99113126285374,403.9177514053881L102.65373076312244,375.5294203944504Z" fill="#d2f9ea" stroke="#d2f9ea"></path><path d="M-107.62900290079415,280.1648049149662L102.65373076312244,375.5294203944504L97.77627171948552,258.4388883970678Z" fill="#d5f9e4" stroke="#d5f9e4"></path><path d="M97.77627171948552,258.4388883970678L102.65373076312244,375.5294203944504L199.05177648179233,332.88063121028244Z" fill="#cbf6df" stroke="#cbf6df"></path><path d="M97.77627171948552,258.4388883970678L199.05177648179233,332.88063121028244L233.8224578741938,175.85222809575498Z" fill="#d3f6db" stroke="#d3f6db"></path><path d="M233.8224578741938,175.85222809575498L199.05177648179233,332.88063121028244L371.4076810050756,221.73784377984703Z" fill="#cff4d5" stroke="#cff4d5"></path><path d="M371.4076810050756,221.73784377984703L199.05177648179233,332.88063121028244L410.28590817935765,372.26106056012213Z" fill="#bff1d4" stroke="#bff1d4"></path><path d="M371.4076810050756,221.73784377984703L410.28590817935765,372.26106056012213L557.035292359069,243.61538786441088Z" fill="#bceed0" stroke="#bceed0"></path><path d="M557.035292359069,243.61538786441088L410.28590817935765,372.26106056012213L537.1094999089837,374.4214066118002Z" fill="#aeebd2" stroke="#aeebd2"></path><path d="M557.035292359069,243.61538786441088L537.1094999089837,374.4214066118002L682.1060801949352,371.95473873987794Z" fill="#a7e8d3" stroke="#a7e8d3"></path><path d="M557.035292359069,243.61538786441088L682.1060801949352,371.95473873987794L643.456158824265,177.64159156009555Z" fill="#afe9d2" stroke="#afe9d2"></path><path d="M643.456158824265,177.64159156009555L682.1060801949352,371.95473873987794L859.4614284206182,284.3127133883536Z" fill="#a5e5d3" stroke="#a5e5d3"></path><path d="M859.4614284206182,284.3127133883536L682.1060801949352,371.95473873987794L848.1644943449646,405.487881526351Z" fill="#92e0d6" stroke="#92e0d6"></path><path d="M859.4614284206182,284.3127133883536L848.1644943449646,405.487881526351L928.2441785093397,428.1825034227222Z" fill="#89dbd7" stroke="#89dbd7"></path><path d="M859.4614284206182,284.3127133883536L928.2441785093397,428.1825034227222L960.8045896142721,171.70761737041175Z" fill="#93dbd5" stroke="#93dbd5"></path><path d="M960.8045896142721,171.70761737041175L928.2441785093397,428.1825034227222L1147.8888025693595,322.3361860960722Z" fill="#8ad6d6" stroke="#8ad6d6"></path><path d="M960.8045896142721,171.70761737041175L1147.8888025693595,322.3361860960722L1117.5849720742553,198.4782606549561Z" fill="#93d4d5" stroke="#93d4d5"></path><path d="M1117.5849720742553,198.4782606549561L1147.8888025693595,322.3361860960722L1234.3156973551959,321.12618503160775Z" fill="#84ced6" stroke="#84ced6"></path><path d="M1117.5849720742553,198.4782606549561L1234.3156973551959,321.12618503160775L1318.0425715260208,238.35055243223906Z" fill="#84cad3" stroke="#84cad3"></path><path d="M1318.0425715260208,238.35055243223906L1234.3156973551959,321.12618503160775L1450.2812360040843,429.7599336504936Z" fill="#6ebfd1" stroke="#6ebfd1"></path><path d="M1318.0425715260208,238.35055243223906L1450.2812360040843,429.7599336504936L1442.295928755775,184.4055698812008Z" fill="#71bccd" stroke="#71bccd"></path><path d="M1442.295928755775,184.4055698812008L1450.2812360040843,429.7599336504936L1533.5751296952367,217.1099914982915Z" fill="#6cb6ca" stroke="#6cb6ca"></path><path d="M1533.5751296952367,217.1099914982915L1450.2812360040843,429.7599336504936L1539.5126173831522,420.7883298397064Z" fill="#5cb2cb" stroke="#5cb2cb"></path><path d="M1533.5751296952367,217.1099914982915L1539.5126173831522,420.7883298397064L1764.1444246843457,368.0546994879842Z" fill="#5aaac6" stroke="#5aaac6"></path><path d="M1533.5751296952367,217.1099914982915L1764.1444246843457,368.0546994879842L1675.9412532672286,176.2325669825077Z" fill="#68aac2" stroke="#68aac2"></path><path d="M1675.9412532672286,176.2325669825077L1764.1444246843457,368.0546994879842L1854.7128976229578,183.93742516636848Z" fill="#6aa1be" stroke="#6aa1be"></path><path d="M1854.7128976229578,183.93742516636848L1764.1444246843457,368.0546994879842L1919.7207271959633,355.5866510141641Z" fill="#5f9abc" stroke="#5f9abc"></path><path d="M1854.7128976229578,183.93742516636848L1919.7207271959633,355.5866510141641L2047.626364286989,281.44145739264786Z" fill="#6594b8" stroke="#6594b8"></path><path d="M2047.626364286989,281.44145739264786L1919.7207271959633,355.5866510141641L2009.8812083434314,356.4907499961555Z" fill="#5a8eb7" stroke="#5a8eb7"></path><path d="M2047.626364286989,281.44145739264786L2009.8812083434314,356.4907499961555L2080.880186352879,724.413497261703Z" fill="#4584b8" stroke="#4584b8"></path><path d="M-115.99113126285374,403.9177514053881L-121.8313196953386,798.1873037293553L-42.90830045007169,665.1230531092733Z" fill="#a9e2f2" stroke="#a9e2f2"></path><path d="M-115.99113126285374,403.9177514053881L-42.90830045007169,665.1230531092733L-18.12512937001884,482.28935041464865Z" fill="#b7edee" stroke="#b7edee"></path><path d="M-115.99113126285374,403.9177514053881L-18.12512937001884,482.28935041464865L102.65373076312244,375.5294203944504Z" fill="#c3f7ea" stroke="#c3f7ea"></path><path d="M102.65373076312244,375.5294203944504L-18.12512937001884,482.28935041464865L126.16579441353679,550.8089058101177Z" fill="#b6efe6" stroke="#b6efe6"></path><path d="M102.65373076312244,375.5294203944504L126.16579441353679,550.8089058101177L258.65861183032393,469.73258117213845Z" fill="#b0ede0" stroke="#b0ede0"></path><path d="M102.65373076312244,375.5294203944504L258.65861183032393,469.73258117213845L199.05177648179233,332.88063121028244Z" fill="#bbf2de" stroke="#bbf2de"></path><path d="M199.05177648179233,332.88063121028244L258.65861183032393,469.73258117213845L410.28590817935765,372.26106056012213Z" fill="#b3efd8" stroke="#b3efd8"></path><path d="M410.28590817935765,372.26106056012213L258.65861183032393,469.73258117213845L398.81480790674686,572.2818503435701Z" fill="#a2e7d5" stroke="#a2e7d5"></path><path d="M410.28590817935765,372.26106056012213L398.81480790674686,572.2818503435701L523.1117663998157,465.36745542660356Z" fill="#9be5d4" stroke="#9be5d4"></path><path d="M410.28590817935765,372.26106056012213L523.1117663998157,465.36745542660356L537.1094999089837,374.4214066118002Z" fill="#a2e9d4" stroke="#a2e9d4"></path><path d="M537.1094999089837,374.4214066118002L523.1117663998157,465.36745542660356L682.1060801949352,371.95473873987794Z" fill="#9be6d5" stroke="#9be6d5"></path><path d="M682.1060801949352,371.95473873987794L523.1117663998157,465.36745542660356L722.9766995552927,580.7536563556641Z" fill="#8aded7" stroke="#8aded7"></path><path d="M682.1060801949352,371.95473873987794L722.9766995552927,580.7536563556641L810.544946109876,519.5566899608821Z" fill="#80d9d8" stroke="#80d9d8"></path><path d="M682.1060801949352,371.95473873987794L810.544946109876,519.5566899608821L848.1644943449646,405.487881526351Z" fill="#85dfd7" stroke="#85dfd7"></path><path d="M848.1644943449646,405.487881526351L810.544946109876,519.5566899608821L928.2441785093397,428.1825034227222Z" fill="#7cd8d8" stroke="#7cd8d8"></path><path d="M928.2441785093397,428.1825034227222L810.544946109876,519.5566899608821L994.5011673867702,477.0942455716431Z" fill="#75d2d9" stroke="#75d2d9"></path><path d="M928.2441785093397,428.1825034227222L994.5011673867702,477.0942455716431L1147.8888025693595,322.3361860960722Z" fill="#78d2d9" stroke="#78d2d9"></path><path d="M1147.8888025693595,322.3361860960722L994.5011673867702,477.0942455716431L1162.9539680108428,550.2111171651632Z" fill="#6bcada" stroke="#6bcada"></path><path d="M1147.8888025693595,322.3361860960722L1162.9539680108428,550.2111171651632L1234.3156973551959,321.12618503160775Z" fill="#6ecad9" stroke="#6ecad9"></path><path d="M1234.3156973551959,321.12618503160775L1162.9539680108428,550.2111171651632L1283.9277890045196,580.7133661676198Z" fill="#5cbed8" stroke="#5cbed8"></path><path d="M1234.3156973551959,321.12618503160775L1283.9277890045196,580.7133661676198L1383.5625686869025,549.7516687307507Z" fill="#57b9d5" stroke="#57b9d5"></path><path d="M1234.3156973551959,321.12618503160775L1383.5625686869025,549.7516687307507L1450.2812360040843,429.7599336504936Z" fill="#5bbad2" stroke="#5bbad2"></path><path d="M1450.2812360040843,429.7599336504936L1383.5625686869025,549.7516687307507L1563.616770291701,494.8831134941429Z" fill="#49accf" stroke="#49accf"></path><path d="M1450.2812360040843,429.7599336504936L1563.616770291701,494.8831134941429L1539.5126173831522,420.7883298397064Z" fill="#4cadcc" stroke="#4cadcc"></path><path d="M1539.5126173831522,420.7883298397064L1563.616770291701,494.8831134941429L1764.1444246843457,368.0546994879842Z" fill="#49a7c8" stroke="#49a7c8"></path><path d="M1764.1444246843457,368.0546994879842L1563.616770291701,494.8831134941429L1727.1884901635349,556.6726641822606Z" fill="#429dc6" stroke="#429dc6"></path><path d="M1764.1444246843457,368.0546994879842L1727.1884901635349,556.6726641822606L1870.280107492581,573.6134990584105Z" fill="#3e92c2" stroke="#3e92c2"></path><path d="M1764.1444246843457,368.0546994879842L1870.280107492581,573.6134990584105L1919.7207271959633,355.5866510141641Z" fill="#4995bf" stroke="#4995bf"></path><path d="M1919.7207271959633,355.5866510141641L1870.280107492581,573.6134990584105L1979.7486456669867,572.9616709984839Z" fill="#3e88bd" stroke="#3e88bd"></path><path d="M1919.7207271959633,355.5866510141641L1979.7486456669867,572.9616709984839L2009.8812083434314,356.4907499961555Z" fill="#498cba" stroke="#498cba"></path><path d="M2009.8812083434314,356.4907499961555L1979.7486456669867,572.9616709984839L2080.880186352879,724.413497261703Z" fill="#367aba" stroke="#367aba"></path><path d="M-18.12512937001884,482.28935041464865L-42.90830045007169,665.1230531092733L126.16579441353679,550.8089058101177Z" fill="#aae5eb" stroke="#aae5eb"></path><path d="M126.16579441353679,550.8089058101177L-42.90830045007169,665.1230531092733L70.11633113957942,700.7310263067484Z" fill="#9ddcea" stroke="#9ddcea"></path><path d="M126.16579441353679,550.8089058101177L70.11633113957942,700.7310263067484L244.3010757677257,675.3128100838512Z" fill="#95d9e4" stroke="#95d9e4"></path><path d="M126.16579441353679,550.8089058101177L244.3010757677257,675.3128100838512L258.65861183032393,469.73258117213845Z" fill="#9de0e0" stroke="#9de0e0"></path><path d="M258.65861183032393,469.73258117213845L244.3010757677257,675.3128100838512L398.81480790674686,572.2818503435701Z" fill="#96dddb" stroke="#96dddb"></path><path d="M398.81480790674686,572.2818503435701L244.3010757677257,675.3128100838512L325.1168260909617,692.0317784976214Z" fill="#89d3da" stroke="#89d3da"></path><path d="M398.81480790674686,572.2818503435701L325.1168260909617,692.0317784976214L568.6989355925471,712.2268084064126Z" fill="#7fced6" stroke="#7fced6"></path><path d="M398.81480790674686,572.2818503435701L568.6989355925471,712.2268084064126L523.1117663998157,465.36745542660356Z" fill="#85d6d7" stroke="#85d6d7"></path><path d="M523.1117663998157,465.36745542660356L568.6989355925471,712.2268084064126L642.5831954553723,666.4122839737684Z" fill="#79d0d8" stroke="#79d0d8"></path><path d="M523.1117663998157,465.36745542660356L642.5831954553723,666.4122839737684L722.9766995552927,580.7536563556641Z" fill="#7cd3d8" stroke="#7cd3d8"></path><path d="M722.9766995552927,580.7536563556641L642.5831954553723,666.4122839737684L837.167372116819,663.4744571149349Z" fill="#69c8da" stroke="#69c8da"></path><path d="M722.9766995552927,580.7536563556641L837.167372116819,663.4744571149349L810.544946109876,519.5566899608821Z" fill="#6cccda" stroke="#6cccda"></path><path d="M810.544946109876,519.5566899608821L837.167372116819,663.4744571149349L971.5837518777698,654.2793671786785Z" fill="#62c4db" stroke="#62c4db"></path><path d="M810.544946109876,519.5566899608821L971.5837518777698,654.2793671786785L994.5011673867702,477.0942455716431Z" fill="#68c9da" stroke="#68c9da"></path><path d="M994.5011673867702,477.0942455716431L971.5837518777698,654.2793671786785L1086.8320047017187,675.9672096837312Z" fill="#59bedc" stroke="#59bedc"></path><path d="M994.5011673867702,477.0942455716431L1086.8320047017187,675.9672096837312L1162.9539680108428,550.2111171651632Z" fill="#5abedc" stroke="#5abedc"></path><path d="M1162.9539680108428,550.2111171651632L1086.8320047017187,675.9672096837312L1307.3670304846019,630.8481184858829Z" fill="#4ab2dc" stroke="#4ab2dc"></path><path d="M1162.9539680108428,550.2111171651632L1307.3670304846019,630.8481184858829L1283.9277890045196,580.7133661676198Z" fill="#4ab0d9" stroke="#4ab0d9"></path><path d="M1283.9277890045196,580.7133661676198L1307.3670304846019,630.8481184858829L1383.5625686869025,549.7516687307507Z" fill="#44abd6" stroke="#44abd6"></path><path d="M1383.5625686869025,549.7516687307507L1307.3670304846019,630.8481184858829L1417.207666374743,718.5008704662323Z" fill="#3aa2d5" stroke="#3aa2d5"></path><path d="M1383.5625686869025,549.7516687307507L1417.207666374743,718.5008704662323L1563.616770291701,494.8831134941429Z" fill="#3aa1d1" stroke="#3aa1d1"></path><path d="M1563.616770291701,494.8831134941429L1417.207666374743,718.5008704662323L1591.7470306623727,718.6135604605079Z" fill="#2d95cf" stroke="#2d95cf"></path><path d="M1563.616770291701,494.8831134941429L1591.7470306623727,718.6135604605079L1727.1884901635349,556.6726641822606Z" fill="#3093ca" stroke="#3093ca"></path><path d="M1727.1884901635349,556.6726641822606L1591.7470306623727,718.6135604605079L1749.5806714519858,695.657475264743Z" fill="#2686c7" stroke="#2686c7"></path><path d="M1727.1884901635349,556.6726641822606L1749.5806714519858,695.657475264743L1870.280107492581,573.6134990584105Z" fill="#2d86c5" stroke="#2d86c5"></path><path d="M1870.280107492581,573.6134990584105L1749.5806714519858,695.657475264743L1828.0094272457063,729.2470752820373Z" fill="#257bc1" stroke="#257bc1"></path><path d="M1870.280107492581,573.6134990584105L1828.0094272457063,729.2470752820373L1979.7486456669867,572.9616709984839Z" fill="#2a7bc1" stroke="#2a7bc1"></path><path d="M1979.7486456669867,572.9616709984839L1828.0094272457063,729.2470752820373L2080.880186352879,724.413497261703Z" fill="#246fbb" stroke="#246fbb"></path><path d="M-42.90830045007169,665.1230531092733L-121.8313196953386,798.1873037293553L67.09346467629075,805.4276810400188Z" fill="#96cbe5" stroke="#96cbe5"></path><path d="M-42.90830045007169,665.1230531092733L67.09346467629075,805.4276810400188L70.11633113957942,700.7310263067484Z" fill="#95cfe4" stroke="#95cfe4"></path><path d="M70.11633113957942,700.7310263067484L67.09346467629075,805.4276810400188L244.3010757677257,675.3128100838512Z" fill="#8ecbde" stroke="#8ecbde"></path><path d="M244.3010757677257,675.3128100838512L67.09346467629075,805.4276810400188L284.28610467351973,807.3149120528251Z" fill="#85c4d7" stroke="#85c4d7"></path><path d="M244.3010757677257,675.3128100838512L284.28610467351973,807.3149120528251L325.1168260909617,692.0317784976214Z" fill="#83c7d5" stroke="#83c7d5"></path><path d="M325.1168260909617,692.0317784976214L284.28610467351973,807.3149120528251L389.1097792983055,877.3324831947684Z" fill="#79bbcd" stroke="#79bbcd"></path><path d="M325.1168260909617,692.0317784976214L389.1097792983055,877.3324831947684L519.947441406548,789.8604486230761Z" fill="#74bacb" stroke="#74bacb"></path><path d="M325.1168260909617,692.0317784976214L519.947441406548,789.8604486230761L568.6989355925471,712.2268084064126Z" fill="#74c1d0" stroke="#74c1d0"></path><path d="M568.6989355925471,712.2268084064126L519.947441406548,789.8604486230761L701.2950592394918,821.1937079485506Z" fill="#65b6cd" stroke="#65b6cd"></path><path d="M568.6989355925471,712.2268084064126L701.2950592394918,821.1937079485506L642.5831954553723,666.4122839737684Z" fill="#66bbd1" stroke="#66bbd1"></path><path d="M642.5831954553723,666.4122839737684L701.2950592394918,821.1937079485506L837.167372116819,663.4744571149349Z" fill="#61bcd4" stroke="#61bcd4"></path><path d="M837.167372116819,663.4744571149349L701.2950592394918,821.1937079485506L768.0865068454295,878.8517413940281Z" fill="#56afce" stroke="#56afce"></path><path d="M837.167372116819,663.4744571149349L768.0865068454295,878.8517413940281L1000.9999409783632,859.1302794590592Z" fill="#4da7ce" stroke="#4da7ce"></path><path d="M837.167372116819,663.4744571149349L1000.9999409783632,859.1302794590592L971.5837518777698,654.2793671786785Z" fill="#50b0d5" stroke="#50b0d5"></path><path d="M971.5837518777698,654.2793671786785L1000.9999409783632,859.1302794590592L1086.8320047017187,675.9672096837312Z" fill="#4aaad5" stroke="#4aaad5"></path><path d="M1086.8320047017187,675.9672096837312L1000.9999409783632,859.1302794590592L1148.7135138362646,823.5124930366874Z" fill="#409ed1" stroke="#409ed1"></path><path d="M1086.8320047017187,675.9672096837312L1148.7135138362646,823.5124930366874L1307.3670304846019,630.8481184858829Z" fill="#40a4d7" stroke="#40a4d7"></path><path d="M1307.3670304846019,630.8481184858829L1148.7135138362646,823.5124930366874L1216.2855255044997,869.4367692153901Z" fill="#3696cf" stroke="#3696cf"></path><path d="M1307.3670304846019,630.8481184858829L1216.2855255044997,869.4367692153901L1365.028738277033,816.0024378541857Z" fill="#3191cd" stroke="#3191cd"></path><path d="M1307.3670304846019,630.8481184858829L1365.028738277033,816.0024378541857L1417.207666374743,718.5008704662323Z" fill="#3194ce" stroke="#3194ce"></path><path d="M1417.207666374743,718.5008704662323L1365.028738277033,816.0024378541857L1558.1595626659691,884.6052440721542Z" fill="#2280c4" stroke="#2280c4"></path><path d="M1417.207666374743,718.5008704662323L1558.1595626659691,884.6052440721542L1591.7470306623727,718.6135604605079Z" fill="#1f80c4" stroke="#1f80c4"></path><path d="M1591.7470306623727,718.6135604605079L1558.1595626659691,884.6052440721542L1769.9176897387952,837.6998190768063Z" fill="#1670bc" stroke="#1670bc"></path><path d="M1591.7470306623727,718.6135604605079L1769.9176897387952,837.6998190768063L1749.5806714519858,695.657475264743Z" fill="#1c76bf" stroke="#1c76bf"></path><path d="M1749.5806714519858,695.657475264743L1769.9176897387952,837.6998190768063L1828.0094272457063,729.2470752820373Z" fill="#1c70bc" stroke="#1c70bc"></path><path d="M1828.0094272457063,729.2470752820373L1769.9176897387952,837.6998190768063L1861.4645269699395,803.9019612036645Z" fill="#1867b7" stroke="#1867b7"></path><path d="M1828.0094272457063,729.2470752820373L1861.4645269699395,803.9019612036645L2080.880186352879,724.413497261703Z" fill="#1c65b6" stroke="#1c65b6"></path><path d="M2080.880186352879,724.413497261703L1861.4645269699395,803.9019612036645L2051.48557391949,824.8307361546904Z" fill="#195ab0" stroke="#195ab0"></path><path d="M2080.880186352879,724.413497261703L2051.48557391949,824.8307361546904L2055.601939363405,1102.4741712771356Z" fill="#0e45a6" stroke="#0e45a6"></path><path d="M2080.880186352879,724.413497261703L2055.601939363405,1102.4741712771356L2080.971905970946,1310.4933610651642Z" fill="#002a97" stroke="#002a97"></path><path d="M-121.8313196953386,798.1873037293553L-94.12093567661941,1314.548961929977L-76.99455538764596,1136.7654679901898Z" fill="#7f98cd" stroke="#7f98cd"></path><path d="M-121.8313196953386,798.1873037293553L-76.99455538764596,1136.7654679901898L-42.5595869589597,948.8862734287977Z" fill="#84abd6" stroke="#84abd6"></path><path d="M-121.8313196953386,798.1873037293553L-42.5595869589597,948.8862734287977L67.09346467629075,805.4276810400188Z" fill="#8cbcdd" stroke="#8cbcdd"></path><path d="M67.09346467629075,805.4276810400188L-42.5595869589597,948.8862734287977L30.48048642463982,945.6714292801917Z" fill="#83b2d6" stroke="#83b2d6"></path><path d="M67.09346467629075,805.4276810400188L30.48048642463982,945.6714292801917L205.26040049269795,983.556829886511Z" fill="#7caed0" stroke="#7caed0"></path><path d="M67.09346467629075,805.4276810400188L205.26040049269795,983.556829886511L284.28610467351973,807.3149120528251Z" fill="#7bb4cf" stroke="#7bb4cf"></path><path d="M284.28610467351973,807.3149120528251L205.26040049269795,983.556829886511L379.48809617199004,921.7862005066127Z" fill="#70aac6" stroke="#70aac6"></path><path d="M284.28610467351973,807.3149120528251L379.48809617199004,921.7862005066127L389.1097792983055,877.3324831947684Z" fill="#6fafc5" stroke="#6fafc5"></path><path d="M389.1097792983055,877.3324831947684L379.48809617199004,921.7862005066127L521.5246584825218,951.9721748493612Z" fill="#64a4c0" stroke="#64a4c0"></path><path d="M389.1097792983055,877.3324831947684L521.5246584825218,951.9721748493612L519.947441406548,789.8604486230761Z" fill="#65aac4" stroke="#65aac4"></path><path d="M519.947441406548,789.8604486230761L521.5246584825218,951.9721748493612L701.2950592394918,821.1937079485506Z" fill="#5faac7" stroke="#5faac7"></path><path d="M701.2950592394918,821.1937079485506L521.5246584825218,951.9721748493612L718.6496331263334,937.668301910162Z" fill="#54a0c3" stroke="#54a0c3"></path><path d="M701.2950592394918,821.1937079485506L718.6496331263334,937.668301910162L768.0865068454295,878.8517413940281Z" fill="#4fa1c6" stroke="#4fa1c6"></path><path d="M768.0865068454295,878.8517413940281L718.6496331263334,937.668301910162L861.1567343585193,940.015716003254Z" fill="#4798c3" stroke="#4798c3"></path><path d="M768.0865068454295,878.8517413940281L861.1567343585193,940.015716003254L1000.9999409783632,859.1302794590592Z" fill="#4398c6" stroke="#4398c6"></path><path d="M1000.9999409783632,859.1302794590592L861.1567343585193,940.015716003254L943.3289436344057,1004.0334744751453Z" fill="#3b8ec3" stroke="#3b8ec3"></path><path d="M1000.9999409783632,859.1302794590592L943.3289436344057,1004.0334744751453L1136.6194608807564,1016.3057525642216Z" fill="#3185c2" stroke="#3185c2"></path><path d="M1000.9999409783632,859.1302794590592L1136.6194608807564,1016.3057525642216L1148.7135138362646,823.5124930366874Z" fill="#328bc7" stroke="#328bc7"></path><path d="M1148.7135138362646,823.5124930366874L1136.6194608807564,1016.3057525642216L1216.2855255044997,869.4367692153901Z" fill="#2d86c7" stroke="#2d86c7"></path><path d="M1216.2855255044997,869.4367692153901L1136.6194608807564,1016.3057525642216L1259.9851449485868,927.1174023393542Z" fill="#267dc3" stroke="#267dc3"></path><path d="M1216.2855255044997,869.4367692153901L1259.9851449485868,927.1174023393542L1365.028738277033,816.0024378541857Z" fill="#2783c5" stroke="#2783c5"></path><path d="M1365.028738277033,816.0024378541857L1259.9851449485868,927.1174023393542L1374.8355243355036,985.9281228203326Z" fill="#1f78c0" stroke="#1f78c0"></path><path d="M1365.028738277033,816.0024378541857L1374.8355243355036,985.9281228203326L1558.1595626659691,884.6052440721542Z" fill="#1973bd" stroke="#1973bd"></path><path d="M1558.1595626659691,884.6052440721542L1374.8355243355036,985.9281228203326L1580.2331522852182,946.7459185235202Z" fill="#0f67b6" stroke="#0f67b6"></path><path d="M1558.1595626659691,884.6052440721542L1580.2331522852182,946.7459185235202L1679.4838994555175,983.4533200599253Z" fill="#095fb3" stroke="#095fb3"></path><path d="M1558.1595626659691,884.6052440721542L1679.4838994555175,983.4533200599253L1769.9176897387952,837.6998190768063Z" fill="#0c60b4" stroke="#0c60b4"></path><path d="M1769.9176897387952,837.6998190768063L1679.4838994555175,983.4533200599253L1885.1461297273636,989.6411572862417Z" fill="#0952ac" stroke="#0952ac"></path><path d="M1769.9176897387952,837.6998190768063L1885.1461297273636,989.6411572862417L1861.4645269699395,803.9019612036645Z" fill="#0f57af" stroke="#0f57af"></path><path d="M1861.4645269699395,803.9019612036645L1885.1461297273636,989.6411572862417L1981.6214716248214,921.9054700993001Z" fill="#0c4eaa" stroke="#0c4eaa"></path><path d="M1861.4645269699395,803.9019612036645L1981.6214716248214,921.9054700993001L2051.48557391949,824.8307361546904Z" fill="#1252ac" stroke="#1252ac"></path><path d="M2051.48557391949,824.8307361546904L1981.6214716248214,921.9054700993001L2055.601939363405,1102.4741712771356Z" fill="#073da1" stroke="#073da1"></path><path d="M-42.5595869589597,948.8862734287977L-76.99455538764596,1136.7654679901898L24.36359278857708,1160.1739287469536Z" fill="#7a97c9" stroke="#7a97c9"></path><path d="M-42.5595869589597,948.8862734287977L24.36359278857708,1160.1739287469536L30.48048642463982,945.6714292801917Z" fill="#78a0cd" stroke="#78a0cd"></path><path d="M30.48048642463982,945.6714292801917L24.36359278857708,1160.1739287469536L218.89598144218326,1079.6890032012016Z" fill="#7296c4" stroke="#7296c4"></path><path d="M30.48048642463982,945.6714292801917L218.89598144218326,1079.6890032012016L205.26040049269795,983.556829886511Z" fill="#6f9ec5" stroke="#6f9ec5"></path><path d="M205.26040049269795,983.556829886511L218.89598144218326,1079.6890032012016L379.48809617199004,921.7862005066127Z" fill="#689cbf" stroke="#689cbf"></path><path d="M379.48809617199004,921.7862005066127L218.89598144218326,1079.6890032012016L417.0224454347044,1096.5268900059164Z" fill="#6094b8" stroke="#6094b8"></path><path d="M379.48809617199004,921.7862005066127L417.0224454347044,1096.5268900059164L521.5246584825218,951.9721748493612Z" fill="#5c98ba" stroke="#5c98ba"></path><path d="M521.5246584825218,951.9721748493612L417.0224454347044,1096.5268900059164L554.6788139641285,1155.0300430040807Z" fill="#548ab4" stroke="#548ab4"></path><path d="M521.5246584825218,951.9721748493612L554.6788139641285,1155.0300430040807L665.3460958041251,1121.5221362002194Z" fill="#4d86b4" stroke="#4d86b4"></path><path d="M521.5246584825218,951.9721748493612L665.3460958041251,1121.5221362002194L718.6496331263334,937.668301910162Z" fill="#4a90ba" stroke="#4a90ba"></path><path d="M718.6496331263334,937.668301910162L665.3460958041251,1121.5221362002194L867.1987380646169,1113.7004000600427Z" fill="#3f83b7" stroke="#3f83b7"></path><path d="M718.6496331263334,937.668301910162L867.1987380646169,1113.7004000600427L861.1567343585193,940.015716003254Z" fill="#3c8abd" stroke="#3c8abd"></path><path d="M861.1567343585193,940.015716003254L867.1987380646169,1113.7004000600427L943.3289436344057,1004.0334744751453Z" fill="#3583bc" stroke="#3583bc"></path><path d="M943.3289436344057,1004.0334744751453L867.1987380646169,1113.7004000600427L1015.3969685453922,1067.9987477883697Z" fill="#3179b9" stroke="#3179b9"></path><path d="M943.3289436344057,1004.0334744751453L1015.3969685453922,1067.9987477883697L1136.6194608807564,1016.3057525642216Z" fill="#2b79bc" stroke="#2b79bc"></path><path d="M1136.6194608807564,1016.3057525642216L1015.3969685453922,1067.9987477883697L1145.151703711599,1180.6161375716329Z" fill="#266cb7" stroke="#266cb7"></path><path d="M1136.6194608807564,1016.3057525642216L1145.151703711599,1180.6161375716329L1263.3724998962134,1180.0015188474208Z" fill="#1f61b4" stroke="#1f61b4"></path><path d="M1136.6194608807564,1016.3057525642216L1263.3724998962134,1180.0015188474208L1259.9851449485868,927.1174023393542Z" fill="#1d6cb9" stroke="#1d6cb9"></path><path d="M1259.9851449485868,927.1174023393542L1263.3724998962134,1180.0015188474208L1374.8355243355036,985.9281228203326Z" fill="#1667b7" stroke="#1667b7"></path><path d="M1374.8355243355036,985.9281228203326L1263.3724998962134,1180.0015188474208L1475.7916353084147,1072.4459875188768Z" fill="#115ab0" stroke="#115ab0"></path><path d="M1374.8355243355036,985.9281228203326L1475.7916353084147,1072.4459875188768L1580.2331522852182,946.7459185235202Z" fill="#0a5fb3" stroke="#0a5fb3"></path><path d="M1580.2331522852182,946.7459185235202L1475.7916353084147,1072.4459875188768L1669.579159822315,1094.5495678950101Z" fill="#0151ac" stroke="#0151ac"></path><path d="M1580.2331522852182,946.7459185235202L1669.579159822315,1094.5495678950101L1679.4838994555175,983.4533200599253Z" fill="#0151ac" stroke="#0151ac"></path><path d="M1679.4838994555175,983.4533200599253L1669.579159822315,1094.5495678950101L1885.1461297273636,989.6411572862417Z" fill="#0047a6" stroke="#0047a6"></path><path d="M1885.1461297273636,989.6411572862417L1669.579159822315,1094.5495678950101L1895.397634478286,1111.5058434102684Z" fill="#003ba0" stroke="#003ba0"></path><path d="M1885.1461297273636,989.6411572862417L1895.397634478286,1111.5058434102684L2055.601939363405,1102.4741712771356Z" fill="#00309b" stroke="#00309b"></path><path d="M1885.1461297273636,989.6411572862417L2055.601939363405,1102.4741712771356L1981.6214716248214,921.9054700993001Z" fill="#02399f" stroke="#02399f"></path><path d="M-76.99455538764596,1136.7654679901898L-94.12093567661941,1314.548961929977L24.36359278857708,1160.1739287469536Z" fill="#7c83c0" stroke="#7c83c0"></path><path d="M24.36359278857708,1160.1739287469536L-94.12093567661941,1314.548961929977L124.36369565315545,1280.2243737503886Z" fill="#777cb8" stroke="#777cb8"></path><path d="M24.36359278857708,1160.1739287469536L124.36369565315545,1280.2243737503886L193.62822582945228,1249.0397138614208Z" fill="#707bb4" stroke="#707bb4"></path><path d="M24.36359278857708,1160.1739287469536L193.62822582945228,1249.0397138614208L218.89598144218326,1079.6890032012016Z" fill="#6e84b8" stroke="#6e84b8"></path><path d="M218.89598144218326,1079.6890032012016L193.62822582945228,1249.0397138614208L363.2322811335325,1284.383340049535Z" fill="#667bae" stroke="#667bae"></path><path d="M218.89598144218326,1079.6890032012016L363.2322811335325,1284.383340049535L417.0224454347044,1096.5268900059164Z" fill="#6181ae" stroke="#6181ae"></path><path d="M417.0224454347044,1096.5268900059164L363.2322811335325,1284.383340049535L501.6591274458915,1240.7698145136237Z" fill="#5a75a7" stroke="#5a75a7"></path><path d="M417.0224454347044,1096.5268900059164L501.6591274458915,1240.7698145136237L554.6788139641285,1155.0300430040807Z" fill="#547aab" stroke="#547aab"></path><path d="M554.6788139641285,1155.0300430040807L501.6591274458915,1240.7698145136237L731.7918615415692,1248.7988597899675Z" fill="#4c6fa8" stroke="#4c6fa8"></path><path d="M554.6788139641285,1155.0300430040807L731.7918615415692,1248.7988597899675L665.3460958041251,1121.5221362002194Z" fill="#4773ac" stroke="#4773ac"></path><path d="M665.3460958041251,1121.5221362002194L731.7918615415692,1248.7988597899675L867.1987380646169,1113.7004000600427Z" fill="#3f73af" stroke="#3f73af"></path><path d="M867.1987380646169,1113.7004000600427L731.7918615415692,1248.7988597899675L861.2454339209944,1289.1434986889362Z" fill="#3a66aa" stroke="#3a66aa"></path><path d="M867.1987380646169,1113.7004000600427L861.2454339209944,1289.1434986889362L958.0870284419507,1236.161965308711Z" fill="#3463ab" stroke="#3463ab"></path><path d="M867.1987380646169,1113.7004000600427L958.0870284419507,1236.161965308711L1015.3969685453922,1067.9987477883697Z" fill="#316cb2" stroke="#316cb2"></path><path d="M1015.3969685453922,1067.9987477883697L958.0870284419507,1236.161965308711L1145.151703711599,1180.6161375716329Z" fill="#2a63b1" stroke="#2a63b1"></path><path d="M1145.151703711599,1180.6161375716329L958.0870284419507,1236.161965308711L1121.086027622223,1265.8526213653386Z" fill="#2756ac" stroke="#2756ac"></path><path d="M1145.151703711599,1180.6161375716329L1121.086027622223,1265.8526213653386L1290.1617699768394,1248.5587020870298Z" fill="#1f4faa" stroke="#1f4faa"></path><path d="M1145.151703711599,1180.6161375716329L1290.1617699768394,1248.5587020870298L1263.3724998962134,1180.0015188474208Z" fill="#1c50ab" stroke="#1c50ab"></path><path d="M1263.3724998962134,1180.0015188474208L1290.1617699768394,1248.5587020870298L1475.7916353084147,1072.4459875188768Z" fill="#134eaa" stroke="#134eaa"></path><path d="M1475.7916353084147,1072.4459875188768L1290.1617699768394,1248.5587020870298L1386.5271995868534,1326.7434855177999Z" fill="#1043a4" stroke="#1043a4"></path><path d="M1475.7916353084147,1072.4459875188768L1386.5271995868534,1326.7434855177999L1581.5324531123042,1253.918548040092Z" fill="#083ba0" stroke="#083ba0"></path><path d="M1475.7916353084147,1072.4459875188768L1581.5324531123042,1253.918548040092L1629.6273855306208,1145.315467575565Z" fill="#023fa2" stroke="#023fa2"></path><path d="M1475.7916353084147,1072.4459875188768L1629.6273855306208,1145.315467575565L1669.579159822315,1094.5495678950101Z" fill="#0045a5" stroke="#0045a5"></path><path d="M1629.6273855306208,1145.315467575565L1581.5324531123042,1253.918548040092L1698.2113070972264,1229.2382323276252Z" fill="#00319b" stroke="#00319b"></path><path d="M1629.6273855306208,1145.315467575565L1698.2113070972264,1229.2382323276252L1669.579159822315,1094.5495678950101Z" fill="#00379e" stroke="#00379e"></path><path d="M1669.579159822315,1094.5495678950101L1698.2113070972264,1229.2382323276252L1895.397634478286,1111.5058434102684Z" fill="#00329b" stroke="#00329b"></path><path d="M1895.397634478286,1111.5058434102684L1698.2113070972264,1229.2382323276252L1926.9153614714742,1304.6333994995803Z" fill="#002092" stroke="#002092"></path><path d="M1895.397634478286,1111.5058434102684L1926.9153614714742,1304.6333994995803L2055.601939363405,1102.4741712771356Z" fill="#001e91" stroke="#001e91"></path><path d="M2055.601939363405,1102.4741712771356L1926.9153614714742,1304.6333994995803L2080.971905970946,1310.4933610651642Z" fill="#001089" stroke="#001089"></path><path d="M-94.12093567661941,1314.548961929977L1386.5271995868534,1326.7434855177999L861.2454339209944,1289.1434986889362Z" fill="#4268a2" stroke="#4268a2"></path><path d="M-94.12093567661941,1314.548961929977L861.2454339209944,1289.1434986889362L363.2322811335325,1284.383340049535Z" fill="#5e72a0" stroke="#5e72a0"></path><path d="M-94.12093567661941,1314.548961929977L363.2322811335325,1284.383340049535L124.36369565315545,1280.2243737503886Z" fill="#6f79ae" stroke="#6f79ae"></path><path d="M124.36369565315545,1280.2243737503886L363.2322811335325,1284.383340049535L193.62822582945228,1249.0397138614208Z" fill="#6877aa" stroke="#6877aa"></path><path d="M363.2322811335325,1284.383340049535L861.2454339209944,1289.1434986889362L731.7918615415692,1248.7988597899675Z" fill="#476aa4" stroke="#476aa4"></path><path d="M363.2322811335325,1284.383340049535L731.7918615415692,1248.7988597899675L501.6591274458915,1240.7698145136237Z" fill="#516ea4" stroke="#516ea4"></path><path d="M861.2454339209944,1289.1434986889362L1386.5271995868534,1326.7434855177999L1121.086027622223,1265.8526213653386Z" fill="#2453a6" stroke="#2453a6"></path><path d="M861.2454339209944,1289.1434986889362L1121.086027622223,1265.8526213653386L958.0870284419507,1236.161965308711Z" fill="#2e5ba7" stroke="#2e5ba7"></path><path d="M1121.086027622223,1265.8526213653386L1386.5271995868534,1326.7434855177999L1290.1617699768394,1248.5587020870298Z" fill="#1949a3" stroke="#1949a3"></path><path d="M1386.5271995868534,1326.7434855177999L2080.971905970946,1310.4933610651642L1926.9153614714742,1304.6333994995803Z" fill="#00208c" stroke="#00208c"></path><path d="M1386.5271995868534,1326.7434855177999L1926.9153614714742,1304.6333994995803L1581.5324531123042,1253.918548040092Z" fill="#002d94" stroke="#002d94"></path><path d="M1581.5324531123042,1253.918548040092L1926.9153614714742,1304.6333994995803L1698.2113070972264,1229.2382323276252Z" fill="#002592" stroke="#002592"></path></g><filter id="noise"><feTurbulence type="fractalNoise" in="fillPaint" fill="#F00" baseFrequency="0.7" numOctaves="10" stitchTiles="stitch"></feTurbulence><feComponentTransfer><feFuncR type="linear" slope="2" intercept="-.5"></feFuncR><feFuncG type="linear" slope="2" intercept="-.5"></feFuncG><feFuncB type="linear" slope="2" intercept="-.5"></feFuncB></feComponentTransfer><feColorMatrix type="matrix" values="0.3333 0.3333 0.3333 0 0 
 0.3333 0.3333 0.3333 0 0 
 0.3333 0.3333 0.3333 0 0 
 0 0 0 1 0"></feColorMatrix></filter><rect opacity="0.20000000000000007" width="100%" height="100%" filter="url(#noise)"></rect></svg>