<svg width="1920" height="1065" xmlns="http://www.w3.org/2000/svg"><g><path d="M-133.81861517205834,-28.951266668736935L-120.62231264077127,1286.7850083578378L-111.6778663918376,645.5426889192313Z" fill="#828e62" stroke="#828e62"></path><path d="M-133.81861517205834,-28.951266668736935L-111.6778663918376,645.5426889192313L-103.7861220818013,176.98647220619023Z" fill="#cc984b" stroke="#cc984b"></path><path d="M-133.81861517205834,-28.951266668736935L-103.7861220818013,176.98647220619023L-113.0776805151254,49.811944188550115Z" fill="#b66d21" stroke="#b66d21"></path><path d="M-133.81861517205834,-28.951266668736935L-113.0776805151254,49.811944188550115L58.79777228459716,-82.90466132573783Z" fill="#b15f14" stroke="#b15f14"></path><path d="M58.79777228459716,-82.90466132573783L-113.0776805151254,49.811944188550115L107.54489575512707,29.066130928695202Z" fill="#b76c20" stroke="#b76c20"></path><path d="M58.79777228459716,-82.90466132573783L107.54489575512707,29.066130928695202L275.30415759421885,-78.60937295481563Z" fill="#ba7024" stroke="#ba7024"></path><path d="M58.79777228459716,-82.90466132573783L275.30415759421885,-78.60937295481563L670.7284929323941,-101.39113563112915Z" fill="#c17930" stroke="#c17930"></path><path d="M275.30415759421885,-78.60937295481563L107.54489575512707,29.066130928695202L268.3263112977147,109.06182778067887Z" fill="#c58539" stroke="#c58539"></path><path d="M275.30415759421885,-78.60937295481563L268.3263112977147,109.06182778067887L424.87963389605284,-39.86860100179911Z" fill="#c98a40" stroke="#c98a40"></path><path d="M275.30415759421885,-78.60937295481563L424.87963389605284,-39.86860100179911L670.7284929323941,-101.39113563112915Z" fill="#c9883e" stroke="#c9883e"></path><path d="M424.87963389605284,-39.86860100179911L268.3263112977147,109.06182778067887L365.5653471685946,127.70931154489517Z" fill="#d29c51" stroke="#d29c51"></path><path d="M424.87963389605284,-39.86860100179911L365.5653471685946,127.70931154489517L497.3688705638051,-16.165457032620907Z" fill="#d29b50" stroke="#d29b50"></path><path d="M424.87963389605284,-39.86860100179911L497.3688705638051,-16.165457032620907L670.7284929323941,-101.39113563112915Z" fill="#c89049" stroke="#c89049"></path><path d="M497.3688705638051,-16.165457032620907L365.5653471685946,127.70931154489517L565.909422095865,130.86767882108688Z" fill="#dbac61" stroke="#dbac61"></path><path d="M497.3688705638051,-16.165457032620907L565.909422095865,130.86767882108688L726.4832847006619,36.67962639592588Z" fill="#cda764" stroke="#cda764"></path><path d="M497.3688705638051,-16.165457032620907L726.4832847006619,36.67962639592588L670.7284929323941,-101.39113563112915Z" fill="#c19655" stroke="#c19655"></path><path d="M670.7284929323941,-101.39113563112915L726.4832847006619,36.67962639592588L844.4975494779646,-75.66307640634477Z" fill="#b39459" stroke="#b39459"></path><path d="M670.7284929323941,-101.39113563112915L844.4975494779646,-75.66307640634477L971.5985992457718,-65.02188817597926Z" fill="#a88d57" stroke="#a88d57"></path><path d="M670.7284929323941,-101.39113563112915L971.5985992457718,-65.02188817597926L1178.1223246548325,-60.43398457579315Z" fill="#9d9061" stroke="#9d9061"></path><path d="M670.7284929323941,-101.39113563112915L1178.1223246548325,-60.43398457579315L1400.2161911688745,-65.5906043574214Z" fill="#8b8758" stroke="#8b8758"></path><path d="M670.7284929323941,-101.39113563112915L1400.2161911688745,-65.5906043574214L1751.8057018518448,-81.88988118432462Z" fill="#717747" stroke="#717747"></path><path d="M844.4975494779646,-75.66307640634477L726.4832847006619,36.67962639592588L795.5561366770416,109.08111764118075Z" fill="#b7a36b" stroke="#b7a36b"></path><path d="M844.4975494779646,-75.66307640634477L795.5561366770416,109.08111764118075L919.8644601926208,107.97056755051017Z" fill="#b3aa75" stroke="#b3aa75"></path><path d="M844.4975494779646,-75.66307640634477L919.8644601926208,107.97056755051017L971.5985992457718,-65.02188817597926Z" fill="#a79d6c" stroke="#a79d6c"></path><path d="M971.5985992457718,-65.02188817597926L919.8644601926208,107.97056755051017L1066.630945717916,59.31051199324429Z" fill="#a3a678" stroke="#a3a678"></path><path d="M971.5985992457718,-65.02188817597926L1066.630945717916,59.31051199324429L1178.1223246548325,-60.43398457579315Z" fill="#929364" stroke="#929364"></path><path d="M1178.1223246548325,-60.43398457579315L1066.630945717916,59.31051199324429L1246.4636350795627,30.98545990884304Z" fill="#899363" stroke="#899363"></path><path d="M1178.1223246548325,-60.43398457579315L1246.4636350795627,30.98545990884304L1278.3316369727254,-32.53839645534754Z" fill="#7d8757" stroke="#7d8757"></path><path d="M1178.1223246548325,-60.43398457579315L1278.3316369727254,-32.53839645534754L1400.2161911688745,-65.5906043574214Z" fill="#737c4c" stroke="#737c4c"></path><path d="M1278.3316369727254,-32.53839645534754L1246.4636350795627,30.98545990884304L1389.6421595849097,35.36862088367343Z" fill="#778958" stroke="#778958"></path><path d="M1278.3316369727254,-32.53839645534754L1389.6421595849097,35.36862088367343L1400.2161911688745,-65.5906043574214Z" fill="#6d7e4d" stroke="#6d7e4d"></path><path d="M1400.2161911688745,-65.5906043574214L1389.6421595849097,35.36862088367343L1536.453641653061,-31.616693940013647Z" fill="#617846" stroke="#617846"></path><path d="M1400.2161911688745,-65.5906043574214L1536.453641653061,-31.616693940013647L1751.8057018518448,-81.88988118432462Z" fill="#5d6633" stroke="#5d6633"></path><path d="M1536.453641653061,-31.616693940013647L1389.6421595849097,35.36862088367343L1564.7961388807744,94.44013346917927Z" fill="#677f4d" stroke="#677f4d"></path><path d="M1536.453641653061,-31.616693940013647L1564.7961388807744,94.44013346917927L1738.165535973385,66.37013453990221Z" fill="#687945" stroke="#687945"></path><path d="M1536.453641653061,-31.616693940013647L1738.165535973385,66.37013453990221L1751.8057018518448,-81.88988118432462Z" fill="#626733" stroke="#626733"></path><path d="M1751.8057018518448,-81.88988118432462L1738.165535973385,66.37013453990221L1873.504240270704,-36.08203964307904Z" fill="#615f2a" stroke="#615f2a"></path><path d="M1751.8057018518448,-81.88988118432462L1873.504240270704,-36.08203964307904L2055.970841674134,-44.22229520045221Z" fill="#5d4e19" stroke="#5d4e19"></path><path d="M1873.504240270704,-36.08203964307904L1738.165535973385,66.37013453990221L1850.3243827912956,124.23546041361988Z" fill="#696b36" stroke="#696b36"></path><path d="M1873.504240270704,-36.08203964307904L1850.3243827912956,124.23546041361988L1915.580877866596,170.97685799002647Z" fill="#6c6e38" stroke="#6c6e38"></path><path d="M1873.504240270704,-36.08203964307904L1915.580877866596,170.97685799002647L2070.197330340743,130.55471593514085Z" fill="#6d6932" stroke="#6d6932"></path><path d="M1873.504240270704,-36.08203964307904L2070.197330340743,130.55471593514085L2055.970841674134,-44.22229520045221Z" fill="#65561f" stroke="#65561f"></path><path d="M-113.0776805151254,49.811944188550115L-103.7861220818013,176.98647220619023L107.54489575512707,29.066130928695202Z" fill="#bd792d" stroke="#bd792d"></path><path d="M107.54489575512707,29.066130928695202L-103.7861220818013,176.98647220619023L45.41698515415192,233.50472951307893Z" fill="#c78c40" stroke="#c78c40"></path><path d="M107.54489575512707,29.066130928695202L45.41698515415192,233.50472951307893L216.43706487491727,237.0022471435368Z" fill="#d09b4f" stroke="#d09b4f"></path><path d="M107.54489575512707,29.066130928695202L216.43706487491727,237.0022471435368L268.3263112977147,109.06182778067887Z" fill="#cf994e" stroke="#cf994e"></path><path d="M268.3263112977147,109.06182778067887L216.43706487491727,237.0022471435368L318.72530789114535,200.4029111098498Z" fill="#daad61" stroke="#daad61"></path><path d="M268.3263112977147,109.06182778067887L318.72530789114535,200.4029111098498L365.5653471685946,127.70931154489517Z" fill="#d9aa5e" stroke="#d9aa5e"></path><path d="M365.5653471685946,127.70931154489517L318.72530789114535,200.4029111098498L408.6988307442516,340.3449465148151Z" fill="#e4c074" stroke="#e4c074"></path><path d="M365.5653471685946,127.70931154489517L408.6988307442516,340.3449465148151L559.6836320590228,259.1815058235079Z" fill="#ebcc81" stroke="#ebcc81"></path><path d="M365.5653471685946,127.70931154489517L559.6836320590228,259.1815058235079L565.909422095865,130.86767882108688Z" fill="#e4c076" stroke="#e4c076"></path><path d="M565.909422095865,130.86767882108688L559.6836320590228,259.1815058235079L677.9817958921194,242.28877401910722Z" fill="#ddca86" stroke="#ddca86"></path><path d="M565.909422095865,130.86767882108688L677.9817958921194,242.28877401910722L767.6788847800344,176.86675739474595Z" fill="#d3c585" stroke="#d3c585"></path><path d="M565.909422095865,130.86767882108688L767.6788847800344,176.86675739474595L726.4832847006619,36.67962639592588Z" fill="#cbb677" stroke="#cbb677"></path><path d="M726.4832847006619,36.67962639592588L767.6788847800344,176.86675739474595L795.5561366770416,109.08111764118075Z" fill="#c2b57b" stroke="#c2b57b"></path><path d="M795.5561366770416,109.08111764118075L767.6788847800344,176.86675739474595L919.8644601926208,107.97056755051017Z" fill="#bebb85" stroke="#bebb85"></path><path d="M919.8644601926208,107.97056755051017L767.6788847800344,176.86675739474595L1009.1762502864003,224.51315115205944Z" fill="#bbc592" stroke="#bbc592"></path><path d="M919.8644601926208,107.97056755051017L1009.1762502864003,224.51315115205944L1066.630945717916,59.31051199324429Z" fill="#acba8b" stroke="#acba8b"></path><path d="M1066.630945717916,59.31051199324429L1009.1762502864003,224.51315115205944L1131.2011368200183,253.301339764148Z" fill="#a8bf90" stroke="#a8bf90"></path><path d="M1066.630945717916,59.31051199324429L1131.2011368200183,253.301339764148L1233.6342182010412,227.00368758291006Z" fill="#9eb989" stroke="#9eb989"></path><path d="M1066.630945717916,59.31051199324429L1233.6342182010412,227.00368758291006L1246.4636350795627,30.98545990884304Z" fill="#91a776" stroke="#91a776"></path><path d="M1246.4636350795627,30.98545990884304L1233.6342182010412,227.00368758291006L1389.6421595849097,35.36862088367343Z" fill="#829d6c" stroke="#829d6c"></path><path d="M1389.6421595849097,35.36862088367343L1233.6342182010412,227.00368758291006L1434.1903268080205,172.31839830055833Z" fill="#7fa271" stroke="#7fa271"></path><path d="M1389.6421595849097,35.36862088367343L1434.1903268080205,172.31839830055833L1564.7961388807744,94.44013346917927Z" fill="#6e915e" stroke="#6e915e"></path><path d="M1564.7961388807744,94.44013346917927L1434.1903268080205,172.31839830055833L1555.9061064384878,278.02433327771723Z" fill="#779e6b" stroke="#779e6b"></path><path d="M1564.7961388807744,94.44013346917927L1555.9061064384878,278.02433327771723L1758.1396383885294,275.0030126888305Z" fill="#7a9d69" stroke="#7a9d69"></path><path d="M1564.7961388807744,94.44013346917927L1758.1396383885294,275.0030126888305L1738.165535973385,66.37013453990221Z" fill="#738955" stroke="#738955"></path><path d="M1738.165535973385,66.37013453990221L1758.1396383885294,275.0030126888305L1850.3243827912956,124.23546041361988Z" fill="#74854f" stroke="#74854f"></path><path d="M1850.3243827912956,124.23546041361988L1758.1396383885294,275.0030126888305L1915.580877866596,170.97685799002647Z" fill="#788851" stroke="#788851"></path><path d="M2070.197330340743,130.55471593514085L1915.580877866596,170.97685799002647L2002.7714834734797,236.0784106515348Z" fill="#767a42" stroke="#767a42"></path><path d="M2070.197330340743,130.55471593514085L2002.7714834734797,236.0784106515348L2073.4489215910435,322.123643187806Z" fill="#7c8149" stroke="#7c8149"></path><path d="M-103.7861220818013,176.98647220619023L-111.6778663918376,645.5426889192313L-78.35146078839898,331.64084611460567Z" fill="#b69d60" stroke="#b69d60"></path><path d="M-103.7861220818013,176.98647220619023L-78.35146078839898,331.64084611460567L45.41698515415192,233.50472951307893Z" fill="#ce9c4f" stroke="#ce9c4f"></path><path d="M45.41698515415192,233.50472951307893L-78.35146078839898,331.64084611460567L24.93653758428991,427.42802462540567Z" fill="#c6a561" stroke="#c6a561"></path><path d="M45.41698515415192,233.50472951307893L24.93653758428991,427.42802462540567L216.43706487491727,237.0022471435368Z" fill="#d2af67" stroke="#d2af67"></path><path d="M216.43706487491727,237.0022471435368L24.93653758428991,427.42802462540567L176.32714287377894,470.0708970800042Z" fill="#c6b577" stroke="#c6b577"></path><path d="M216.43706487491727,237.0022471435368L176.32714287377894,470.0708970800042L261.91467963159084,417.0103986840695Z" fill="#cbbd7f" stroke="#cbbd7f"></path><path d="M216.43706487491727,237.0022471435368L261.91467963159084,417.0103986840695L408.6988307442516,340.3449465148151Z" fill="#d8c480" stroke="#d8c480"></path><path d="M216.43706487491727,237.0022471435368L408.6988307442516,340.3449465148151L318.72530789114535,200.4029111098498Z" fill="#e5c377" stroke="#e5c377"></path><path d="M559.6836320590228,259.1815058235079L408.6988307442516,340.3449465148151L515.2391397021711,332.87248224020004Z" fill="#e5d691" stroke="#e5d691"></path><path d="M559.6836320590228,259.1815058235079L515.2391397021711,332.87248224020004L667.5050779245794,319.40138169564307Z" fill="#ded796" stroke="#ded796"></path><path d="M559.6836320590228,259.1815058235079L667.5050779245794,319.40138169564307L677.9817958921194,242.28877401910722Z" fill="#ded795" stroke="#ded795"></path><path d="M677.9817958921194,242.28877401910722L667.5050779245794,319.40138169564307L767.6788847800344,176.86675739474595Z" fill="#d7d395" stroke="#d7d395"></path><path d="M767.6788847800344,176.86675739474595L667.5050779245794,319.40138169564307L781.2871501967311,419.34816104359925Z" fill="#ced9a2" stroke="#ced9a2"></path><path d="M767.6788847800344,176.86675739474595L781.2871501967311,419.34816104359925L1009.1762502864003,224.51315115205944Z" fill="#c9d9a5" stroke="#c9d9a5"></path><path d="M1009.1762502864003,224.51315115205944L781.2871501967311,419.34816104359925L993.185895010829,404.0560337807983Z" fill="#b3dcb5" stroke="#b3dcb5"></path><path d="M1009.1762502864003,224.51315115205944L993.185895010829,404.0560337807983L1072.0267356187105,321.48722835816443Z" fill="#add7ad" stroke="#add7ad"></path><path d="M1009.1762502864003,224.51315115205944L1072.0267356187105,321.48722835816443L1131.2011368200183,253.301339764148Z" fill="#b1d2a2" stroke="#b1d2a2"></path><path d="M1131.2011368200183,253.301339764148L1072.0267356187105,321.48722835816443L1288.2506323233247,325.13582688756287Z" fill="#9ecc9f" stroke="#9ecc9f"></path><path d="M1131.2011368200183,253.301339764148L1288.2506323233247,325.13582688756287L1233.6342182010412,227.00368758291006Z" fill="#9dc796" stroke="#9dc796"></path><path d="M1233.6342182010412,227.00368758291006L1288.2506323233247,325.13582688756287L1434.1903268080205,172.31839830055833Z" fill="#8eba88" stroke="#8eba88"></path><path d="M1434.1903268080205,172.31839830055833L1288.2506323233247,325.13582688756287L1420.2276118844748,390.57305647060275Z" fill="#82bc8d" stroke="#82bc8d"></path><path d="M1434.1903268080205,172.31839830055833L1420.2276118844748,390.57305647060275L1555.9061064384878,278.02433327771723Z" fill="#7db483" stroke="#7db483"></path><path d="M1555.9061064384878,278.02433327771723L1420.2276118844748,390.57305647060275L1604.5629934128374,349.40213243477046Z" fill="#72b287" stroke="#72b287"></path><path d="M1555.9061064384878,278.02433327771723L1604.5629934128374,349.40213243477046L1758.1396383885294,275.0030126888305Z" fill="#79a878" stroke="#79a878"></path><path d="M1758.1396383885294,275.0030126888305L1604.5629934128374,349.40213243477046L1755.0771505013108,379.8650274798274Z" fill="#72a478" stroke="#72a478"></path><path d="M1758.1396383885294,275.0030126888305L1755.0771505013108,379.8650274798274L1846.8538726307452,383.4556001611054Z" fill="#709e72" stroke="#709e72"></path><path d="M1758.1396383885294,275.0030126888305L1846.8538726307452,383.4556001611054L1915.580877866596,170.97685799002647Z" fill="#7e9963" stroke="#7e9963"></path><path d="M1915.580877866596,170.97685799002647L1846.8538726307452,383.4556001611054L2002.7714834734797,236.0784106515348Z" fill="#7f925b" stroke="#7f925b"></path><path d="M2002.7714834734797,236.0784106515348L1846.8538726307452,383.4556001611054L2073.4489215910435,322.123643187806Z" fill="#77905e" stroke="#77905e"></path><path d="M-78.35146078839898,331.64084611460567L-111.6778663918376,645.5426889192313L-29.787451922893524,493.214018298313Z" fill="#a3a372" stroke="#a3a372"></path><path d="M-78.35146078839898,331.64084611460567L-29.787451922893524,493.214018298313L24.93653758428991,427.42802462540567Z" fill="#b4a56c" stroke="#b4a56c"></path><path d="M24.93653758428991,427.42802462540567L-29.787451922893524,493.214018298313L58.48713261075318,567.3887646384537Z" fill="#a7ac7d" stroke="#a7ac7d"></path><path d="M24.93653758428991,427.42802462540567L58.48713261075318,567.3887646384537L176.32714287377894,470.0708970800042Z" fill="#adb383" stroke="#adb383"></path><path d="M261.91467963159084,417.0103986840695L176.32714287377894,470.0708970800042L325.7489239331335,549.9368119239807Z" fill="#b9c393" stroke="#b9c393"></path><path d="M261.91467963159084,417.0103986840695L325.7489239331335,549.9368119239807L408.6988307442516,340.3449465148151Z" fill="#c5ca94" stroke="#c5ca94"></path><path d="M408.6988307442516,340.3449465148151L325.7489239331335,549.9368119239807L530.7838219217956,491.76923990249634Z" fill="#c6d4a1" stroke="#c6d4a1"></path><path d="M408.6988307442516,340.3449465148151L530.7838219217956,491.76923990249634L515.2391397021711,332.87248224020004Z" fill="#d7d89c" stroke="#d7d89c"></path><path d="M515.2391397021711,332.87248224020004L530.7838219217956,491.76923990249634L667.5050779245794,319.40138169564307Z" fill="#d0d9a1" stroke="#d0d9a1"></path><path d="M667.5050779245794,319.40138169564307L530.7838219217956,491.76923990249634L648.4510056953877,538.9606146421283Z" fill="#bedbaf" stroke="#bedbaf"></path><path d="M667.5050779245794,319.40138169564307L648.4510056953877,538.9606146421283L781.2871501967311,419.34816104359925Z" fill="#bbdbb1" stroke="#bbdbb1"></path><path d="M781.2871501967311,419.34816104359925L648.4510056953877,538.9606146421283L804.6930516790599,493.3806507010013Z" fill="#abddbd" stroke="#abddbd"></path><path d="M781.2871501967311,419.34816104359925L804.6930516790599,493.3806507010013L993.185895010829,404.0560337807983Z" fill="#a8debf" stroke="#a8debf"></path><path d="M993.185895010829,404.0560337807983L804.6930516790599,493.3806507010013L984.9753394536674,503.33649904467165Z" fill="#9cdfc7" stroke="#9cdfc7"></path><path d="M993.185895010829,404.0560337807983L984.9753394536674,503.33649904467165L1139.2527042422444,546.0145265143365Z" fill="#8bdac6" stroke="#8bdac6"></path><path d="M993.185895010829,404.0560337807983L1139.2527042422444,546.0145265143365L1072.0267356187105,321.48722835816443Z" fill="#93d6ba" stroke="#93d6ba"></path><path d="M1072.0267356187105,321.48722835816443L1139.2527042422444,546.0145265143365L1269.6058329753578,497.7812344953418Z" fill="#81d0b7" stroke="#81d0b7"></path><path d="M1072.0267356187105,321.48722835816443L1269.6058329753578,497.7812344953418L1288.2506323233247,325.13582688756287Z" fill="#88cba8" stroke="#88cba8"></path><path d="M1288.2506323233247,325.13582688756287L1269.6058329753578,497.7812344953418L1420.2276118844748,390.57305647060275Z" fill="#75c2a2" stroke="#75c2a2"></path><path d="M1420.2276118844748,390.57305647060275L1269.6058329753578,497.7812344953418L1440.7789267972112,489.15536493994296Z" fill="#63c0a6" stroke="#63c0a6"></path><path d="M1420.2276118844748,390.57305647060275L1440.7789267972112,489.15536493994296L1604.5629934128374,349.40213243477046Z" fill="#64b795" stroke="#64b795"></path><path d="M1604.5629934128374,349.40213243477046L1440.7789267972112,489.15536493994296L1565.4412702750415,563.0150634795427Z" fill="#59b49a" stroke="#59b49a"></path><path d="M1604.5629934128374,349.40213243477046L1565.4412702750415,563.0150634795427L1698.504037996754,569.1330557595938Z" fill="#54af97" stroke="#54af97"></path><path d="M1604.5629934128374,349.40213243477046L1698.504037996754,569.1330557595938L1755.0771505013108,379.8650274798274Z" fill="#60a888" stroke="#60a888"></path><path d="M1755.0771505013108,379.8650274798274L1698.504037996754,569.1330557595938L1846.8538726307452,383.4556001611054Z" fill="#5da283" stroke="#5da283"></path><path d="M1846.8538726307452,383.4556001611054L1698.504037996754,569.1330557595938L1909.8401935212314,575.8080740924925Z" fill="#51a089" stroke="#51a089"></path><path d="M1846.8538726307452,383.4556001611054L1909.8401935212314,575.8080740924925L1994.4959725812078,531.2500417325646Z" fill="#53987e" stroke="#53987e"></path><path d="M1846.8538726307452,383.4556001611054L1994.4959725812078,531.2500417325646L2073.4489215910435,322.123643187806Z" fill="#64926d" stroke="#64926d"></path><path d="M2073.4489215910435,322.123643187806L1994.4959725812078,531.2500417325646L2027.8553476464003,790.9375230967999Z" fill="#498e77" stroke="#498e77"></path><path d="M2073.4489215910435,322.123643187806L2027.8553476464003,790.9375230967999L2049.6639685705304,1182.630064599216Z" fill="#19694f" stroke="#19694f"></path><path d="M-29.787451922893524,493.214018298313L-111.6778663918376,645.5426889192313L58.48713261075318,567.3887646384537Z" fill="#96a277" stroke="#96a277"></path><path d="M58.48713261075318,567.3887646384537L-111.6778663918376,645.5426889192313L115.32637375406921,628.0395880714059Z" fill="#8ea074" stroke="#8ea074"></path><path d="M58.48713261075318,567.3887646384537L115.32637375406921,628.0395880714059L176.32714287377894,470.0708970800042Z" fill="#a1b488" stroke="#a1b488"></path><path d="M176.32714287377894,470.0708970800042L115.32637375406921,628.0395880714059L253.53188563138247,634.6278060972691Z" fill="#a0b68b" stroke="#a0b68b"></path><path d="M176.32714287377894,470.0708970800042L253.53188563138247,634.6278060972691L325.7489239331335,549.9368119239807Z" fill="#aac297" stroke="#aac297"></path><path d="M325.7489239331335,549.9368119239807L253.53188563138247,634.6278060972691L425.2295534312725,643.9832833316177Z" fill="#a2c195" stroke="#a2c195"></path><path d="M325.7489239331335,549.9368119239807L425.2295534312725,643.9832833316177L530.7838219217956,491.76923990249634Z" fill="#b2d1a7" stroke="#b2d1a7"></path><path d="M530.7838219217956,491.76923990249634L425.2295534312725,643.9832833316177L522.607233999297,632.3477870598435Z" fill="#aed2a9" stroke="#aed2a9"></path><path d="M530.7838219217956,491.76923990249634L522.607233999297,632.3477870598435L648.4510056953877,538.9606146421283Z" fill="#aed9b4" stroke="#aed9b4"></path><path d="M648.4510056953877,538.9606146421283L522.607233999297,632.3477870598435L700.3241845406592,695.9015420079231Z" fill="#9acfac" stroke="#9acfac"></path><path d="M648.4510056953877,538.9606146421283L700.3241845406592,695.9015420079231L821.7027099709958,678.1471789442003Z" fill="#8dceb0" stroke="#8dceb0"></path><path d="M648.4510056953877,538.9606146421283L821.7027099709958,678.1471789442003L804.6930516790599,493.3806507010013Z" fill="#98d9bf" stroke="#98d9bf"></path><path d="M804.6930516790599,493.3806507010013L821.7027099709958,678.1471789442003L993.1349299661815,629.1787511017174Z" fill="#86d5c2" stroke="#86d5c2"></path><path d="M804.6930516790599,493.3806507010013L993.1349299661815,629.1787511017174L984.9753394536674,503.33649904467165Z" fill="#8ddfd0" stroke="#8ddfd0"></path><path d="M984.9753394536674,503.33649904467165L993.1349299661815,629.1787511017174L1139.2527042422444,546.0145265143365Z" fill="#7cd7c8" stroke="#7cd7c8"></path><path d="M1139.2527042422444,546.0145265143365L993.1349299661815,629.1787511017174L1078.7570183817297,715.3865207545459Z" fill="#68c9b9" stroke="#68c9b9"></path><path d="M1139.2527042422444,546.0145265143365L1078.7570183817297,715.3865207545459L1247.5018889643252,657.7962078060955Z" fill="#5bc1b0" stroke="#5bc1b0"></path><path d="M1139.2527042422444,546.0145265143365L1247.5018889643252,657.7962078060955L1269.6058329753578,497.7812344953418Z" fill="#63c8b8" stroke="#63c8b8"></path><path d="M1269.6058329753578,497.7812344953418L1247.5018889643252,657.7962078060955L1440.7789267972112,489.15536493994296Z" fill="#59c4b3" stroke="#59c4b3"></path><path d="M1440.7789267972112,489.15536493994296L1247.5018889643252,657.7962078060955L1454.593064216897,695.6057422142476Z" fill="#43b4a2" stroke="#43b4a2"></path><path d="M1440.7789267972112,489.15536493994296L1454.593064216897,695.6057422142476L1552.5579932983965,632.1993758808821Z" fill="#3cae9b" stroke="#3cae9b"></path><path d="M1440.7789267972112,489.15536493994296L1552.5579932983965,632.1993758808821L1565.4412702750415,563.0150634795427Z" fill="#46b3a0" stroke="#46b3a0"></path><path d="M1565.4412702750415,563.0150634795427L1552.5579932983965,632.1993758808821L1698.504037996754,569.1330557595938Z" fill="#40a894" stroke="#40a894"></path><path d="M1698.504037996754,569.1330557595938L1552.5579932983965,632.1993758808821L1674.5662575680763,688.8940383866429Z" fill="#379e89" stroke="#379e89"></path><path d="M1698.504037996754,569.1330557595938L1674.5662575680763,688.8940383866429L1930.0556804426014,623.2157171331346Z" fill="#37957f" stroke="#37957f"></path><path d="M1698.504037996754,569.1330557595938L1930.0556804426014,623.2157171331346L1909.8401935212314,575.8080740924925Z" fill="#409580" stroke="#409580"></path><path d="M1909.8401935212314,575.8080740924925L1930.0556804426014,623.2157171331346L1994.4959725812078,531.2500417325646Z" fill="#43907a" stroke="#43907a"></path><path d="M1994.4959725812078,531.2500417325646L1930.0556804426014,623.2157171331346L1973.5375250224024,722.506745159626Z" fill="#38876f" stroke="#38876f"></path><path d="M1994.4959725812078,531.2500417325646L1973.5375250224024,722.506745159626L2027.8553476464003,790.9375230967999Z" fill="#2b7b63" stroke="#2b7b63"></path><path d="M-111.6778663918376,645.5426889192313L-120.62231264077127,1286.7850083578378L-104.79179805144668,1183.8638486992568Z" fill="#4d4d1a" stroke="#4d4d1a"></path><path d="M-111.6778663918376,645.5426889192313L-104.79179805144668,1183.8638486992568L-62.43869360536337,822.7703494951129Z" fill="#4e6838" stroke="#4e6838"></path><path d="M-111.6778663918376,645.5426889192313L-62.43869360536337,822.7703494951129L22.33750306069851,810.7698712963611Z" fill="#6a8153" stroke="#6a8153"></path><path d="M-111.6778663918376,645.5426889192313L22.33750306069851,810.7698712963611L115.32637375406921,628.0395880714059Z" fill="#7c9264" stroke="#7c9264"></path><path d="M115.32637375406921,628.0395880714059L22.33750306069851,810.7698712963611L224.76760430261493,788.4858056344092Z" fill="#789567" stroke="#789567"></path><path d="M115.32637375406921,628.0395880714059L224.76760430261493,788.4858056344092L253.53188563138247,634.6278060972691Z" fill="#8aa77a" stroke="#8aa77a"></path><path d="M253.53188563138247,634.6278060972691L224.76760430261493,788.4858056344092L425.2295534312725,643.9832833316177Z" fill="#8fb083" stroke="#8fb083"></path><path d="M425.2295534312725,643.9832833316177L224.76760430261493,788.4858056344092L355.0341045577079,882.6550494600087Z" fill="#7fa678" stroke="#7fa678"></path><path d="M425.2295534312725,643.9832833316177L355.0341045577079,882.6550494600087L575.3588281664997,883.4344924148172Z" fill="#7fac7e" stroke="#7fac7e"></path><path d="M425.2295534312725,643.9832833316177L575.3588281664997,883.4344924148172L522.607233999297,632.3477870598435Z" fill="#90be92" stroke="#90be92"></path><path d="M522.607233999297,632.3477870598435L575.3588281664997,883.4344924148172L700.3241845406592,695.9015420079231Z" fill="#83bc96" stroke="#83bc96"></path><path d="M700.3241845406592,695.9015420079231L575.3588281664997,883.4344924148172L718.4421452041715,869.530701963231Z" fill="#6baf8c" stroke="#6baf8c"></path><path d="M700.3241845406592,695.9015420079231L718.4421452041715,869.530701963231L819.913789127022,785.4265026189387Z" fill="#6ab698" stroke="#6ab698"></path><path d="M700.3241845406592,695.9015420079231L819.913789127022,785.4265026189387L821.7027099709958,678.1471789442003Z" fill="#75c1a6" stroke="#75c1a6"></path><path d="M821.7027099709958,678.1471789442003L819.913789127022,785.4265026189387L963.9209886454046,811.1199333518744Z" fill="#64bba5" stroke="#64bba5"></path><path d="M821.7027099709958,678.1471789442003L963.9209886454046,811.1199333518744L993.1349299661815,629.1787511017174Z" fill="#6ac4b2" stroke="#6ac4b2"></path><path d="M993.1349299661815,629.1787511017174L963.9209886454046,811.1199333518744L1078.7570183817297,715.3865207545459Z" fill="#5cbfae" stroke="#5cbfae"></path><path d="M1078.7570183817297,715.3865207545459L963.9209886454046,811.1199333518744L1167.0047130435705,864.1591585893184Z" fill="#44ae9c" stroke="#44ae9c"></path><path d="M1078.7570183817297,715.3865207545459L1167.0047130435705,864.1591585893184L1247.5018889643252,657.7962078060955Z" fill="#42af9d" stroke="#42af9d"></path><path d="M1247.5018889643252,657.7962078060955L1167.0047130435705,864.1591585893184L1294.669785965234,867.7471620496362Z" fill="#2ea28e" stroke="#2ea28e"></path><path d="M1247.5018889643252,657.7962078060955L1294.669785965234,867.7471620496362L1454.593064216897,695.6057422142476Z" fill="#2ea390" stroke="#2ea390"></path><path d="M1454.593064216897,695.6057422142476L1294.669785965234,867.7471620496362L1464.354413151741,791.517030922696Z" fill="#1a9782" stroke="#1a9782"></path><path d="M1454.593064216897,695.6057422142476L1464.354413151741,791.517030922696L1620.488178692758,777.4508783407509Z" fill="#1b937e" stroke="#1b937e"></path><path d="M1454.593064216897,695.6057422142476L1620.488178692758,777.4508783407509L1552.5579932983965,632.1993758808821Z" fill="#279a85" stroke="#279a85"></path><path d="M1552.5579932983965,632.1993758808821L1620.488178692758,777.4508783407509L1674.5662575680763,688.8940383866429Z" fill="#28957f" stroke="#28957f"></path><path d="M1674.5662575680763,688.8940383866429L1620.488178692758,777.4508783407509L1781.218665232882,882.4611058551818Z" fill="#15816a" stroke="#15816a"></path><path d="M1674.5662575680763,688.8940383866429L1781.218665232882,882.4611058551818L1879.9614112079144,777.8089676611125Z" fill="#157b63" stroke="#157b63"></path><path d="M1674.5662575680763,688.8940383866429L1879.9614112079144,777.8089676611125L1930.0556804426014,623.2157171331346Z" fill="#28856e" stroke="#28856e"></path><path d="M1930.0556804426014,623.2157171331346L1879.9614112079144,777.8089676611125L1973.5375250224024,722.506745159626Z" fill="#267c64" stroke="#267c64"></path><path d="M1973.5375250224024,722.506745159626L1879.9614112079144,777.8089676611125L2027.8553476464003,790.9375230967999Z" fill="#197057" stroke="#197057"></path><path d="M-62.43869360536337,822.7703494951129L-104.79179805144668,1183.8638486992568L-52.68942187540233,1005.0108483061194Z" fill="#4f5725" stroke="#4f5725"></path><path d="M-62.43869360536337,822.7703494951129L-52.68942187540233,1005.0108483061194L55.244102301076055,938.9735621865839Z" fill="#526a39" stroke="#526a39"></path><path d="M-62.43869360536337,822.7703494951129L55.244102301076055,938.9735621865839L22.33750306069851,810.7698712963611Z" fill="#587747" stroke="#587747"></path><path d="M22.33750306069851,810.7698712963611L55.244102301076055,938.9735621865839L224.76760430261493,788.4858056344092Z" fill="#608253" stroke="#608253"></path><path d="M224.76760430261493,788.4858056344092L55.244102301076055,938.9735621865839L219.64714377187192,947.9700704477727Z" fill="#5d8251" stroke="#5d8251"></path><path d="M224.76760430261493,788.4858056344092L219.64714377187192,947.9700704477727L355.0341045577079,882.6550494600087Z" fill="#648f5f" stroke="#648f5f"></path><path d="M355.0341045577079,882.6550494600087L219.64714377187192,947.9700704477727L390.51122741773725,974.214900098741Z" fill="#668a59" stroke="#668a59"></path><path d="M355.0341045577079,882.6550494600087L390.51122741773725,974.214900098741L575.3588281664997,883.4344924148172Z" fill="#6d9a6a" stroke="#6d9a6a"></path><path d="M575.3588281664997,883.4344924148172L390.51122741773725,974.214900098741L472.2026241570711,1005.2177304122597Z" fill="#709767" stroke="#709767"></path><path d="M575.3588281664997,883.4344924148172L472.2026241570711,1005.2177304122597L695.152688305825,968.3933650888503Z" fill="#66986e" stroke="#66986e"></path><path d="M575.3588281664997,883.4344924148172L695.152688305825,968.3933650888503L718.4421452041715,869.530701963231Z" fill="#5ea17c" stroke="#5ea17c"></path><path d="M718.4421452041715,869.530701963231L695.152688305825,968.3933650888503L814.3140263389796,963.9662376232445Z" fill="#569d7d" stroke="#569d7d"></path><path d="M718.4421452041715,869.530701963231L814.3140263389796,963.9662376232445L819.913789127022,785.4265026189387Z" fill="#53a88b" stroke="#53a88b"></path><path d="M819.913789127022,785.4265026189387L814.3140263389796,963.9662376232445L965.6457352638245,927.3250054568052Z" fill="#49a58d" stroke="#49a58d"></path><path d="M819.913789127022,785.4265026189387L965.6457352638245,927.3250054568052L963.9209886454046,811.1199333518744Z" fill="#4dae9a" stroke="#4dae9a"></path><path d="M963.9209886454046,811.1199333518744L965.6457352638245,927.3250054568052L1167.0047130435705,864.1591585893184Z" fill="#39a592" stroke="#39a592"></path><path d="M1167.0047130435705,864.1591585893184L965.6457352638245,927.3250054568052L1170.7247237674892,919.6861066482961Z" fill="#2e9a86" stroke="#2e9a86"></path><path d="M1167.0047130435705,864.1591585893184L1170.7247237674892,919.6861066482961L1294.669785965234,867.7471620496362Z" fill="#1f9580" stroke="#1f9580"></path><path d="M1294.669785965234,867.7471620496362L1170.7247237674892,919.6861066482961L1305.7080204226077,961.4277336839586Z" fill="#198c76" stroke="#198c76"></path><path d="M1294.669785965234,867.7471620496362L1305.7080204226077,961.4277336839586L1459.744313629344,949.857370108366Z" fill="#0c836c" stroke="#0c836c"></path><path d="M1294.669785965234,867.7471620496362L1459.744313629344,949.857370108366L1464.354413151741,791.517030922696Z" fill="#078973" stroke="#078973"></path><path d="M1464.354413151741,791.517030922696L1459.744313629344,949.857370108366L1620.488178692758,777.4508783407509Z" fill="#09866f" stroke="#09866f"></path><path d="M1620.488178692758,777.4508783407509L1459.744313629344,949.857370108366L1624.3195443972945,999.1747544892132Z" fill="#00765e" stroke="#00765e"></path><path d="M1620.488178692758,777.4508783407509L1624.3195443972945,999.1747544892132L1781.218665232882,882.4611058551818Z" fill="#007259" stroke="#007259"></path><path d="M1781.218665232882,882.4611058551818L1624.3195443972945,999.1747544892132L1759.3808405287564,1022.0684598572552Z" fill="#006147" stroke="#006147"></path><path d="M1781.218665232882,882.4611058551818L1759.3808405287564,1022.0684598572552L1921.37042010203,997.0818141102791Z" fill="#005a3f" stroke="#005a3f"></path><path d="M1781.218665232882,882.4611058551818L1921.37042010203,997.0818141102791L1879.9614112079144,777.8089676611125Z" fill="#00644a" stroke="#00644a"></path><path d="M1879.9614112079144,777.8089676611125L1921.37042010203,997.0818141102791L2027.8553476464003,790.9375230967999Z" fill="#056348" stroke="#056348"></path><path d="M2027.8553476464003,790.9375230967999L1921.37042010203,997.0818141102791L1975.0795753486454,1015.4661082103848Z" fill="#005438" stroke="#005438"></path><path d="M2027.8553476464003,790.9375230967999L1975.0795753486454,1015.4661082103848L2049.6639685705304,1182.630064599216Z" fill="#004629" stroke="#004629"></path><path d="M-52.68942187540233,1005.0108483061194L-104.79179805144668,1183.8638486992568L125.46753035858274,1151.3044254016131Z" fill="#534b18" stroke="#534b18"></path><path d="M-52.68942187540233,1005.0108483061194L125.46753035858274,1151.3044254016131L55.244102301076055,938.9735621865839Z" fill="#565e2c" stroke="#565e2c"></path><path d="M55.244102301076055,938.9735621865839L125.46753035858274,1151.3044254016131L172.3572382517159,1126.772925015539Z" fill="#5a5f2c" stroke="#5a5f2c"></path><path d="M55.244102301076055,938.9735621865839L172.3572382517159,1126.772925015539L219.64714377187192,947.9700704477727Z" fill="#5c6d3c" stroke="#5c6d3c"></path><path d="M219.64714377187192,947.9700704477727L172.3572382517159,1126.772925015539L365.23087598383427,1165.7354651670903Z" fill="#626b39" stroke="#626b39"></path><path d="M219.64714377187192,947.9700704477727L365.23087598383427,1165.7354651670903L390.51122741773725,974.214900098741Z" fill="#677b49" stroke="#677b49"></path><path d="M390.51122741773725,974.214900098741L365.23087598383427,1165.7354651670903L472.2026241570711,1005.2177304122597Z" fill="#6c804e" stroke="#6c804e"></path><path d="M472.2026241570711,1005.2177304122597L365.23087598383427,1165.7354651670903L504.85565797425807,1078.6845700722188Z" fill="#6e7e4c" stroke="#6e7e4c"></path><path d="M472.2026241570711,1005.2177304122597L504.85565797425807,1078.6845700722188L695.152688305825,968.3933650888503Z" fill="#688e61" stroke="#688e61"></path><path d="M695.152688305825,968.3933650888503L504.85565797425807,1078.6845700722188L704.1921984683722,1129.9984677415341Z" fill="#60885f" stroke="#60885f"></path><path d="M695.152688305825,968.3933650888503L704.1921984683722,1129.9984677415341L839.1030878294259,1083.2810194976628Z" fill="#558867" stroke="#558867"></path><path d="M695.152688305825,968.3933650888503L839.1030878294259,1083.2810194976628L814.3140263389796,963.9662376232445Z" fill="#529273" stroke="#529273"></path><path d="M814.3140263389796,963.9662376232445L839.1030878294259,1083.2810194976628L965.6457352638245,927.3250054568052Z" fill="#49957c" stroke="#49957c"></path><path d="M965.6457352638245,927.3250054568052L839.1030878294259,1083.2810194976628L995.484468229115,1154.3895066250116Z" fill="#438b75" stroke="#438b75"></path><path d="M965.6457352638245,927.3250054568052L995.484468229115,1154.3895066250116L1162.1812993381172,1092.123319907114Z" fill="#36856f" stroke="#36856f"></path><path d="M965.6457352638245,927.3250054568052L1162.1812993381172,1092.123319907114L1170.7247237674892,919.6861066482961Z" fill="#2e8e78" stroke="#2e8e78"></path><path d="M1170.7247237674892,919.6861066482961L1162.1812993381172,1092.123319907114L1305.7080204226077,961.4277336839586Z" fill="#1f836d" stroke="#1f836d"></path><path d="M1305.7080204226077,961.4277336839586L1162.1812993381172,1092.123319907114L1234.7648683190346,1147.522236853838Z" fill="#1c755d" stroke="#1c755d"></path><path d="M1305.7080204226077,961.4277336839586L1234.7648683190346,1147.522236853838L1374.5165279041976,1093.7181152869016Z" fill="#137058" stroke="#137058"></path><path d="M1305.7080204226077,961.4277336839586L1374.5165279041976,1093.7181152869016L1459.744313629344,949.857370108366Z" fill="#09755d" stroke="#09755d"></path><path d="M1459.744313629344,949.857370108366L1374.5165279041976,1093.7181152869016L1612.9920150898397,1137.4818553961813Z" fill="#00644a" stroke="#00644a"></path><path d="M1459.744313629344,949.857370108366L1612.9920150898397,1137.4818553961813L1624.3195443972945,999.1747544892132Z" fill="#006349" stroke="#006349"></path><path d="M1624.3195443972945,999.1747544892132L1612.9920150898397,1137.4818553961813L1687.9280804470181,1103.6243084818125Z" fill="#005539" stroke="#005539"></path><path d="M1624.3195443972945,999.1747544892132L1687.9280804470181,1103.6243084818125L1759.3808405287564,1022.0684598572552Z" fill="#00573c" stroke="#00573c"></path><path d="M1759.3808405287564,1022.0684598572552L1687.9280804470181,1103.6243084818125L1882.6341992150992,1065.7664701435715Z" fill="#004d31" stroke="#004d31"></path><path d="M1759.3808405287564,1022.0684598572552L1882.6341992150992,1065.7664701435715L1921.37042010203,997.0818141102791Z" fill="#004d31" stroke="#004d31"></path><path d="M1921.37042010203,997.0818141102791L1882.6341992150992,1065.7664701435715L1975.0795753486454,1015.4661082103848Z" fill="#00482b" stroke="#00482b"></path><path d="M1975.0795753486454,1015.4661082103848L1882.6341992150992,1065.7664701435715L2049.6639685705304,1182.630064599216Z" fill="#003b1d" stroke="#003b1d"></path><path d="M-104.79179805144668,1183.8638486992568L-120.62231264077127,1286.7850083578378L20.2469468023628,1334.657290270552Z" fill="#4f2c06" stroke="#4f2c06"></path><path d="M-104.79179805144668,1183.8638486992568L20.2469468023628,1334.657290270552L125.46753035858274,1151.3044254016131Z" fill="#543c0f" stroke="#543c0f"></path><path d="M125.46753035858274,1151.3044254016131L20.2469468023628,1334.657290270552L236.1964712664485,1275.846257088706Z" fill="#5b421a" stroke="#5b421a"></path><path d="M125.46753035858274,1151.3044254016131L236.1964712664485,1275.846257088706L172.3572382517159,1126.772925015539Z" fill="#5e5320" stroke="#5e5320"></path><path d="M172.3572382517159,1126.772925015539L236.1964712664485,1275.846257088706L365.23087598383427,1165.7354651670903Z" fill="#635a28" stroke="#635a28"></path><path d="M365.23087598383427,1165.7354651670903L236.1964712664485,1275.846257088706L372.8462424315512,1270.885430490598Z" fill="#67592f" stroke="#67592f"></path><path d="M365.23087598383427,1165.7354651670903L372.8462424315512,1270.885430490598L565.607057986781,1314.311281805858Z" fill="#6d623a" stroke="#6d623a"></path><path d="M365.23087598383427,1165.7354651670903L565.607057986781,1314.311281805858L504.85565797425807,1078.6845700722188Z" fill="#70713f" stroke="#70713f"></path><path d="M504.85565797425807,1078.6845700722188L565.607057986781,1314.311281805858L704.1921984683722,1129.9984677415341Z" fill="#657447" stroke="#657447"></path><path d="M704.1921984683722,1129.9984677415341L565.607057986781,1314.311281805858L711.3664782419801,1235.694931447506Z" fill="#5e6c4c" stroke="#5e6c4c"></path><path d="M704.1921984683722,1129.9984677415341L711.3664782419801,1235.694931447506L839.1030878294259,1083.2810194976628Z" fill="#557a57" stroke="#557a57"></path><path d="M839.1030878294259,1083.2810194976628L711.3664782419801,1235.694931447506L823.9319138601422,1300.7950316928327Z" fill="#517155" stroke="#517155"></path><path d="M839.1030878294259,1083.2810194976628L823.9319138601422,1300.7950316928327L995.484468229115,1154.3895066250116Z" fill="#48775c" stroke="#48775c"></path><path d="M995.484468229115,1154.3895066250116L823.9319138601422,1300.7950316928327L966.4248182717711,1297.611261382699Z" fill="#436b5f" stroke="#436b5f"></path><path d="M995.484468229115,1154.3895066250116L966.4248182717711,1297.611261382699L1129.3691312056035,1330.8791255112737Z" fill="#37655b" stroke="#37655b"></path><path d="M995.484468229115,1154.3895066250116L1129.3691312056035,1330.8791255112737L1162.1812993381172,1092.123319907114Z" fill="#2e6b55" stroke="#2e6b55"></path><path d="M1162.1812993381172,1092.123319907114L1129.3691312056035,1330.8791255112737L1234.7648683190346,1147.522236853838Z" fill="#24664f" stroke="#24664f"></path><path d="M1234.7648683190346,1147.522236853838L1129.3691312056035,1330.8791255112737L1277.0488735288382,1274.3176743295044Z" fill="#1f594c" stroke="#1f594c"></path><path d="M1234.7648683190346,1147.522236853838L1277.0488735288382,1274.3176743295044L1374.5165279041976,1093.7181152869016Z" fill="#146046" stroke="#146046"></path><path d="M1374.5165279041976,1093.7181152869016L1277.0488735288382,1274.3176743295044L1442.1442927233875,1246.8661185912788Z" fill="#0b553f" stroke="#0b553f"></path><path d="M1374.5165279041976,1093.7181152869016L1442.1442927233875,1246.8661185912788L1612.9920150898397,1137.4818553961813Z" fill="#005439" stroke="#005439"></path><path d="M1612.9920150898397,1137.4818553961813L1442.1442927233875,1246.8661185912788L1581.0907632485032,1328.0613319482654Z" fill="#004230" stroke="#004230"></path><path d="M1612.9920150898397,1137.4818553961813L1581.0907632485032,1328.0613319482654L1714.3378414213657,1235.5691446736455Z" fill="#003c28" stroke="#003c28"></path><path d="M1612.9920150898397,1137.4818553961813L1714.3378414213657,1235.5691446736455L1687.9280804470181,1103.6243084818125Z" fill="#004528" stroke="#004528"></path><path d="M1687.9280804470181,1103.6243084818125L1714.3378414213657,1235.5691446736455L1882.6341992150992,1065.7664701435715Z" fill="#004325" stroke="#004325"></path><path d="M1882.6341992150992,1065.7664701435715L1714.3378414213657,1235.5691446736455L1832.1584557089955,1290.2763999067247Z" fill="#00351a" stroke="#00351a"></path><path d="M1882.6341992150992,1065.7664701435715L1832.1584557089955,1290.2763999067247L2023.612893903628,1254.1699440032244Z" fill="#002c11" stroke="#002c11"></path><path d="M1882.6341992150992,1065.7664701435715L2023.612893903628,1254.1699440032244L2049.6639685705304,1182.630064599216Z" fill="#002c0d" stroke="#002c0d"></path><path d="M20.2469468023628,1334.657290270552L1129.3691312056035,1330.8791255112737L565.607057986781,1314.311281805858Z" fill="#676245" stroke="#676245"></path><path d="M20.2469468023628,1334.657290270552L565.607057986781,1314.311281805858L236.1964712664485,1275.846257088706Z" fill="#644c2a" stroke="#644c2a"></path><path d="M236.1964712664485,1275.846257088706L565.607057986781,1314.311281805858L372.8462424315512,1270.885430490598Z" fill="#6a5836" stroke="#6a5836"></path><path d="M565.607057986781,1314.311281805858L1129.3691312056035,1330.8791255112737L823.9319138601422,1300.7950316928327Z" fill="#4c6558" stroke="#4c6558"></path><path d="M565.607057986781,1314.311281805858L823.9319138601422,1300.7950316928327L711.3664782419801,1235.694931447506Z" fill="#5a644e" stroke="#5a644e"></path><path d="M823.9319138601422,1300.7950316928327L1129.3691312056035,1330.8791255112737L966.4248182717711,1297.611261382699Z" fill="#3e6660" stroke="#3e6660"></path><path d="M1129.3691312056035,1330.8791255112737L1581.0907632485032,1328.0613319482654L1277.0488735288382,1274.3176743295044Z" fill="#0f4b42" stroke="#0f4b42"></path><path d="M1277.0488735288382,1274.3176743295044L1581.0907632485032,1328.0613319482654L1442.1442927233875,1246.8661185912788Z" fill="#024339" stroke="#024339"></path><path d="M1581.0907632485032,1328.0613319482654L1832.1584557089955,1290.2763999067247L1714.3378414213657,1235.5691446736455Z" fill="#002f22" stroke="#002f22"></path></g><filter id="noise"><feTurbulence type="fractalNoise" in="fillPaint" fill="#F00" baseFrequency="0.7" numOctaves="10" stitchTiles="stitch"></feTurbulence><feComponentTransfer><feFuncR type="linear" slope="2" intercept="-.5"></feFuncR><feFuncG type="linear" slope="2" intercept="-.5"></feFuncG><feFuncB type="linear" slope="2" intercept="-.5"></feFuncB></feComponentTransfer><feColorMatrix type="matrix" values="0.3333 0.3333 0.3333 0 0 
 0.3333 0.3333 0.3333 0 0 
 0.3333 0.3333 0.3333 0 0 
 0 0 0 1 0"></feColorMatrix></filter><rect opacity="0.20000000000000007" width="100%" height="100%" filter="url(#noise)"></rect></svg>