<svg width="1920" height="1065" xmlns="http://www.w3.org/2000/svg"><g><path d="M-79.05362846329808,-103.20757920853794L-100.03065655007958,110.56888349354267L103.14894349314272,24.73645431920886Z" fill="#fff7ef" stroke="#fff7ef"></path><path d="M-79.05362846329808,-103.20757920853794L103.14894349314272,24.73645431920886L23.36721676401794,-132.59262319654226Z" fill="#fff5ed" stroke="#fff5ed"></path><path d="M23.36721676401794,-132.59262319654226L103.14894349314272,24.73645431920886L212.27913737297058,-106.5046218317002Z" fill="#ffefe2" stroke="#ffefe2"></path><path d="M23.36721676401794,-132.59262319654226L212.27913737297058,-106.5046218317002L334.9984228424728,-122.81920149922371Z" fill="#ffebd9" stroke="#ffebd9"></path><path d="M23.36721676401794,-132.59262319654226L334.9984228424728,-122.81920149922371L725.3865631856024,-118.86471538804471Z" fill="#fee0c5" stroke="#fee0c5"></path><path d="M23.36721676401794,-132.59262319654226L725.3865631856024,-118.86471538804471L1386.8820086494088,-126.23631751164794Z" fill="#fecaa3" stroke="#fecaa3"></path><path d="M23.36721676401794,-132.59262319654226L1386.8820086494088,-126.23631751164794L1844.2244142852724,-127.87109040655196Z" fill="#f5af8a" stroke="#f5af8a"></path><path d="M212.27913737297058,-106.5046218317002L103.14894349314272,24.73645431920886L250.3507773578167,82.20374213531613Z" fill="#ffebd9" stroke="#ffebd9"></path><path d="M212.27913737297058,-106.5046218317002L250.3507773578167,82.20374213531613L334.9984228424728,-122.81920149922371Z" fill="#fee6d0" stroke="#fee6d0"></path><path d="M334.9984228424728,-122.81920149922371L250.3507773578167,82.20374213531613L385.9611955471337,98.48746466450393Z" fill="#fee1c5" stroke="#fee1c5"></path><path d="M334.9984228424728,-122.81920149922371L385.9611955471337,98.48746466450393L558.9279117062688,-32.34537829644978Z" fill="#fedcbe" stroke="#fedcbe"></path><path d="M334.9984228424728,-122.81920149922371L558.9279117062688,-32.34537829644978L725.3865631856024,-118.86471538804471Z" fill="#fed5b3" stroke="#fed5b3"></path><path d="M558.9279117062688,-32.34537829644978L385.9611955471337,98.48746466450393L481.6129594668746,97.07878374494612Z" fill="#fed5ad" stroke="#fed5ad"></path><path d="M558.9279117062688,-32.34537829644978L481.6129594668746,97.07878374494612L653.1353121344,132.15191882103682Z" fill="#fecfa2" stroke="#fecfa2"></path><path d="M558.9279117062688,-32.34537829644978L653.1353121344,132.15191882103682L795.2735398896039,-35.13014668598771Z" fill="#fecba2" stroke="#fecba2"></path><path d="M558.9279117062688,-32.34537829644978L795.2735398896039,-35.13014668598771L725.3865631856024,-118.86471538804471Z" fill="#fecba5" stroke="#fecba5"></path><path d="M725.3865631856024,-118.86471538804471L795.2735398896039,-35.13014668598771L996.7075433582067,-112.34250973910093Z" fill="#fcc199" stroke="#fcc199"></path><path d="M725.3865631856024,-118.86471538804471L996.7075433582067,-112.34250973910093L1386.8820086494088,-126.23631751164794Z" fill="#f6b38d" stroke="#f6b38d"></path><path d="M795.2735398896039,-35.13014668598771L653.1353121344,132.15191882103682L793.6421398445964,91.1891558021307Z" fill="#fec491" stroke="#fec491"></path><path d="M795.2735398896039,-35.13014668598771L793.6421398445964,91.1891558021307L992.788131153211,35.630771862342954Z" fill="#fbbe91" stroke="#fbbe91"></path><path d="M795.2735398896039,-35.13014668598771L992.788131153211,35.630771862342954L996.7075433582067,-112.34250973910093Z" fill="#f9bb94" stroke="#f9bb94"></path><path d="M996.7075433582067,-112.34250973910093L992.788131153211,35.630771862342954L1107.7459564525634,-25.000176401808858Z" fill="#f6b38e" stroke="#f6b38e"></path><path d="M996.7075433582067,-112.34250973910093L1107.7459564525634,-25.000176401808858L1234.6106072701514,-79.91297601722181Z" fill="#f4ad89" stroke="#f4ad89"></path><path d="M996.7075433582067,-112.34250973910093L1234.6106072701514,-79.91297601722181L1386.8820086494088,-126.23631751164794Z" fill="#eea886" stroke="#eea886"></path><path d="M1107.7459564525634,-25.000176401808858L992.788131153211,35.630771862342954L1147.6909958012402,102.97471451573074Z" fill="#f5ad82" stroke="#f5ad82"></path><path d="M1107.7459564525634,-25.000176401808858L1147.6909958012402,102.97471451573074L1234.6106072701514,-79.91297601722181Z" fill="#f2aa86" stroke="#f2aa86"></path><path d="M1234.6106072701514,-79.91297601722181L1147.6909958012402,102.97471451573074L1249.0956410206854,123.54645073413849Z" fill="#eea57a" stroke="#eea57a"></path><path d="M1234.6106072701514,-79.91297601722181L1249.0956410206854,123.54645073413849L1455.862615434453,54.38937923870981Z" fill="#e5a27d" stroke="#e5a27d"></path><path d="M1234.6106072701514,-79.91297601722181L1455.862615434453,54.38937923870981L1386.8820086494088,-126.23631751164794Z" fill="#e1a284" stroke="#e1a284"></path><path d="M1386.8820086494088,-126.23631751164794L1455.862615434453,54.38937923870981L1575.217460570857,-84.41033944487572Z" fill="#d89d82" stroke="#d89d82"></path><path d="M1386.8820086494088,-126.23631751164794L1575.217460570857,-84.41033944487572L1723.238388011232,-121.77849526517093Z" fill="#d19a81" stroke="#d19a81"></path><path d="M1386.8820086494088,-126.23631751164794L1723.238388011232,-121.77849526517093L1844.2244142852724,-127.87109040655196Z" fill="#c99680" stroke="#c99680"></path><path d="M1575.217460570857,-84.41033944487572L1455.862615434453,54.38937923870981L1633.9232184179127,118.71257283724844Z" fill="#d1987b" stroke="#d1987b"></path><path d="M1575.217460570857,-84.41033944487572L1633.9232184179127,118.71257283724844L1768.1194902956486,73.20658321492374Z" fill="#c89378" stroke="#c89378"></path><path d="M1575.217460570857,-84.41033944487572L1768.1194902956486,73.20658321492374L1723.238388011232,-121.77849526517093Z" fill="#c69580" stroke="#c69580"></path><path d="M1723.238388011232,-121.77849526517093L1768.1194902956486,73.20658321492374L1844.2244142852724,-127.87109040655196Z" fill="#bf9180" stroke="#bf9180"></path><path d="M1844.2244142852724,-127.87109040655196L1768.1194902956486,73.20658321492374L1874.0678638592362,67.2100495453924Z" fill="#ba8e7f" stroke="#ba8e7f"></path><path d="M1844.2244142852724,-127.87109040655196L1874.0678638592362,67.2100495453924L2028.5005096066743,-93.12680155970156Z" fill="#b38b80" stroke="#b38b80"></path><path d="M2028.5005096066743,-93.12680155970156L1874.0678638592362,67.2100495453924L1994.0110801253468,78.3140844013542Z" fill="#af887c" stroke="#af887c"></path><path d="M2028.5005096066743,-93.12680155970156L1994.0110801253468,78.3140844013542L2084.7855906933546,359.91116219200194Z" fill="#a97f66" stroke="#a97f66"></path><path d="M-100.03065655007958,110.56888349354267L-120.61055716127157,338.31158679910004L-19.829981345683336,238.17388996481895Z" fill="#ffebc4" stroke="#ffebc4"></path><path d="M-100.03065655007958,110.56888349354267L-19.829981345683336,238.17388996481895L90.16781830228865,185.15891480259597Z" fill="#ffebc7" stroke="#ffebc7"></path><path d="M-100.03065655007958,110.56888349354267L90.16781830228865,185.15891480259597L103.14894349314272,24.73645431920886Z" fill="#ffedd3" stroke="#ffedd3"></path><path d="M103.14894349314272,24.73645431920886L90.16781830228865,185.15891480259597L250.3507773578167,82.20374213531613Z" fill="#ffe7c8" stroke="#ffe7c8"></path><path d="M250.3507773578167,82.20374213531613L90.16781830228865,185.15891480259597L254.57471972331405,264.7047906462103Z" fill="#fedfaf" stroke="#fedfaf"></path><path d="M250.3507773578167,82.20374213531613L254.57471972331405,264.7047906462103L385.9611955471337,98.48746466450393Z" fill="#fedaaa" stroke="#fedaaa"></path><path d="M385.9611955471337,98.48746466450393L254.57471972331405,264.7047906462103L401.94510480389,239.9583924561739Z" fill="#fed498" stroke="#fed498"></path><path d="M385.9611955471337,98.48746466450393L401.94510480389,239.9583924561739L481.6129594668746,97.07878374494612Z" fill="#fed39e" stroke="#fed39e"></path><path d="M481.6129594668746,97.07878374494612L401.94510480389,239.9583924561739L514.6891602035612,205.5883874092251Z" fill="#fece91" stroke="#fece91"></path><path d="M481.6129594668746,97.07878374494612L514.6891602035612,205.5883874092251L653.1353121344,132.15191882103682Z" fill="#fecb91" stroke="#fecb91"></path><path d="M653.1353121344,132.15191882103682L514.6891602035612,205.5883874092251L677.9959470592439,255.01481663435698Z" fill="#fec37f" stroke="#fec37f"></path><path d="M653.1353121344,132.15191882103682L677.9959470592439,255.01481663435698L780.2343755867332,167.8342858236283Z" fill="#febe7a" stroke="#febe7a"></path><path d="M653.1353121344,132.15191882103682L780.2343755867332,167.8342858236283L793.6421398445964,91.1891558021307Z" fill="#febf83" stroke="#febf83"></path><path d="M793.6421398445964,91.1891558021307L780.2343755867332,167.8342858236283L960.1095866784453,264.8636993765831Z" fill="#fcb571" stroke="#fcb571"></path><path d="M793.6421398445964,91.1891558021307L960.1095866784453,264.8636993765831L992.788131153211,35.630771862342954Z" fill="#fab377" stroke="#fab377"></path><path d="M992.788131153211,35.630771862342954L960.1095866784453,264.8636993765831L1137.0088914781809,196.06361903250217Z" fill="#f6a868" stroke="#f6a868"></path><path d="M992.788131153211,35.630771862342954L1137.0088914781809,196.06361903250217L1147.6909958012402,102.97471451573074Z" fill="#f5a770" stroke="#f5a770"></path><path d="M1147.6909958012402,102.97471451573074L1137.0088914781809,196.06361903250217L1249.0956410206854,123.54645073413849Z" fill="#f1a066" stroke="#f1a066"></path><path d="M1249.0956410206854,123.54645073413849L1137.0088914781809,196.06361903250217L1231.2193487305194,238.8048088364303Z" fill="#ee9c5b" stroke="#ee9c5b"></path><path d="M1249.0956410206854,123.54645073413849L1231.2193487305194,238.8048088364303L1435.8839828521013,165.05632851272821Z" fill="#e6995c" stroke="#e6995c"></path><path d="M1249.0956410206854,123.54645073413849L1435.8839828521013,165.05632851272821L1455.862615434453,54.38937923870981Z" fill="#e09a69" stroke="#e09a69"></path><path d="M1455.862615434453,54.38937923870981L1435.8839828521013,165.05632851272821L1578.5319432243705,173.7019639648497Z" fill="#d79464" stroke="#d79464"></path><path d="M1455.862615434453,54.38937923870981L1578.5319432243705,173.7019639648497L1633.9232184179127,118.71257283724844Z" fill="#d19266" stroke="#d19266"></path><path d="M1633.9232184179127,118.71257283724844L1578.5319432243705,173.7019639648497L1679.22877994366,222.78779041953385Z" fill="#cb8b59" stroke="#cb8b59"></path><path d="M1633.9232184179127,118.71257283724844L1679.22877994366,222.78779041953385L1768.1194902956486,73.20658321492374Z" fill="#c68b60" stroke="#c68b60"></path><path d="M1768.1194902956486,73.20658321492374L1679.22877994366,222.78779041953385L1867.2032754030079,179.81856127269566Z" fill="#bf875c" stroke="#bf875c"></path><path d="M1768.1194902956486,73.20658321492374L1867.2032754030079,179.81856127269566L1874.0678638592362,67.2100495453924Z" fill="#ba8867" stroke="#ba8867"></path><path d="M1874.0678638592362,67.2100495453924L1867.2032754030079,179.81856127269566L1994.0110801253468,78.3140844013542Z" fill="#b38567" stroke="#b38567"></path><path d="M1994.0110801253468,78.3140844013542L1867.2032754030079,179.81856127269566L2008.6689154151827,249.5388547796756Z" fill="#b07f59" stroke="#b07f59"></path><path d="M1994.0110801253468,78.3140844013542L2008.6689154151827,249.5388547796756L2084.7855906933546,359.91116219200194Z" fill="#aa764c" stroke="#aa764c"></path><path d="M-19.829981345683336,238.17388996481895L-120.61055716127157,338.31158679910004L103.78854425624013,341.7330123949796Z" fill="#ffdcad" stroke="#ffdcad"></path><path d="M-19.829981345683336,238.17388996481895L103.78854425624013,341.7330123949796L90.16781830228865,185.15891480259597Z" fill="#ffdfaf" stroke="#ffdfaf"></path><path d="M90.16781830228865,185.15891480259597L103.78854425624013,341.7330123949796L254.57471972331405,264.7047906462103Z" fill="#ffd8a2" stroke="#ffd8a2"></path><path d="M254.57471972331405,264.7047906462103L103.78854425624013,341.7330123949796L255.68667604587972,359.5257730409503Z" fill="#fecd90" stroke="#fecd90"></path><path d="M254.57471972331405,264.7047906462103L255.68667604587972,359.5257730409503L359.44004273973405,334.00292057543993Z" fill="#fec887" stroke="#fec887"></path><path d="M254.57471972331405,264.7047906462103L359.44004273973405,334.00292057543993L401.94510480389,239.9583924561739Z" fill="#fecb8a" stroke="#fecb8a"></path><path d="M401.94510480389,239.9583924561739L359.44004273973405,334.00292057543993L553.4643565211445,418.3123539760709Z" fill="#febd75" stroke="#febd75"></path><path d="M401.94510480389,239.9583924561739L553.4643565211445,418.3123539760709L514.6891602035612,205.5883874092251Z" fill="#febf78" stroke="#febf78"></path><path d="M514.6891602035612,205.5883874092251L553.4643565211445,418.3123539760709L615.594295822084,384.47887622751296Z" fill="#feb468" stroke="#feb468"></path><path d="M514.6891602035612,205.5883874092251L615.594295822084,384.47887622751296L677.9959470592439,255.01481663435698Z" fill="#feb96f" stroke="#feb96f"></path><path d="M677.9959470592439,255.01481663435698L615.594295822084,384.47887622751296L848.2373372744769,427.3340022750199Z" fill="#fea855" stroke="#fea855"></path><path d="M677.9959470592439,255.01481663435698L848.2373372744769,427.3340022750199L780.2343755867332,167.8342858236283Z" fill="#feaf5f" stroke="#feaf5f"></path><path d="M780.2343755867332,167.8342858236283L848.2373372744769,427.3340022750199L960.1095866784453,264.8636993765831Z" fill="#fba758" stroke="#fba758"></path><path d="M960.1095866784453,264.8636993765831L848.2373372744769,427.3340022750199L1005.9517594613135,401.4711238257587Z" fill="#f99744" stroke="#f99744"></path><path d="M960.1095866784453,264.8636993765831L1005.9517594613135,401.4711238257587L1111.6721080150455,332.05188900232315Z" fill="#f79545" stroke="#f79545"></path><path d="M960.1095866784453,264.8636993765831L1111.6721080150455,332.05188900232315L1137.0088914781809,196.06361903250217Z" fill="#f59b50" stroke="#f59b50"></path><path d="M1137.0088914781809,196.06361903250217L1111.6721080150455,332.05188900232315L1231.2193487305194,238.8048088364303Z" fill="#f2964d" stroke="#f2964d"></path><path d="M1231.2193487305194,238.8048088364303L1111.6721080150455,332.05188900232315L1276.940244762227,412.6891468651593Z" fill="#ee8a3e" stroke="#ee8a3e"></path><path d="M1231.2193487305194,238.8048088364303L1276.940244762227,412.6891468651593L1446.0318045783788,350.731032975018Z" fill="#e5853b" stroke="#e5853b"></path><path d="M1231.2193487305194,238.8048088364303L1446.0318045783788,350.731032975018L1435.8839828521013,165.05632851272821Z" fill="#e08e4b" stroke="#e08e4b"></path><path d="M1435.8839828521013,165.05632851272821L1446.0318045783788,350.731032975018L1578.5319432243705,173.7019639648497Z" fill="#d78c4e" stroke="#d78c4e"></path><path d="M1578.5319432243705,173.7019639648497L1446.0318045783788,350.731032975018L1620.373902367428,415.5697762593627Z" fill="#d27e3c" stroke="#d27e3c"></path><path d="M1578.5319432243705,173.7019639648497L1620.373902367428,415.5697762593627L1679.22877994366,222.78779041953385Z" fill="#cb8144" stroke="#cb8144"></path><path d="M1679.22877994366,222.78779041953385L1620.373902367428,415.5697762593627L1708.9336174540222,321.5245428867638Z" fill="#c87839" stroke="#c87839"></path><path d="M1679.22877994366,222.78779041953385L1708.9336174540222,321.5245428867638L1867.2032754030079,179.81856127269566Z" fill="#c18049" stroke="#c18049"></path><path d="M1867.2032754030079,179.81856127269566L1708.9336174540222,321.5245428867638L1881.1763453297317,433.56101824902Z" fill="#bb743b" stroke="#bb743b"></path><path d="M1867.2032754030079,179.81856127269566L1881.1763453297317,433.56101824902L2008.6689154151827,249.5388547796756Z" fill="#b37340" stroke="#b37340"></path><path d="M2008.6689154151827,249.5388547796756L1881.1763453297317,433.56101824902L2084.7855906933546,359.91116219200194Z" fill="#ad6834" stroke="#ad6834"></path><path d="M-120.61055716127157,338.31158679910004L-79.64865485206246,1162.4469226319343L-94.4081327598542,766.3089328631759Z" fill="#efa58c" stroke="#efa58c"></path><path d="M-120.61055716127157,338.31158679910004L-94.4081327598542,766.3089328631759L-16.08420018106699,556.4156746398658Z" fill="#ffbb91" stroke="#ffbb91"></path><path d="M-120.61055716127157,338.31158679910004L-16.08420018106699,556.4156746398658L103.78854425624013,341.7330123949796Z" fill="#ffcd97" stroke="#ffcd97"></path><path d="M103.78854425624013,341.7330123949796L-16.08420018106699,556.4156746398658L81.85548095963895,540.4698406532407Z" fill="#ffbf88" stroke="#ffbf88"></path><path d="M103.78854425624013,341.7330123949796L81.85548095963895,540.4698406532407L255.68667604587972,359.5257730409503Z" fill="#ffc384" stroke="#ffc384"></path><path d="M255.68667604587972,359.5257730409503L81.85548095963895,540.4698406532407L184.1094290278852,582.7305160649121Z" fill="#ffb679" stroke="#ffb679"></path><path d="M255.68667604587972,359.5257730409503L184.1094290278852,582.7305160649121L351.3377477321774,528.9483194891363Z" fill="#feb16f" stroke="#feb16f"></path><path d="M255.68667604587972,359.5257730409503L351.3377477321774,528.9483194891363L359.44004273973405,334.00292057543993Z" fill="#feba71" stroke="#feba71"></path><path d="M359.44004273973405,334.00292057543993L351.3377477321774,528.9483194891363L553.4643565211445,418.3123539760709Z" fill="#feb163" stroke="#feb163"></path><path d="M553.4643565211445,418.3123539760709L351.3377477321774,528.9483194891363L552.438838435337,563.8824242725968Z" fill="#fea156" stroke="#fea156"></path><path d="M553.4643565211445,418.3123539760709L552.438838435337,563.8824242725968L644.862005431205,499.69806840643287Z" fill="#fe9c4e" stroke="#fe9c4e"></path><path d="M553.4643565211445,418.3123539760709L644.862005431205,499.69806840643287L615.594295822084,384.47887622751296Z" fill="#fea451" stroke="#fea451"></path><path d="M615.594295822084,384.47887622751296L644.862005431205,499.69806840643287L848.2373372744769,427.3340022750199Z" fill="#fe9d47" stroke="#fe9d47"></path><path d="M848.2373372744769,427.3340022750199L644.862005431205,499.69806840643287L825.3085671085864,515.7629610411823Z" fill="#fe923d" stroke="#fe923d"></path><path d="M848.2373372744769,427.3340022750199L825.3085671085864,515.7629610411823L1031.8545329477638,476.82741310447454Z" fill="#fa8936" stroke="#fa8936"></path><path d="M848.2373372744769,427.3340022750199L1031.8545329477638,476.82741310447454L1005.9517594613135,401.4711238257587Z" fill="#f88b35" stroke="#f88b35"></path><path d="M1005.9517594613135,401.4711238257587L1031.8545329477638,476.82741310447454L1088.3743557706475,490.6750518735498Z" fill="#f6822e" stroke="#f6822e"></path><path d="M1005.9517594613135,401.4711238257587L1088.3743557706475,490.6750518735498L1111.6721080150455,332.05188900232315Z" fill="#f58733" stroke="#f58733"></path><path d="M1111.6721080150455,332.05188900232315L1088.3743557706475,490.6750518735498L1276.940244762227,412.6891468651593Z" fill="#f2802d" stroke="#f2802d"></path><path d="M1276.940244762227,412.6891468651593L1088.3743557706475,490.6750518735498L1301.6853837110102,568.1589101348072Z" fill="#ed7224" stroke="#ed7224"></path><path d="M1276.940244762227,412.6891468651593L1301.6853837110102,568.1589101348072L1434.5529215410352,508.6482712626457Z" fill="#e36c22" stroke="#e36c22"></path><path d="M1276.940244762227,412.6891468651593L1434.5529215410352,508.6482712626457L1446.0318045783788,350.731032975018Z" fill="#df7628" stroke="#df7628"></path><path d="M1446.0318045783788,350.731032975018L1434.5529215410352,508.6482712626457L1620.373902367428,415.5697762593627Z" fill="#d67126" stroke="#d67126"></path><path d="M1620.373902367428,415.5697762593627L1434.5529215410352,508.6482712626457L1573.2944870833308,553.5098739154637Z" fill="#d26420" stroke="#d26420"></path><path d="M1620.373902367428,415.5697762593627L1573.2944870833308,553.5098739154637L1775.7401772681624,574.752541501075Z" fill="#c95c1c" stroke="#c95c1c"></path><path d="M1620.373902367428,415.5697762593627L1775.7401772681624,574.752541501075L1708.9336174540222,321.5245428867638Z" fill="#c56723" stroke="#c56723"></path><path d="M1708.9336174540222,321.5245428867638L1775.7401772681624,574.752541501075L1881.1763453297317,433.56101824902Z" fill="#be6322" stroke="#be6322"></path><path d="M1881.1763453297317,433.56101824902L1775.7401772681624,574.752541501075L1896.624066894874,511.3057225383818Z" fill="#b8561d" stroke="#b8561d"></path><path d="M1881.1763453297317,433.56101824902L1896.624066894874,511.3057225383818L2008.9280641358346,476.0184227116406Z" fill="#b25820" stroke="#b25820"></path><path d="M1881.1763453297317,433.56101824902L2008.9280641358346,476.0184227116406L2084.7855906933546,359.91116219200194Z" fill="#ad5d24" stroke="#ad5d24"></path><path d="M2084.7855906933546,359.91116219200194L2008.9280641358346,476.0184227116406L1977.5057682115585,633.8244735449553Z" fill="#aa521e" stroke="#aa521e"></path><path d="M2084.7855906933546,359.91116219200194L1977.5057682115585,633.8244735449553L1995.1483112666756,856.3901679497212Z" fill="#aa3e14" stroke="#aa3e14"></path><path d="M2084.7855906933546,359.91116219200194L1995.1483112666756,856.3901679497212L2077.5552781205624,1106.45489548333Z" fill="#962d12" stroke="#962d12"></path><path d="M-16.08420018106699,556.4156746398658L-94.4081327598542,766.3089328631759L-40.77734216116369,704.2082087695599Z" fill="#faa987" stroke="#faa987"></path><path d="M-16.08420018106699,556.4156746398658L-40.77734216116369,704.2082087695599L43.583861170336604,692.7151292748749Z" fill="#fda981" stroke="#fda981"></path><path d="M-16.08420018106699,556.4156746398658L43.583861170336604,692.7151292748749L81.85548095963895,540.4698406532407Z" fill="#ffae80" stroke="#ffae80"></path><path d="M81.85548095963895,540.4698406532407L43.583861170336604,692.7151292748749L184.1094290278852,582.7305160649121Z" fill="#ffa878" stroke="#ffa878"></path><path d="M184.1094290278852,582.7305160649121L43.583861170336604,692.7151292748749L274.00284346193075,682.7412771899253Z" fill="#fd9e6d" stroke="#fd9e6d"></path><path d="M184.1094290278852,582.7305160649121L274.00284346193075,682.7412771899253L351.3377477321774,528.9483194891363Z" fill="#fe9f65" stroke="#fe9f65"></path><path d="M351.3377477321774,528.9483194891363L274.00284346193075,682.7412771899253L356.0033300612122,718.1919811014086Z" fill="#fe955b" stroke="#fe955b"></path><path d="M351.3377477321774,528.9483194891363L356.0033300612122,718.1919811014086L552.438838435337,563.8824242725968Z" fill="#fe9554" stroke="#fe9554"></path><path d="M552.438838435337,563.8824242725968L356.0033300612122,718.1919811014086L524.0768055338413,727.046084376052Z" fill="#fa894b" stroke="#fa894b"></path><path d="M552.438838435337,563.8824242725968L524.0768055338413,727.046084376052L726.1735078599304,621.0653768945485Z" fill="#fe8440" stroke="#fe8440"></path><path d="M552.438838435337,563.8824242725968L726.1735078599304,621.0653768945485L644.862005431205,499.69806840643287Z" fill="#fe8d42" stroke="#fe8d42"></path><path d="M644.862005431205,499.69806840643287L726.1735078599304,621.0653768945485L825.3085671085864,515.7629610411823Z" fill="#fe8a3b" stroke="#fe8a3b"></path><path d="M825.3085671085864,515.7629610411823L726.1735078599304,621.0653768945485L851.7502901796252,717.2105935402215Z" fill="#fd7a30" stroke="#fd7a30"></path><path d="M825.3085671085864,515.7629610411823L851.7502901796252,717.2105935402215L932.8816735278815,729.2891136277467Z" fill="#f9702a" stroke="#f9702a"></path><path d="M825.3085671085864,515.7629610411823L932.8816735278815,729.2891136277467L1031.8545329477638,476.82741310447454Z" fill="#f9772b" stroke="#f9772b"></path><path d="M1031.8545329477638,476.82741310447454L932.8816735278815,729.2891136277467L1111.7931669205427,688.0937205534428Z" fill="#f76720" stroke="#f76720"></path><path d="M1031.8545329477638,476.82741310447454L1111.7931669205427,688.0937205534428L1088.3743557706475,490.6750518735498Z" fill="#f57024" stroke="#f57024"></path><path d="M1088.3743557706475,490.6750518735498L1111.7931669205427,688.0937205534428L1238.911830643192,654.6637963782996Z" fill="#f3621b" stroke="#f3621b"></path><path d="M1088.3743557706475,490.6750518735498L1238.911830643192,654.6637963782996L1301.6853837110102,568.1589101348072Z" fill="#ee651d" stroke="#ee651d"></path><path d="M1301.6853837110102,568.1589101348072L1238.911830643192,654.6637963782996L1444.0847698319703,674.3213848304003Z" fill="#e45716" stroke="#e45716"></path><path d="M1301.6853837110102,568.1589101348072L1444.0847698319703,674.3213848304003L1434.5529215410352,508.6482712626457Z" fill="#df5c1a" stroke="#df5c1a"></path><path d="M1434.5529215410352,508.6482712626457L1444.0847698319703,674.3213848304003L1573.2944870833308,553.5098739154637Z" fill="#d75919" stroke="#d75919"></path><path d="M1573.2944870833308,553.5098739154637L1444.0847698319703,674.3213848304003L1543.8116854894906,666.7391011118889Z" fill="#d44f14" stroke="#d44f14"></path><path d="M1573.2944870833308,553.5098739154637L1543.8116854894906,666.7391011118889L1726.6461666394025,648.9440365880728Z" fill="#cc4d14" stroke="#cc4d14"></path><path d="M1573.2944870833308,553.5098739154637L1726.6461666394025,648.9440365880728L1775.7401772681624,574.752541501075Z" fill="#c64f16" stroke="#c64f16"></path><path d="M1775.7401772681624,574.752541501075L1726.6461666394025,648.9440365880728L1899.1192914359272,644.5986697822809Z" fill="#bd4613" stroke="#bd4613"></path><path d="M1775.7401772681624,574.752541501075L1899.1192914359272,644.5986697822809L1896.624066894874,511.3057225383818Z" fill="#b84b17" stroke="#b84b17"></path><path d="M1896.624066894874,511.3057225383818L1899.1192914359272,644.5986697822809L1977.5057682115585,633.8244735449553Z" fill="#b24515" stroke="#b24515"></path><path d="M1896.624066894874,511.3057225383818L1977.5057682115585,633.8244735449553L2008.9280641358346,476.0184227116406Z" fill="#af4c1a" stroke="#af4c1a"></path><path d="M-40.77734216116369,704.2082087695599L-94.4081327598542,766.3089328631759L35.94546868465841,821.2907396815717Z" fill="#eea085" stroke="#eea085"></path><path d="M-40.77734216116369,704.2082087695599L35.94546868465841,821.2907396815717L43.583861170336604,692.7151292748749Z" fill="#f1a07f" stroke="#f1a07f"></path><path d="M43.583861170336604,692.7151292748749L35.94546868465841,821.2907396815717L243.18477504886687,840.6565585825592Z" fill="#eb9674" stroke="#eb9674"></path><path d="M43.583861170336604,692.7151292748749L243.18477504886687,840.6565585825592L274.00284346193075,682.7412771899253Z" fill="#f1956b" stroke="#f1956b"></path><path d="M274.00284346193075,682.7412771899253L243.18477504886687,840.6565585825592L356.0033300612122,718.1919811014086Z" fill="#f08e5f" stroke="#f08e5f"></path><path d="M356.0033300612122,718.1919811014086L243.18477504886687,840.6565585825592L390.07151870056987,845.9895887598395Z" fill="#e8875b" stroke="#e8875b"></path><path d="M356.0033300612122,718.1919811014086L390.07151870056987,845.9895887598395L524.0768055338413,727.046084376052Z" fill="#ee8451" stroke="#ee8451"></path><path d="M524.0768055338413,727.046084376052L390.07151870056987,845.9895887598395L564.8698626458645,860.8492454420775Z" fill="#e77c4a" stroke="#e77c4a"></path><path d="M524.0768055338413,727.046084376052L564.8698626458645,860.8492454420775L680.4516729991883,858.758354941383Z" fill="#e77541" stroke="#e77541"></path><path d="M524.0768055338413,727.046084376052L680.4516729991883,858.758354941383L726.1735078599304,621.0653768945485Z" fill="#f1793c" stroke="#f1793c"></path><path d="M726.1735078599304,621.0653768945485L680.4516729991883,858.758354941383L770.8346287440509,831.0778761003166Z" fill="#ed7034" stroke="#ed7034"></path><path d="M726.1735078599304,621.0653768945485L770.8346287440509,831.0778761003166L851.7502901796252,717.2105935402215Z" fill="#f2712f" stroke="#f2712f"></path><path d="M851.7502901796252,717.2105935402215L770.8346287440509,831.0778761003166L932.8816735278815,729.2891136277467Z" fill="#ec692b" stroke="#ec692b"></path><path d="M932.8816735278815,729.2891136277467L770.8346287440509,831.0778761003166L948.5060540959239,934.7249673865736Z" fill="#e16029" stroke="#e16029"></path><path d="M932.8816735278815,729.2891136277467L948.5060540959239,934.7249673865736L1026.590310651809,826.8682902585715Z" fill="#df5a23" stroke="#df5a23"></path><path d="M932.8816735278815,729.2891136277467L1026.590310651809,826.8682902585715L1111.7931669205427,688.0937205534428Z" fill="#e85d20" stroke="#e85d20"></path><path d="M1111.7931669205427,688.0937205534428L1026.590310651809,826.8682902585715L1084.1535741928965,841.9508703332394Z" fill="#e2561d" stroke="#e2561d"></path><path d="M1111.7931669205427,688.0937205534428L1084.1535741928965,841.9508703332394L1289.0286246221513,854.7990571148694Z" fill="#dd4f18" stroke="#dd4f18"></path><path d="M1111.7931669205427,688.0937205534428L1289.0286246221513,854.7990571148694L1238.911830643192,654.6637963782996Z" fill="#e15317" stroke="#e15317"></path><path d="M1238.911830643192,654.6637963782996L1289.0286246221513,854.7990571148694L1395.1662377547473,831.3371815066785Z" fill="#d34a16" stroke="#d34a16"></path><path d="M1238.911830643192,654.6637963782996L1395.1662377547473,831.3371815066785L1444.0847698319703,674.3213848304003Z" fill="#d64e16" stroke="#d64e16"></path><path d="M1444.0847698319703,674.3213848304003L1395.1662377547473,831.3371815066785L1551.0742370132357,796.5422396175563Z" fill="#c84614" stroke="#c84614"></path><path d="M1444.0847698319703,674.3213848304003L1551.0742370132357,796.5422396175563L1543.8116854894906,666.7391011118889Z" fill="#cb4814" stroke="#cb4814"></path><path d="M1543.8116854894906,666.7391011118889L1551.0742370132357,796.5422396175563L1677.4200573004782,805.2590190712363Z" fill="#bf4213" stroke="#bf4213"></path><path d="M1543.8116854894906,666.7391011118889L1677.4200573004782,805.2590190712363L1726.6461666394025,648.9440365880728Z" fill="#c04312" stroke="#c04312"></path><path d="M1726.6461666394025,648.9440365880728L1677.4200573004782,805.2590190712363L1845.0107688456774,853.5195476096123Z" fill="#af3a12" stroke="#af3a12"></path><path d="M1726.6461666394025,648.9440365880728L1845.0107688456774,853.5195476096123L1899.1192914359272,644.5986697822809Z" fill="#b03c12" stroke="#b03c12"></path><path d="M1899.1192914359272,644.5986697822809L1845.0107688456774,853.5195476096123L1995.1483112666756,856.3901679497212Z" fill="#a03212" stroke="#a03212"></path><path d="M1899.1192914359272,644.5986697822809L1995.1483112666756,856.3901679497212L1977.5057682115585,633.8244735449553Z" fill="#a63612" stroke="#a63612"></path><path d="M-94.4081327598542,766.3089328631759L-79.64865485206246,1162.4469226319343L-81.31729206070304,973.9475125260651Z" fill="#d3928b" stroke="#d3928b"></path><path d="M-94.4081327598542,766.3089328631759L-81.31729206070304,973.9475125260651L35.94546868465841,821.2907396815717Z" fill="#e29a86" stroke="#e29a86"></path><path d="M35.94546868465841,821.2907396815717L-81.31729206070304,973.9475125260651L51.121307630091906,974.4136109948158Z" fill="#d99181" stroke="#d99181"></path><path d="M35.94546868465841,821.2907396815717L51.121307630091906,974.4136109948158L243.18477504886687,840.6565585825592Z" fill="#df8e74" stroke="#df8e74"></path><path d="M243.18477504886687,840.6565585825592L51.121307630091906,974.4136109948158L174.7762521263212,1008.4316517971456Z" fill="#d6866f" stroke="#d6866f"></path><path d="M243.18477504886687,840.6565585825592L174.7762521263212,1008.4316517971456L349.63411199860275,1021.9723381195217Z" fill="#d47e63" stroke="#d47e63"></path><path d="M243.18477504886687,840.6565585825592L349.63411199860275,1021.9723381195217L390.07151870056987,845.9895887598395Z" fill="#db7e5b" stroke="#db7e5b"></path><path d="M390.07151870056987,845.9895887598395L349.63411199860275,1021.9723381195217L494.8506228905171,991.2007535900921Z" fill="#d47452" stroke="#d47452"></path><path d="M390.07151870056987,845.9895887598395L494.8506228905171,991.2007535900921L564.8698626458645,860.8492454420775Z" fill="#db754b" stroke="#db754b"></path><path d="M564.8698626458645,860.8492454420775L494.8506228905171,991.2007535900921L653.8770691864192,934.8114910908043Z" fill="#d76d42" stroke="#d76d42"></path><path d="M564.8698626458645,860.8492454420775L653.8770691864192,934.8114910908043L680.4516729991883,858.758354941383Z" fill="#dd6c3d" stroke="#dd6c3d"></path><path d="M680.4516729991883,858.758354941383L653.8770691864192,934.8114910908043L770.8346287440509,831.0778761003166Z" fill="#df6936" stroke="#df6936"></path><path d="M770.8346287440509,831.0778761003166L653.8770691864192,934.8114910908043L847.2721359785646,1020.6648225523531Z" fill="#d76131" stroke="#d76131"></path><path d="M770.8346287440509,831.0778761003166L847.2721359785646,1020.6648225523531L948.5060540959239,934.7249673865736Z" fill="#d55a2a" stroke="#d55a2a"></path><path d="M1026.590310651809,826.8682902585715L948.5060540959239,934.7249673865736L1084.1535741928965,841.9508703332394Z" fill="#d85320" stroke="#d85320"></path><path d="M1084.1535741928965,841.9508703332394L948.5060540959239,934.7249673865736L1133.206953490153,943.1204025261104Z" fill="#d24d1e" stroke="#d24d1e"></path><path d="M1084.1535741928965,841.9508703332394L1133.206953490153,943.1204025261104L1289.0286246221513,854.7990571148694Z" fill="#d14818" stroke="#d14818"></path><path d="M1289.0286246221513,854.7990571148694L1133.206953490153,943.1204025261104L1221.7658179532737,953.3375301863998Z" fill="#c94317" stroke="#c94317"></path><path d="M1289.0286246221513,854.7990571148694L1221.7658179532737,953.3375301863998L1455.086362324655,1028.2559299841523Z" fill="#bc3c16" stroke="#bc3c16"></path><path d="M1289.0286246221513,854.7990571148694L1455.086362324655,1028.2559299841523L1395.1662377547473,831.3371815066785Z" fill="#bc3d15" stroke="#bc3d15"></path><path d="M1395.1662377547473,831.3371815066785L1455.086362324655,1028.2559299841523L1517.6694804802537,976.1424164101481Z" fill="#b03614" stroke="#b03614"></path><path d="M1395.1662377547473,831.3371815066785L1517.6694804802537,976.1424164101481L1551.0742370132357,796.5422396175563Z" fill="#b83c14" stroke="#b83c14"></path><path d="M1551.0742370132357,796.5422396175563L1517.6694804802537,976.1424164101481L1677.4200573004782,805.2590190712363Z" fill="#b13913" stroke="#b13913"></path><path d="M1677.4200573004782,805.2590190712363L1517.6694804802537,976.1424164101481L1690.6155028380454,988.0733350105584Z" fill="#a53212" stroke="#a53212"></path><path d="M1677.4200573004782,805.2590190712363L1690.6155028380454,988.0733350105584L1845.0107688456774,853.5195476096123Z" fill="#a13112" stroke="#a13112"></path><path d="M1845.0107688456774,853.5195476096123L1690.6155028380454,988.0733350105584L1824.9608799722046,998.1279709842056Z" fill="#952912" stroke="#952912"></path><path d="M1845.0107688456774,853.5195476096123L1824.9608799722046,998.1279709842056L1973.2081182673573,1020.7994808442891Z" fill="#8b2412" stroke="#8b2412"></path><path d="M1845.0107688456774,853.5195476096123L1973.2081182673573,1020.7994808442891L1995.1483112666756,856.3901679497212Z" fill="#8d2612" stroke="#8d2612"></path><path d="M1995.1483112666756,856.3901679497212L1973.2081182673573,1020.7994808442891L2077.5552781205624,1106.45489548333Z" fill="#7b1b12" stroke="#7b1b12"></path><path d="M-81.31729206070304,973.9475125260651L-79.64865485206246,1162.4469226319343L51.121307630091906,974.4136109948158Z" fill="#ca8985" stroke="#ca8985"></path><path d="M51.121307630091906,974.4136109948158L-79.64865485206246,1162.4469226319343L117.62675167992711,1121.0263009183109Z" fill="#c3807d" stroke="#c3807d"></path><path d="M51.121307630091906,974.4136109948158L117.62675167992711,1121.0263009183109L174.7762521263212,1008.4316517971456Z" fill="#ca8073" stroke="#ca8073"></path><path d="M174.7762521263212,1008.4316517971456L117.62675167992711,1121.0263009183109L214.42442667670548,1082.2324755694717Z" fill="#c5796d" stroke="#c5796d"></path><path d="M174.7762521263212,1008.4316517971456L214.42442667670548,1082.2324755694717L349.63411199860275,1021.9723381195217Z" fill="#c97864" stroke="#c97864"></path><path d="M349.63411199860275,1021.9723381195217L214.42442667670548,1082.2324755694717L330.1338060759008,1127.3020568490028Z" fill="#c4715e" stroke="#c4715e"></path><path d="M349.63411199860275,1021.9723381195217L330.1338060759008,1127.3020568490028L467.0090163499117,1066.7443786002696Z" fill="#c46c54" stroke="#c46c54"></path><path d="M349.63411199860275,1021.9723381195217L467.0090163499117,1066.7443786002696L494.8506228905171,991.2007535900921Z" fill="#ca6d4f" stroke="#ca6d4f"></path><path d="M494.8506228905171,991.2007535900921L467.0090163499117,1066.7443786002696L668.3983686659485,1072.8288838639855Z" fill="#c86545" stroke="#c86545"></path><path d="M494.8506228905171,991.2007535900921L668.3983686659485,1072.8288838639855L653.8770691864192,934.8114910908043Z" fill="#ce643f" stroke="#ce643f"></path><path d="M653.8770691864192,934.8114910908043L668.3983686659485,1072.8288838639855L847.2721359785646,1020.6648225523531Z" fill="#cd5c34" stroke="#cd5c34"></path><path d="M847.2721359785646,1020.6648225523531L668.3983686659485,1072.8288838639855L776.525795571506,1177.2634604293853Z" fill="#c25330" stroke="#c25330"></path><path d="M847.2721359785646,1020.6648225523531L776.525795571506,1177.2634604293853L1001.0607838444412,1182.8296053316444Z" fill="#ba4729" stroke="#ba4729"></path><path d="M847.2721359785646,1020.6648225523531L1001.0607838444412,1182.8296053316444L948.5060540959239,934.7249673865736Z" fill="#c34a26" stroke="#c34a26"></path><path d="M948.5060540959239,934.7249673865736L1001.0607838444412,1182.8296053316444L1126.7835836671293,1106.7852679174393Z" fill="#bc4020" stroke="#bc4020"></path><path d="M948.5060540959239,934.7249673865736L1126.7835836671293,1106.7852679174393L1133.206953490153,943.1204025261104Z" fill="#c6441d" stroke="#c6441d"></path><path d="M1133.206953490153,943.1204025261104L1126.7835836671293,1106.7852679174393L1221.7658179532737,953.3375301863998Z" fill="#c23d18" stroke="#c23d18"></path><path d="M1221.7658179532737,953.3375301863998L1126.7835836671293,1106.7852679174393L1323.4643700812012,1125.8170353993773Z" fill="#b43617" stroke="#b43617"></path><path d="M1221.7658179532737,953.3375301863998L1323.4643700812012,1125.8170353993773L1455.086362324655,1028.2559299841523Z" fill="#af3316" stroke="#af3316"></path><path d="M1455.086362324655,1028.2559299841523L1323.4643700812012,1125.8170353993773L1377.894895831123,1139.2661364376545Z" fill="#a22c15" stroke="#a22c15"></path><path d="M1455.086362324655,1028.2559299841523L1377.894895831123,1139.2661364376545L1464.904505610466,1218.0469991080463Z" fill="#9a2715" stroke="#9a2715"></path><path d="M1455.086362324655,1028.2559299841523L1464.904505610466,1218.0469991080463L1616.5915199182928,1170.3046200145036Z" fill="#922314" stroke="#922314"></path><path d="M1455.086362324655,1028.2559299841523L1616.5915199182928,1170.3046200145036L1517.6694804802537,976.1424164101481Z" fill="#9b2a13" stroke="#9b2a13"></path><path d="M1517.6694804802537,976.1424164101481L1616.5915199182928,1170.3046200145036L1690.6155028380454,988.0733350105584Z" fill="#962812" stroke="#962812"></path><path d="M1690.6155028380454,988.0733350105584L1616.5915199182928,1170.3046200145036L1712.4963837023824,1143.790547568351Z" fill="#892012" stroke="#892012"></path><path d="M1690.6155028380454,988.0733350105584L1712.4963837023824,1143.790547568351L1824.9608799722046,998.1279709842056Z" fill="#8c2212" stroke="#8c2212"></path><path d="M1824.9608799722046,998.1279709842056L1712.4963837023824,1143.790547568351L1923.0885075218976,1083.6105318088084Z" fill="#811c12" stroke="#811c12"></path><path d="M1824.9608799722046,998.1279709842056L1923.0885075218976,1083.6105318088084L1973.2081182673573,1020.7994808442891Z" fill="#7f1c12" stroke="#7f1c12"></path><path d="M1973.2081182673573,1020.7994808442891L1923.0885075218976,1083.6105318088084L2077.5552781205624,1106.45489548333Z" fill="#731612" stroke="#731612"></path><path d="M-79.64865485206246,1162.4469226319343L-68.43279266729951,1270.0388857070357L20.044320356100798,1216.0536860860884Z" fill="#b27a86" stroke="#b27a86"></path><path d="M-79.64865485206246,1162.4469226319343L20.044320356100798,1216.0536860860884L117.62675167992711,1121.0263009183109Z" fill="#b87a7f" stroke="#b87a7f"></path><path d="M117.62675167992711,1121.0263009183109L20.044320356100798,1216.0536860860884L205.25379918515682,1261.4641407318413Z" fill="#b47274" stroke="#b47274"></path><path d="M117.62675167992711,1121.0263009183109L205.25379918515682,1261.4641407318413L214.42442667670548,1082.2324755694717Z" fill="#ba716c" stroke="#ba716c"></path><path d="M214.42442667670548,1082.2324755694717L205.25379918515682,1261.4641407318413L330.1338060759008,1127.3020568490028Z" fill="#b96d64" stroke="#b96d64"></path><path d="M330.1338060759008,1127.3020568490028L205.25379918515682,1261.4641407318413L344.85460004769266,1221.2472750619054Z" fill="#b3665f" stroke="#b3665f"></path><path d="M330.1338060759008,1127.3020568490028L344.85460004769266,1221.2472750619054L481.5048069320619,1221.4677437581122Z" fill="#b56254" stroke="#b56254"></path><path d="M330.1338060759008,1127.3020568490028L481.5048069320619,1221.4677437581122L467.0090163499117,1066.7443786002696Z" fill="#bb6450" stroke="#bb6450"></path><path d="M467.0090163499117,1066.7443786002696L481.5048069320619,1221.4677437581122L668.3983686659485,1072.8288838639855Z" fill="#be5e46" stroke="#be5e46"></path><path d="M668.3983686659485,1072.8288838639855L481.5048069320619,1221.4677437581122L716.3042698614299,1328.3602610137314Z" fill="#b2513e" stroke="#b2513e"></path><path d="M668.3983686659485,1072.8288838639855L716.3042698614299,1328.3602610137314L776.525795571506,1177.2634604293853Z" fill="#b44c34" stroke="#b44c34"></path><path d="M776.525795571506,1177.2634604293853L716.3042698614299,1328.3602610137314L877.9522344097495,1309.9871355760843Z" fill="#a9452e" stroke="#a9452e"></path><path d="M776.525795571506,1177.2634604293853L877.9522344097495,1309.9871355760843L944.975817175582,1283.060411112383Z" fill="#a9402a" stroke="#a9402a"></path><path d="M776.525795571506,1177.2634604293853L944.975817175582,1283.060411112383L1001.0607838444412,1182.8296053316444Z" fill="#ad3d27" stroke="#ad3d27"></path><path d="M1001.0607838444412,1182.8296053316444L944.975817175582,1283.060411112383L1179.2698968015611,1267.736426834017Z" fill="#a5331f" stroke="#a5331f"></path><path d="M1001.0607838444412,1182.8296053316444L1179.2698968015611,1267.736426834017L1126.7835836671293,1106.7852679174393Z" fill="#ab311b" stroke="#ab311b"></path><path d="M1126.7835836671293,1106.7852679174393L1179.2698968015611,1267.736426834017L1323.4643700812012,1125.8170353993773Z" fill="#a72d17" stroke="#a72d17"></path><path d="M1323.4643700812012,1125.8170353993773L1179.2698968015611,1267.736426834017L1295.555188525468,1265.433057518676Z" fill="#9c2617" stroke="#9c2617"></path><path d="M1323.4643700812012,1125.8170353993773L1295.555188525468,1265.433057518676L1377.894895831123,1139.2661364376545Z" fill="#9c2716" stroke="#9c2716"></path><path d="M1377.894895831123,1139.2661364376545L1295.555188525468,1265.433057518676L1464.904505610466,1218.0469991080463Z" fill="#942315" stroke="#942315"></path><path d="M1616.5915199182928,1170.3046200145036L1464.904505610466,1218.0469991080463L1538.4042549412698,1293.56908461079Z" fill="#841b13" stroke="#841b13"></path><path d="M1616.5915199182928,1170.3046200145036L1538.4042549412698,1293.56908461079L1677.8470255527645,1264.2849085852504Z" fill="#7c1812" stroke="#7c1812"></path><path d="M1616.5915199182928,1170.3046200145036L1677.8470255527645,1264.2849085852504L1712.4963837023824,1143.790547568351Z" fill="#7e1812" stroke="#7e1812"></path><path d="M1712.4963837023824,1143.790547568351L1677.8470255527645,1264.2849085852504L1917.3196187708527,1309.9666999932379Z" fill="#6f1212" stroke="#6f1212"></path><path d="M1712.4963837023824,1143.790547568351L1917.3196187708527,1309.9666999932379L1923.0885075218976,1083.6105318088084Z" fill="#701212" stroke="#701212"></path><path d="M1923.0885075218976,1083.6105318088084L1917.3196187708527,1309.9666999932379L1983.9639478269964,1301.4579761121422Z" fill="#610b12" stroke="#610b12"></path><path d="M1923.0885075218976,1083.6105318088084L1983.9639478269964,1301.4579761121422L2077.5552781205624,1106.45489548333Z" fill="#670e12" stroke="#670e12"></path><path d="M-68.43279266729951,1270.0388857070357L716.3042698614299,1328.3602610137314L205.25379918515682,1261.4641407318413Z" fill="#a86560" stroke="#a86560"></path><path d="M-68.43279266729951,1270.0388857070357L205.25379918515682,1261.4641407318413L20.044320356100798,1216.0536860860884Z" fill="#ad747b" stroke="#ad747b"></path><path d="M205.25379918515682,1261.4641407318413L716.3042698614299,1328.3602610137314L344.85460004769266,1221.2472750619054Z" fill="#aa5d51" stroke="#aa5d51"></path><path d="M344.85460004769266,1221.2472750619054L716.3042698614299,1328.3602610137314L481.5048069320619,1221.4677437581122Z" fill="#ac5748" stroke="#ac5748"></path><path d="M716.3042698614299,1328.3602610137314L1917.3196187708527,1309.9666999932379L1538.4042549412698,1293.56908461079Z" fill="#852115" stroke="#852115"></path><path d="M716.3042698614299,1328.3602610137314L1538.4042549412698,1293.56908461079L877.9522344097495,1309.9871355760843Z" fill="#9c331f" stroke="#9c331f"></path><path d="M877.9522344097495,1309.9871355760843L1538.4042549412698,1293.56908461079L1179.2698968015611,1267.736426834017Z" fill="#982918" stroke="#982918"></path><path d="M877.9522344097495,1309.9871355760843L1179.2698968015611,1267.736426834017L944.975817175582,1283.060411112383Z" fill="#a13622" stroke="#a13622"></path><path d="M1179.2698968015611,1267.736426834017L1538.4042549412698,1293.56908461079L1295.555188525468,1265.433057518676Z" fill="#8e2316" stroke="#8e2316"></path><path d="M1295.555188525468,1265.433057518676L1538.4042549412698,1293.56908461079L1464.904505610466,1218.0469991080463Z" fill="#881f15" stroke="#881f15"></path><path d="M1538.4042549412698,1293.56908461079L1917.3196187708527,1309.9666999932379L1677.8470255527645,1264.2849085852504Z" fill="#6d1412" stroke="#6d1412"></path></g><filter id="noise"><feTurbulence type="fractalNoise" in="fillPaint" fill="#F00" baseFrequency="0.7" numOctaves="10" stitchTiles="stitch"></feTurbulence><feComponentTransfer><feFuncR type="linear" slope="2" intercept="-.5"></feFuncR><feFuncG type="linear" slope="2" intercept="-.5"></feFuncG><feFuncB type="linear" slope="2" intercept="-.5"></feFuncB></feComponentTransfer><feColorMatrix type="matrix" values="0.3333 0.3333 0.3333 0 0 
 0.3333 0.3333 0.3333 0 0 
 0.3333 0.3333 0.3333 0 0 
 0 0 0 1 0"></feColorMatrix></filter><rect opacity="5.551115123125783e-17" width="100%" height="100%" filter="url(#noise)"></rect></svg>