<svg width="1920" height="1065" xmlns="http://www.w3.org/2000/svg"><g><path d="M-36.81978891603649,-102.6556455809623L-97.03348383307457,209.65941832400858L-64.5399253629148,51.1003425065428Z" fill="#fff6ad" stroke="#fff6ad"></path><path d="M-36.81978891603649,-102.6556455809623L-64.5399253629148,51.1003425065428L59.718926567584276,-73.64559394307435Z" fill="#fff7b7" stroke="#fff7b7"></path><path d="M-36.81978891603649,-102.6556455809623L59.718926567584276,-73.64559394307435L409.2573694512248,-102.48409386724234Z" fill="#fff0b3" stroke="#fff0b3"></path><path d="M-36.81978891603649,-102.6556455809623L409.2573694512248,-102.48409386724234L533.7596243061125,-112.1946119517088Z" fill="#ffe8ab" stroke="#ffe8ab"></path><path d="M-36.81978891603649,-102.6556455809623L533.7596243061125,-112.1946119517088L1020.5385245941579,-122.33574103564024Z" fill="#ffdf9f" stroke="#ffdf9f"></path><path d="M59.718926567584276,-73.64559394307435L-64.5399253629148,51.1003425065428L36.115839974954724,72.66541206277907Z" fill="#fff5ad" stroke="#fff5ad"></path><path d="M59.718926567584276,-73.64559394307435L36.115839974954724,72.66541206277907L170.83760920912027,17.932643881067634Z" fill="#fff2a9" stroke="#fff2a9"></path><path d="M59.718926567584276,-73.64559394307435L170.83760920912027,17.932643881067634L243.5685488115996,-25.02994503825903Z" fill="#ffefa9" stroke="#ffefa9"></path><path d="M59.718926567584276,-73.64559394307435L243.5685488115996,-25.02994503825903L409.2573694512248,-102.48409386724234Z" fill="#ffebaa" stroke="#ffebaa"></path><path d="M243.5685488115996,-25.02994503825903L170.83760920912027,17.932643881067634L364.2671025451273,19.966529896482825Z" fill="#ffea9e" stroke="#ffea9e"></path><path d="M243.5685488115996,-25.02994503825903L364.2671025451273,19.966529896482825L409.2573694512248,-102.48409386724234Z" fill="#ffe79f" stroke="#ffe79f"></path><path d="M409.2573694512248,-102.48409386724234L364.2671025451273,19.966529896482825L499.1724837105721,65.67386534996331Z" fill="#ffe395" stroke="#ffe395"></path><path d="M409.2573694512248,-102.48409386724234L499.1724837105721,65.67386534996331L533.7596243061125,-112.1946119517088Z" fill="#ffe097" stroke="#ffe097"></path><path d="M533.7596243061125,-112.1946119517088L499.1724837105721,65.67386534996331L690.8426381740719,-22.56432051770389Z" fill="#ffdc8e" stroke="#ffdc8e"></path><path d="M533.7596243061125,-112.1946119517088L690.8426381740719,-22.56432051770389L774.1271676309407,-24.68047896400094Z" fill="#fed68c" stroke="#fed68c"></path><path d="M533.7596243061125,-112.1946119517088L774.1271676309407,-24.68047896400094L1020.5385245941579,-122.33574103564024Z" fill="#fdcc8e" stroke="#fdcc8e"></path><path d="M690.8426381740719,-22.56432051770389L499.1724837105721,65.67386534996331L645.0842015817761,124.77830755524337Z" fill="#ffd780" stroke="#ffd780"></path><path d="M690.8426381740719,-22.56432051770389L645.0842015817761,124.77830755524337L812.5586915574968,32.638674695044756Z" fill="#fecf7d" stroke="#fecf7d"></path><path d="M690.8426381740719,-22.56432051770389L812.5586915574968,32.638674695044756L774.1271676309407,-24.68047896400094Z" fill="#fdce82" stroke="#fdce82"></path><path d="M774.1271676309407,-24.68047896400094L812.5586915574968,32.638674695044756L1020.5385245941579,-122.33574103564024Z" fill="#fcc383" stroke="#fcc383"></path><path d="M1020.5385245941579,-122.33574103564024L812.5586915574968,32.638674695044756L917.4824613332748,116.67718718759716Z" fill="#fcbf7b" stroke="#fcbf7b"></path><path d="M1020.5385245941579,-122.33574103564024L917.4824613332748,116.67718718759716L1162.8554267808795,31.86769997701049Z" fill="#fab477" stroke="#fab477"></path><path d="M1020.5385245941579,-122.33574103564024L1162.8554267808795,31.86769997701049L1135.9187182132155,-116.27220030874014Z" fill="#faad80" stroke="#faad80"></path><path d="M1020.5385245941579,-122.33574103564024L1135.9187182132155,-116.27220030874014L1756.2246551457793,-118.77573184669018Z" fill="#f79b80" stroke="#f79b80"></path><path d="M1135.9187182132155,-116.27220030874014L1162.8554267808795,31.86769997701049L1298.5597015544772,-28.056756779551506Z" fill="#f9a578" stroke="#f9a578"></path><path d="M1135.9187182132155,-116.27220030874014L1298.5597015544772,-28.056756779551506L1473.1498823314905,-50.939017329365015Z" fill="#f89b78" stroke="#f89b78"></path><path d="M1135.9187182132155,-116.27220030874014L1473.1498823314905,-50.939017329365015L1574.6049673855305,-78.67577922530472Z" fill="#f69377" stroke="#f69377"></path><path d="M1135.9187182132155,-116.27220030874014L1574.6049673855305,-78.67577922530472L1756.2246551457793,-118.77573184669018Z" fill="#f58a78" stroke="#f58a78"></path><path d="M1298.5597015544772,-28.056756779551506L1162.8554267808795,31.86769997701049L1305.3251491114497,31.921889819204807Z" fill="#f89f6f" stroke="#f89f6f"></path><path d="M1298.5597015544772,-28.056756779551506L1305.3251491114497,31.921889819204807L1473.1498823314905,-50.939017329365015Z" fill="#f7966f" stroke="#f7966f"></path><path d="M1473.1498823314905,-50.939017329365015L1305.3251491114497,31.921889819204807L1463.5325757041574,114.55648351460695Z" fill="#f68f67" stroke="#f68f67"></path><path d="M1473.1498823314905,-50.939017329365015L1463.5325757041574,114.55648351460695L1534.2741611972451,30.74398336932063Z" fill="#f58864" stroke="#f58864"></path><path d="M1473.1498823314905,-50.939017329365015L1534.2741611972451,30.74398336932063L1574.6049673855305,-78.67577922530472Z" fill="#f5866c" stroke="#f5866c"></path><path d="M1574.6049673855305,-78.67577922530472L1534.2741611972451,30.74398336932063L1709.673623777926,75.25306843221188Z" fill="#f47f63" stroke="#f47f63"></path><path d="M1574.6049673855305,-78.67577922530472L1709.673623777926,75.25306843221188L1756.2246551457793,-118.77573184669018Z" fill="#f38068" stroke="#f38068"></path><path d="M1756.2246551457793,-118.77573184669018L1709.673623777926,75.25306843221188L1824.7794472239912,22.12621685117483Z" fill="#f28061" stroke="#f28061"></path><path d="M1756.2246551457793,-118.77573184669018L1824.7794472239912,22.12621685117483L1885.9559296164662,-46.10346389003098Z" fill="#f28067" stroke="#f28067"></path><path d="M1756.2246551457793,-118.77573184669018L1885.9559296164662,-46.10346389003098L2059.0901255607605,-66.57465065829456Z" fill="#f1806b" stroke="#f1806b"></path><path d="M1885.9559296164662,-46.10346389003098L1824.7794472239912,22.12621685117483L2076.160632390529,117.59796112775803Z" fill="#f17e5b" stroke="#f17e5b"></path><path d="M1885.9559296164662,-46.10346389003098L2076.160632390529,117.59796112775803L2059.0901255607605,-66.57465065829456Z" fill="#f08060" stroke="#f08060"></path><path d="M-64.5399253629148,51.1003425065428L-97.03348383307457,209.65941832400858L53.77864723093808,169.23751230351627Z" fill="#ffef9e" stroke="#ffef9e"></path><path d="M-64.5399253629148,51.1003425065428L53.77864723093808,169.23751230351627L36.115839974954724,72.66541206277907Z" fill="#fff0a1" stroke="#fff0a1"></path><path d="M36.115839974954724,72.66541206277907L53.77864723093808,169.23751230351627L170.83760920912027,17.932643881067634Z" fill="#ffed9e" stroke="#ffed9e"></path><path d="M170.83760920912027,17.932643881067634L53.77864723093808,169.23751230351627L199.62001458741724,252.8914364799857Z" fill="#ffe791" stroke="#ffe791"></path><path d="M170.83760920912027,17.932643881067634L199.62001458741724,252.8914364799857L390.0436975993216,194.06052268110216Z" fill="#ffe189" stroke="#ffe189"></path><path d="M170.83760920912027,17.932643881067634L390.0436975993216,194.06052268110216L364.2671025451273,19.966529896482825Z" fill="#ffe491" stroke="#ffe491"></path><path d="M364.2671025451273,19.966529896482825L390.0436975993216,194.06052268110216L478.0689933523536,169.00291230529547Z" fill="#ffdc83" stroke="#ffdc83"></path><path d="M364.2671025451273,19.966529896482825L478.0689933523536,169.00291230529547L499.1724837105721,65.67386534996331Z" fill="#ffdd86" stroke="#ffdd86"></path><path d="M499.1724837105721,65.67386534996331L478.0689933523536,169.00291230529547L645.0842015817761,124.77830755524337Z" fill="#ffd67b" stroke="#ffd67b"></path><path d="M645.0842015817761,124.77830755524337L478.0689933523536,169.00291230529547L679.7176870610565,256.14611056633294Z" fill="#ffd06e" stroke="#ffd06e"></path><path d="M645.0842015817761,124.77830755524337L679.7176870610565,256.14611056633294L784.8326587770134,183.35210552439094Z" fill="#fec769" stroke="#fec769"></path><path d="M645.0842015817761,124.77830755524337L784.8326587770134,183.35210552439094L812.5586915574968,32.638674695044756Z" fill="#fec872" stroke="#fec872"></path><path d="M812.5586915574968,32.638674695044756L784.8326587770134,183.35210552439094L917.4824613332748,116.67718718759716Z" fill="#fdc06f" stroke="#fdc06f"></path><path d="M917.4824613332748,116.67718718759716L784.8326587770134,183.35210552439094L965.2485716063529,228.2170177437365Z" fill="#fcb764" stroke="#fcb764"></path><path d="M917.4824613332748,116.67718718759716L965.2485716063529,228.2170177437365L1092.7730298321694,173.19159762002528Z" fill="#fbae61" stroke="#fbae61"></path><path d="M917.4824613332748,116.67718718759716L1092.7730298321694,173.19159762002528L1162.8554267808795,31.86769997701049Z" fill="#faab68" stroke="#faab68"></path><path d="M1162.8554267808795,31.86769997701049L1092.7730298321694,173.19159762002528L1244.235717644915,251.47925270721316Z" fill="#f99f5e" stroke="#f99f5e"></path><path d="M1162.8554267808795,31.86769997701049L1244.235717644915,251.47925270721316L1305.3251491114497,31.921889819204807Z" fill="#f89b62" stroke="#f89b62"></path><path d="M1305.3251491114497,31.921889819204807L1244.235717644915,251.47925270721316L1441.7582348641008,224.62032495997846Z" fill="#f78e56" stroke="#f78e56"></path><path d="M1305.3251491114497,31.921889819204807L1441.7582348641008,224.62032495997846L1463.5325757041574,114.55648351460695Z" fill="#f68a5a" stroke="#f68a5a"></path><path d="M1463.5325757041574,114.55648351460695L1441.7582348641008,224.62032495997846L1596.9595772400498,200.29927753843367Z" fill="#f57e4f" stroke="#f57e4f"></path><path d="M1463.5325757041574,114.55648351460695L1596.9595772400498,200.29927753843367L1534.2741611972451,30.74398336932063Z" fill="#f57f57" stroke="#f57f57"></path><path d="M1534.2741611972451,30.74398336932063L1596.9595772400498,200.29927753843367L1709.673623777926,75.25306843221188Z" fill="#f47a56" stroke="#f47a56"></path><path d="M1709.673623777926,75.25306843221188L1596.9595772400498,200.29927753843367L1707.8007974289358,202.28964110836387Z" fill="#f3764c" stroke="#f3764c"></path><path d="M1709.673623777926,75.25306843221188L1707.8007974289358,202.28964110836387L1856.6653494816273,218.35039417259395Z" fill="#f37648" stroke="#f37648"></path><path d="M1709.673623777926,75.25306843221188L1856.6653494816273,218.35039417259395L1824.7794472239912,22.12621685117483Z" fill="#f27951" stroke="#f27951"></path><path d="M1824.7794472239912,22.12621685117483L1856.6653494816273,218.35039417259395L2076.160632390529,117.59796112775803Z" fill="#f1794f" stroke="#f1794f"></path><path d="M2076.160632390529,117.59796112775803L1856.6653494816273,218.35039417259395L2074.029304739088,214.3722248543054Z" fill="#f07546" stroke="#f07546"></path><path d="M-97.03348383307457,209.65941832400858L-113.29632053151727,316.661465568468L53.77864723093808,169.23751230351627Z" fill="#ffeb92" stroke="#ffeb92"></path><path d="M53.77864723093808,169.23751230351627L-113.29632053151727,316.661465568468L128.240116070956,385.341899972409Z" fill="#ffe485" stroke="#ffe485"></path><path d="M53.77864723093808,169.23751230351627L128.240116070956,385.341899972409L199.62001458741724,252.8914364799857Z" fill="#ffe081" stroke="#ffe081"></path><path d="M199.62001458741724,252.8914364799857L128.240116070956,385.341899972409L232.2283648699522,336.7435672413558Z" fill="#ffda75" stroke="#ffda75"></path><path d="M199.62001458741724,252.8914364799857L232.2283648699522,336.7435672413558L390.0436975993216,194.06052268110216Z" fill="#ffda79" stroke="#ffda79"></path><path d="M390.0436975993216,194.06052268110216L232.2283648699522,336.7435672413558L424.27651905454695,432.5059138890356Z" fill="#ffd36b" stroke="#ffd36b"></path><path d="M390.0436975993216,194.06052268110216L424.27651905454695,432.5059138890356L491.03896834887564,332.78648835606873Z" fill="#ffcf66" stroke="#ffcf66"></path><path d="M390.0436975993216,194.06052268110216L491.03896834887564,332.78648835606873L478.0689933523536,169.00291230529547Z" fill="#ffd371" stroke="#ffd371"></path><path d="M478.0689933523536,169.00291230529547L491.03896834887564,332.78648835606873L648.1901514809579,315.29673526994884Z" fill="#ffcd66" stroke="#ffcd66"></path><path d="M478.0689933523536,169.00291230529547L648.1901514809579,315.29673526994884L679.7176870610565,256.14611056633294Z" fill="#ffcc65" stroke="#ffcc65"></path><path d="M679.7176870610565,256.14611056633294L648.1901514809579,315.29673526994884L794.5901912078261,410.29761984944344Z" fill="#febe55" stroke="#febe55"></path><path d="M679.7176870610565,256.14611056633294L794.5901912078261,410.29761984944344L784.8326587770134,183.35210552439094Z" fill="#febd59" stroke="#febd59"></path><path d="M784.8326587770134,183.35210552439094L794.5901912078261,410.29761984944344L965.2485716063529,228.2170177437365Z" fill="#fcb558" stroke="#fcb558"></path><path d="M965.2485716063529,228.2170177437365L794.5901912078261,410.29761984944344L969.7390497196466,360.8003929350525Z" fill="#fcac4d" stroke="#fcac4d"></path><path d="M965.2485716063529,228.2170177437365L969.7390497196466,360.8003929350525L1092.7730298321694,173.19159762002528Z" fill="#fba755" stroke="#fba755"></path><path d="M1092.7730298321694,173.19159762002528L969.7390497196466,360.8003929350525L1106.7853680811822,419.00819211266935Z" fill="#fa9f4a" stroke="#fa9f4a"></path><path d="M1092.7730298321694,173.19159762002528L1106.7853680811822,419.00819211266935L1244.235717644915,251.47925270721316Z" fill="#f9994c" stroke="#f9994c"></path><path d="M1244.235717644915,251.47925270721316L1106.7853680811822,419.00819211266935L1316.947259567678,319.6162624564022Z" fill="#f88f43" stroke="#f88f43"></path><path d="M1244.235717644915,251.47925270721316L1316.947259567678,319.6162624564022L1441.7582348641008,224.62032495997846Z" fill="#f78848" stroke="#f78848"></path><path d="M1441.7582348641008,224.62032495997846L1316.947259567678,319.6162624564022L1383.217558991164,318.50899890996516Z" fill="#f78243" stroke="#f78243"></path><path d="M1441.7582348641008,224.62032495997846L1383.217558991164,318.50899890996516L1547.2601494565606,354.21565339900553Z" fill="#f67b3f" stroke="#f67b3f"></path><path d="M1441.7582348641008,224.62032495997846L1547.2601494565606,354.21565339900553L1596.9595772400498,200.29927753843367Z" fill="#f57742" stroke="#f57742"></path><path d="M1596.9595772400498,200.29927753843367L1547.2601494565606,354.21565339900553L1708.9907399844378,381.64234578609467Z" fill="#f46d38" stroke="#f46d38"></path><path d="M1596.9595772400498,200.29927753843367L1708.9907399844378,381.64234578609467L1707.8007974289358,202.28964110836387Z" fill="#f3703d" stroke="#f3703d"></path><path d="M1707.8007974289358,202.28964110836387L1708.9907399844378,381.64234578609467L1856.6653494816273,218.35039417259395Z" fill="#f3703a" stroke="#f3703a"></path><path d="M1856.6653494816273,218.35039417259395L1708.9907399844378,381.64234578609467L1922.5582276191562,380.61064305715263Z" fill="#f26c31" stroke="#f26c31"></path><path d="M1856.6653494816273,218.35039417259395L1922.5582276191562,380.61064305715263L2074.029304739088,214.3722248543054Z" fill="#f06f39" stroke="#f06f39"></path><path d="M2074.029304739088,214.3722248543054L1922.5582276191562,380.61064305715263L1972.9437619820237,397.84044231288135Z" fill="#f06c31" stroke="#f06c31"></path><path d="M2074.029304739088,214.3722248543054L1972.9437619820237,397.84044231288135L2012.523967931047,566.143109081313Z" fill="#f0632a" stroke="#f0632a"></path><path d="M2074.029304739088,214.3722248543054L2012.523967931047,566.143109081313L2034.3695342168212,948.2266590837389Z" fill="#ef3e1d" stroke="#ef3e1d"></path><path d="M2074.029304739088,214.3722248543054L2034.3695342168212,948.2266590837389L2040.3055364917964,1223.4536734968424Z" fill="#ef120d" stroke="#ef120d"></path><path d="M-113.29632053151727,316.661465568468L-127.40807550027966,932.0933924429119L-100.39565602317452,513.6770303919911Z" fill="#ffb774" stroke="#ffb774"></path><path d="M-113.29632053151727,316.661465568468L-100.39565602317452,513.6770303919911L128.240116070956,385.341899972409Z" fill="#ffd87c" stroke="#ffd87c"></path><path d="M128.240116070956,385.341899972409L-100.39565602317452,513.6770303919911L55.044637229293585,550.4331413190812Z" fill="#ffc672" stroke="#ffc672"></path><path d="M128.240116070956,385.341899972409L55.044637229293585,550.4331413190812L186.30252591334283,469.2258149664849Z" fill="#ffc56d" stroke="#ffc56d"></path><path d="M128.240116070956,385.341899972409L186.30252591334283,469.2258149664849L232.2283648699522,336.7435672413558Z" fill="#ffd06e" stroke="#ffd06e"></path><path d="M232.2283648699522,336.7435672413558L186.30252591334283,469.2258149664849L350.5365727376193,482.31953208334744Z" fill="#ffc667" stroke="#ffc667"></path><path d="M232.2283648699522,336.7435672413558L350.5365727376193,482.31953208334744L424.27651905454695,432.5059138890356Z" fill="#ffc563" stroke="#ffc563"></path><path d="M424.27651905454695,432.5059138890356L350.5365727376193,482.31953208334744L488.82858409546316,510.00471563078463Z" fill="#ffb559" stroke="#ffb559"></path><path d="M424.27651905454695,432.5059138890356L488.82858409546316,510.00471563078463L491.03896834887564,332.78648835606873Z" fill="#ffbd5a" stroke="#ffbd5a"></path><path d="M491.03896834887564,332.78648835606873L488.82858409546316,510.00471563078463L648.1901514809579,315.29673526994884Z" fill="#ffc257" stroke="#ffc257"></path><path d="M648.1901514809579,315.29673526994884L488.82858409546316,510.00471563078463L733.5624940786511,578.8809310924262Z" fill="#ffae4c" stroke="#ffae4c"></path><path d="M648.1901514809579,315.29673526994884L733.5624940786511,578.8809310924262L794.5901912078261,410.29761984944344Z" fill="#feab4a" stroke="#feab4a"></path><path d="M794.5901912078261,410.29761984944344L733.5624940786511,578.8809310924262L818.5394892655313,560.4285182151943Z" fill="#fd9642" stroke="#fd9642"></path><path d="M794.5901912078261,410.29761984944344L818.5394892655313,560.4285182151943L951.9956007320434,534.462080905214Z" fill="#fc9241" stroke="#fc9241"></path><path d="M794.5901912078261,410.29761984944344L951.9956007320434,534.462080905214L969.7390497196466,360.8003929350525Z" fill="#fc9b44" stroke="#fc9b44"></path><path d="M969.7390497196466,360.8003929350525L951.9956007320434,534.462080905214L1106.7853680811822,419.00819211266935Z" fill="#fb9041" stroke="#fb9041"></path><path d="M1106.7853680811822,419.00819211266935L951.9956007320434,534.462080905214L1097.255958840251,575.6863739993423Z" fill="#fa7e3a" stroke="#fa7e3a"></path><path d="M1106.7853680811822,419.00819211266935L1097.255958840251,575.6863739993423L1298.7602668907493,558.0594168137759Z" fill="#f97235" stroke="#f97235"></path><path d="M1106.7853680811822,419.00819211266935L1298.7602668907493,558.0594168137759L1316.947259567678,319.6162624564022Z" fill="#f87c39" stroke="#f87c39"></path><path d="M1316.947259567678,319.6162624564022L1298.7602668907493,558.0594168137759L1383.217558991164,318.50899890996516Z" fill="#f77a38" stroke="#f77a38"></path><path d="M1383.217558991164,318.50899890996516L1298.7602668907493,558.0594168137759L1434.6540796291083,546.0682689584792Z" fill="#f76732" stroke="#f76732"></path><path d="M1383.217558991164,318.50899890996516L1434.6540796291083,546.0682689584792L1547.2601494565606,354.21565339900553Z" fill="#f66d33" stroke="#f66d33"></path><path d="M1547.2601494565606,354.21565339900553L1434.6540796291083,546.0682689584792L1612.0915358047932,530.3185529261827Z" fill="#f5582c" stroke="#f5582c"></path><path d="M1547.2601494565606,354.21565339900553L1612.0915358047932,530.3185529261827L1708.9907399844378,381.64234578609467Z" fill="#f45d2c" stroke="#f45d2c"></path><path d="M1708.9907399844378,381.64234578609467L1612.0915358047932,530.3185529261827L1716.606665533036,527.7879891637713Z" fill="#f35127" stroke="#f35127"></path><path d="M1708.9907399844378,381.64234578609467L1716.606665533036,527.7879891637713L1922.5582276191562,380.61064305715263Z" fill="#f25b28" stroke="#f25b28"></path><path d="M1922.5582276191562,380.61064305715263L1716.606665533036,527.7879891637713L1933.7772325705737,571.9849242176861Z" fill="#f14f23" stroke="#f14f23"></path><path d="M1922.5582276191562,380.61064305715263L1933.7772325705737,571.9849242176861L1972.9437619820237,397.84044231288135Z" fill="#f05726" stroke="#f05726"></path><path d="M1972.9437619820237,397.84044231288135L1933.7772325705737,571.9849242176861L2012.523967931047,566.143109081313Z" fill="#f04b22" stroke="#f04b22"></path><path d="M-100.39565602317452,513.6770303919911L-127.40807550027966,932.0933924429119L-74.57290965132415,699.1165613941848Z" fill="#ff9d69" stroke="#ff9d69"></path><path d="M-100.39565602317452,513.6770303919911L-74.57290965132415,699.1165613941848L55.044637229293585,550.4331413190812Z" fill="#ffb46f" stroke="#ffb46f"></path><path d="M55.044637229293585,550.4331413190812L-74.57290965132415,699.1165613941848L105.0656646117568,699.5127054210752Z" fill="#ffa466" stroke="#ffa466"></path><path d="M55.044637229293585,550.4331413190812L105.0656646117568,699.5127054210752L203.9014493767172,712.0944515895098Z" fill="#ff9f5f" stroke="#ff9f5f"></path><path d="M55.044637229293585,550.4331413190812L203.9014493767172,712.0944515895098L186.30252591334283,469.2258149664849Z" fill="#ffad63" stroke="#ffad63"></path><path d="M186.30252591334283,469.2258149664849L203.9014493767172,712.0944515895098L350.5365727376193,482.31953208334744Z" fill="#ffad5f" stroke="#ffad5f"></path><path d="M350.5365727376193,482.31953208334744L203.9014493767172,712.0944515895098L315.4788350779563,734.835292166099Z" fill="#ff9a55" stroke="#ff9a55"></path><path d="M350.5365727376193,482.31953208334744L315.4788350779563,734.835292166099L488.82858409546316,510.00471563078463Z" fill="#ffa354" stroke="#ffa354"></path><path d="M488.82858409546316,510.00471563078463L315.4788350779563,734.835292166099L573.8353141956031,616.2705854326487Z" fill="#ff974c" stroke="#ff974c"></path><path d="M488.82858409546316,510.00471563078463L573.8353141956031,616.2705854326487L733.5624940786511,578.8809310924262Z" fill="#ff9b46" stroke="#ff9b46"></path><path d="M733.5624940786511,578.8809310924262L573.8353141956031,616.2705854326487L672.3381692636758,626.1683872528374Z" fill="#ff8f40" stroke="#ff8f40"></path><path d="M733.5624940786511,578.8809310924262L672.3381692636758,626.1683872528374L846.5891137998551,718.1010973826051Z" fill="#fe803a" stroke="#fe803a"></path><path d="M733.5624940786511,578.8809310924262L846.5891137998551,718.1010973826051L818.5394892655313,560.4285182151943Z" fill="#fd7f3a" stroke="#fd7f3a"></path><path d="M818.5394892655313,560.4285182151943L846.5891137998551,718.1010973826051L951.9956007320434,534.462080905214Z" fill="#fc7c39" stroke="#fc7c39"></path><path d="M951.9956007320434,534.462080905214L846.5891137998551,718.1010973826051L992.4488157592714,693.2456351257861Z" fill="#fc6e34" stroke="#fc6e34"></path><path d="M951.9956007320434,534.462080905214L992.4488157592714,693.2456351257861L1097.255958840251,575.6863739993423Z" fill="#fb6f34" stroke="#fb6f34"></path><path d="M1097.255958840251,575.6863739993423L992.4488157592714,693.2456351257861L1170.6990783009678,649.6425358392298Z" fill="#fa612f" stroke="#fa612f"></path><path d="M1097.255958840251,575.6863739993423L1170.6990783009678,649.6425358392298L1298.7602668907493,558.0594168137759Z" fill="#f9602f" stroke="#f9602f"></path><path d="M1298.7602668907493,558.0594168137759L1170.6990783009678,649.6425358392298L1252.688407804817,714.9635602533817Z" fill="#f8522a" stroke="#f8522a"></path><path d="M1298.7602668907493,558.0594168137759L1252.688407804817,714.9635602533817L1475.1780477538705,656.0759844258428Z" fill="#f74826" stroke="#f74826"></path><path d="M1298.7602668907493,558.0594168137759L1475.1780477538705,656.0759844258428L1434.6540796291083,546.0682689584792Z" fill="#f64e28" stroke="#f64e28"></path><path d="M1434.6540796291083,546.0682689584792L1475.1780477538705,656.0759844258428L1612.0915358047932,530.3185529261827Z" fill="#f54625" stroke="#f54625"></path><path d="M1612.0915358047932,530.3185529261827L1475.1780477538705,656.0759844258428L1614.919759137556,643.1090230308473Z" fill="#f53a21" stroke="#f53a21"></path><path d="M1612.0915358047932,530.3185529261827L1614.919759137556,643.1090230308473L1719.8551574908197,623.4346270188689Z" fill="#f4391f" stroke="#f4391f"></path><path d="M1612.0915358047932,530.3185529261827L1719.8551574908197,623.4346270188689L1716.606665533036,527.7879891637713Z" fill="#f34120" stroke="#f34120"></path><path d="M1716.606665533036,527.7879891637713L1719.8551574908197,623.4346270188689L1933.7772325705737,571.9849242176861Z" fill="#f23e1d" stroke="#f23e1d"></path><path d="M1933.7772325705737,571.9849242176861L1719.8551574908197,623.4346270188689L1861.8157315347344,700.0849726516753Z" fill="#f23319" stroke="#f23319"></path><path d="M1933.7772325705737,571.9849242176861L1861.8157315347344,700.0849726516753L1991.0073220264167,654.9451063200831Z" fill="#f13118" stroke="#f13118"></path><path d="M1933.7772325705737,571.9849242176861L1991.0073220264167,654.9451063200831L2012.523967931047,566.143109081313Z" fill="#f03a1b" stroke="#f03a1b"></path><path d="M2012.523967931047,566.143109081313L1991.0073220264167,654.9451063200831L2034.3695342168212,948.2266590837389Z" fill="#f02112" stroke="#f02112"></path><path d="M-74.57290965132415,699.1165613941848L-127.40807550027966,932.0933924429119L-62.666584365069866,821.5747117158026Z" fill="#ff8861" stroke="#ff8861"></path><path d="M-74.57290965132415,699.1165613941848L-62.666584365069866,821.5747117158026L105.0656646117568,699.5127054210752Z" fill="#ff9462" stroke="#ff9462"></path><path d="M105.0656646117568,699.5127054210752L-62.666584365069866,821.5747117158026L133.63764041103423,813.9216223731637Z" fill="#ff8a5a" stroke="#ff8a5a"></path><path d="M105.0656646117568,699.5127054210752L133.63764041103423,813.9216223731637L203.9014493767172,712.0944515895098Z" fill="#ff8c57" stroke="#ff8c57"></path><path d="M203.9014493767172,712.0944515895098L133.63764041103423,813.9216223731637L238.5036814212799,844.2911104951054Z" fill="#ff8151" stroke="#ff8151"></path><path d="M203.9014493767172,712.0944515895098L238.5036814212799,844.2911104951054L315.4788350779563,734.835292166099Z" fill="#ff844f" stroke="#ff844f"></path><path d="M315.4788350779563,734.835292166099L238.5036814212799,844.2911104951054L324.60769951343536,785.759057700634Z" fill="#ff7d4b" stroke="#ff7d4b"></path><path d="M315.4788350779563,734.835292166099L324.60769951343536,785.759057700634L470.801610192284,808.4646015521139Z" fill="#ff7b46" stroke="#ff7b46"></path><path d="M315.4788350779563,734.835292166099L470.801610192284,808.4646015521139L573.8353141956031,616.2705854326487Z" fill="#ff8345" stroke="#ff8345"></path><path d="M573.8353141956031,616.2705854326487L470.801610192284,808.4646015521139L669.6325914468616,775.7343754917383Z" fill="#ff7b3c" stroke="#ff7b3c"></path><path d="M573.8353141956031,616.2705854326487L669.6325914468616,775.7343754917383L672.3381692636758,626.1683872528374Z" fill="#ff843c" stroke="#ff843c"></path><path d="M672.3381692636758,626.1683872528374L669.6325914468616,775.7343754917383L846.5891137998551,718.1010973826051Z" fill="#fe7436" stroke="#fe7436"></path><path d="M846.5891137998551,718.1010973826051L669.6325914468616,775.7343754917383L836.0850428044796,794.4871588703245Z" fill="#fd6430" stroke="#fd6430"></path><path d="M846.5891137998551,718.1010973826051L836.0850428044796,794.4871588703245L992.4488157592714,693.2456351257861Z" fill="#fc602f" stroke="#fc602f"></path><path d="M992.4488157592714,693.2456351257861L836.0850428044796,794.4871588703245L922.8798795025796,866.7075656913221Z" fill="#fc532a" stroke="#fc532a"></path><path d="M992.4488157592714,693.2456351257861L922.8798795025796,866.7075656913221L1099.702211106196,825.7173784542829Z" fill="#fb4927" stroke="#fb4927"></path><path d="M992.4488157592714,693.2456351257861L1099.702211106196,825.7173784542829L1170.6990783009678,649.6425358392298Z" fill="#fa5029" stroke="#fa5029"></path><path d="M1170.6990783009678,649.6425358392298L1099.702211106196,825.7173784542829L1252.688407804817,714.9635602533817Z" fill="#f94725" stroke="#f94725"></path><path d="M1252.688407804817,714.9635602533817L1099.702211106196,825.7173784542829L1287.0910160243511,850.797116663307Z" fill="#f8351f" stroke="#f8351f"></path><path d="M1252.688407804817,714.9635602533817L1287.0910160243511,850.797116663307L1453.5519214812666,812.9616361577064Z" fill="#f72b1b" stroke="#f72b1b"></path><path d="M1252.688407804817,714.9635602533817L1453.5519214812666,812.9616361577064L1475.1780477538705,656.0759844258428Z" fill="#f7331e" stroke="#f7331e"></path><path d="M1475.1780477538705,656.0759844258428L1453.5519214812666,812.9616361577064L1567.6713672280312,822.546634208411Z" fill="#f52118" stroke="#f52118"></path><path d="M1475.1780477538705,656.0759844258428L1567.6713672280312,822.546634208411L1614.919759137556,643.1090230308473Z" fill="#f5281a" stroke="#f5281a"></path><path d="M1614.919759137556,643.1090230308473L1567.6713672280312,822.546634208411L1784.8098440654576,781.3222949299961Z" fill="#f41b13" stroke="#f41b13"></path><path d="M1614.919759137556,643.1090230308473L1784.8098440654576,781.3222949299961L1719.8551574908197,623.4346270188689Z" fill="#f32917" stroke="#f32917"></path><path d="M1719.8551574908197,623.4346270188689L1784.8098440654576,781.3222949299961L1861.8157315347344,700.0849726516753Z" fill="#f22514" stroke="#f22514"></path><path d="M1861.8157315347344,700.0849726516753L1784.8098440654576,781.3222949299961L1900.7060894183815,845.0604873709381Z" fill="#f2160e" stroke="#f2160e"></path><path d="M1861.8157315347344,700.0849726516753L1900.7060894183815,845.0604873709381L1990.7331847865134,824.7154197469354Z" fill="#f1130d" stroke="#f1130d"></path><path d="M1861.8157315347344,700.0849726516753L1990.7331847865134,824.7154197469354L1991.0073220264167,654.9451063200831Z" fill="#f02012" stroke="#f02012"></path><path d="M1991.0073220264167,654.9451063200831L1990.7331847865134,824.7154197469354L2034.3695342168212,948.2266590837389Z" fill="#f00f0c" stroke="#f00f0c"></path><path d="M-62.666584365069866,821.5747117158026L-127.40807550027966,932.0933924429119L115.59674520045519,956.2017697747797Z" fill="#ff7857" stroke="#ff7857"></path><path d="M-62.666584365069866,821.5747117158026L115.59674520045519,956.2017697747797L133.63764041103423,813.9216223731637Z" fill="#ff7854" stroke="#ff7854"></path><path d="M133.63764041103423,813.9216223731637L115.59674520045519,956.2017697747797L238.5036814212799,844.2911104951054Z" fill="#ff724d" stroke="#ff724d"></path><path d="M238.5036814212799,844.2911104951054L115.59674520045519,956.2017697747797L170.91015282087028,1018.2380458060652Z" fill="#ff6f47" stroke="#ff6f47"></path><path d="M238.5036814212799,844.2911104951054L170.91015282087028,1018.2380458060652L360.76281521469355,987.6709753833711Z" fill="#ff6b41" stroke="#ff6b41"></path><path d="M238.5036814212799,844.2911104951054L360.76281521469355,987.6709753833711L324.60769951343536,785.759057700634Z" fill="#ff6b43" stroke="#ff6b43"></path><path d="M324.60769951343536,785.759057700634L360.76281521469355,987.6709753833711L470.801610192284,808.4646015521139Z" fill="#ff6a3f" stroke="#ff6a3f"></path><path d="M470.801610192284,808.4646015521139L360.76281521469355,987.6709753833711L473.0875400081277,969.5996116753668Z" fill="#ff6337" stroke="#ff6337"></path><path d="M470.801610192284,808.4646015521139L473.0875400081277,969.5996116753668L669.6325914468616,775.7343754917383Z" fill="#ff6435" stroke="#ff6435"></path><path d="M669.6325914468616,775.7343754917383L473.0875400081277,969.5996116753668L733.6119471956044,974.9465593043715Z" fill="#ff5a2c" stroke="#ff5a2c"></path><path d="M669.6325914468616,775.7343754917383L733.6119471956044,974.9465593043715L814.3061158899218,918.4992488007993Z" fill="#fe5029" stroke="#fe5029"></path><path d="M669.6325914468616,775.7343754917383L814.3061158899218,918.4992488007993L836.0850428044796,794.4871588703245Z" fill="#fd582c" stroke="#fd582c"></path><path d="M836.0850428044796,794.4871588703245L814.3061158899218,918.4992488007993L922.8798795025796,866.7075656913221Z" fill="#fc4a27" stroke="#fc4a27"></path><path d="M922.8798795025796,866.7075656913221L814.3061158899218,918.4992488007993L1028.6350491642952,979.5104207005352Z" fill="#fc3f20" stroke="#fc3f20"></path><path d="M922.8798795025796,866.7075656913221L1028.6350491642952,979.5104207005352L1099.702211106196,825.7173784542829Z" fill="#fb361f" stroke="#fb361f"></path><path d="M1099.702211106196,825.7173784542829L1028.6350491642952,979.5104207005352L1125.8622036874294,998.6524153780192Z" fill="#fa3019" stroke="#fa3019"></path><path d="M1099.702211106196,825.7173784542829L1125.8622036874294,998.6524153780192L1240.093991663307,938.5733515117317Z" fill="#f92918" stroke="#f92918"></path><path d="M1099.702211106196,825.7173784542829L1240.093991663307,938.5733515117317L1287.0910160243511,850.797116663307Z" fill="#f9271a" stroke="#f9271a"></path><path d="M1287.0910160243511,850.797116663307L1240.093991663307,938.5733515117317L1441.3912937510759,951.8488682527095Z" fill="#f71a13" stroke="#f71a13"></path><path d="M1287.0910160243511,850.797116663307L1441.3912937510759,951.8488682527095L1453.5519214812666,812.9616361577064Z" fill="#f71613" stroke="#f71613"></path><path d="M1453.5519214812666,812.9616361577064L1441.3912937510759,951.8488682527095L1542.444594455883,926.702471813187Z" fill="#f60b0f" stroke="#f60b0f"></path><path d="M1453.5519214812666,812.9616361577064L1542.444594455883,926.702471813187L1567.6713672280312,822.546634208411Z" fill="#f50d10" stroke="#f50d10"></path><path d="M1567.6713672280312,822.546634208411L1542.444594455883,926.702471813187L1668.2420402113348,980.4497742746025Z" fill="#f4010a" stroke="#f4010a"></path><path d="M1567.6713672280312,822.546634208411L1668.2420402113348,980.4497742746025L1784.8098440654576,781.3222949299961Z" fill="#f3050b" stroke="#f3050b"></path><path d="M1784.8098440654576,781.3222949299961L1668.2420402113348,980.4497742746025L1849.4776138756424,930.1678138319403Z" fill="#f20006" stroke="#f20006"></path><path d="M1784.8098440654576,781.3222949299961L1849.4776138756424,930.1678138319403L1900.7060894183815,845.0604873709381Z" fill="#f20709" stroke="#f20709"></path><path d="M1900.7060894183815,845.0604873709381L1849.4776138756424,930.1678138319403L2034.3695342168212,948.2266590837389Z" fill="#f10005" stroke="#f10005"></path><path d="M1900.7060894183815,845.0604873709381L2034.3695342168212,948.2266590837389L1990.7331847865134,824.7154197469354Z" fill="#f00307" stroke="#f00307"></path><path d="M-127.40807550027966,932.0933924429119L-96.98835127986968,1240.3685862198472L-51.14275921136141,1109.7820509318262Z" fill="#ff7b56" stroke="#ff7b56"></path><path d="M-127.40807550027966,932.0933924429119L-51.14275921136141,1109.7820509318262L115.59674520045519,956.2017697747797Z" fill="#ff7852" stroke="#ff7852"></path><path d="M115.59674520045519,956.2017697747797L-51.14275921136141,1109.7820509318262L170.91015282087028,1018.2380458060652Z" fill="#ff734b" stroke="#ff734b"></path><path d="M170.91015282087028,1018.2380458060652L-51.14275921136141,1109.7820509318262L28.31863104365766,1183.793222643435Z" fill="#ff744d" stroke="#ff744d"></path><path d="M170.91015282087028,1018.2380458060652L28.31863104365766,1183.793222643435L165.86376601830125,1137.246465543285Z" fill="#ff7148" stroke="#ff7148"></path><path d="M170.91015282087028,1018.2380458060652L165.86376601830125,1137.246465543285L348.1126468721777,1081.7512651439756Z" fill="#ff6c41" stroke="#ff6c41"></path><path d="M170.91015282087028,1018.2380458060652L348.1126468721777,1081.7512651439756L360.76281521469355,987.6709753833711Z" fill="#ff693d" stroke="#ff693d"></path><path d="M360.76281521469355,987.6709753833711L348.1126468721777,1081.7512651439756L473.0875400081277,969.5996116753668Z" fill="#ff6536" stroke="#ff6536"></path><path d="M473.0875400081277,969.5996116753668L348.1126468721777,1081.7512651439756L555.905236825347,1128.3483395632356Z" fill="#ff6232" stroke="#ff6232"></path><path d="M473.0875400081277,969.5996116753668L555.905236825347,1128.3483395632356L733.6119471956044,974.9465593043715Z" fill="#ff5c2a" stroke="#ff5c2a"></path><path d="M733.6119471956044,974.9465593043715L555.905236825347,1128.3483395632356L663.1470534112304,1129.9892655853182Z" fill="#ff5826" stroke="#ff5826"></path><path d="M733.6119471956044,974.9465593043715L663.1470534112304,1129.9892655853182L780.3653579670936,1156.435507396236Z" fill="#fe5123" stroke="#fe5123"></path><path d="M733.6119471956044,974.9465593043715L780.3653579670936,1156.435507396236L927.5724333710968,1139.0433584712446Z" fill="#fd4920" stroke="#fd4920"></path><path d="M733.6119471956044,974.9465593043715L927.5724333710968,1139.0433584712446L814.3061158899218,918.4992488007993Z" fill="#fd4820" stroke="#fd4820"></path><path d="M814.3061158899218,918.4992488007993L927.5724333710968,1139.0433584712446L1028.6350491642952,979.5104207005352Z" fill="#fc3f1d" stroke="#fc3f1d"></path><path d="M1028.6350491642952,979.5104207005352L927.5724333710968,1139.0433584712446L1164.5207520760596,1128.2687807735056Z" fill="#fa3418" stroke="#fa3418"></path><path d="M1028.6350491642952,979.5104207005352L1164.5207520760596,1128.2687807735056L1125.8622036874294,998.6524153780192Z" fill="#fa2e16" stroke="#fa2e16"></path><path d="M1125.8622036874294,998.6524153780192L1164.5207520760596,1128.2687807735056L1240.093991663307,938.5733515117317Z" fill="#f92714" stroke="#f92714"></path><path d="M1240.093991663307,938.5733515117317L1164.5207520760596,1128.2687807735056L1266.8181439395994,1134.984861742705Z" fill="#f82312" stroke="#f82312"></path><path d="M1240.093991663307,938.5733515117317L1266.8181439395994,1134.984861742705L1370.624787742272,1116.6806999221444Z" fill="#f81d10" stroke="#f81d10"></path><path d="M1240.093991663307,938.5733515117317L1370.624787742272,1116.6806999221444L1441.3912937510759,951.8488682527095Z" fill="#f7170e" stroke="#f7170e"></path><path d="M1441.3912937510759,951.8488682527095L1370.624787742272,1116.6806999221444L1579.4976288545877,1114.3748994916677Z" fill="#f60d0a" stroke="#f60d0a"></path><path d="M1441.3912937510759,951.8488682527095L1579.4976288545877,1114.3748994916677L1542.444594455883,926.702471813187Z" fill="#f50708" stroke="#f50708"></path><path d="M1542.444594455883,926.702471813187L1579.4976288545877,1114.3748994916677L1668.2420402113348,980.4497742746025Z" fill="#f40005" stroke="#f40005"></path><path d="M1668.2420402113348,980.4497742746025L1579.4976288545877,1114.3748994916677L1741.2064975406975,1089.6979331038892Z" fill="#f40003" stroke="#f40003"></path><path d="M1668.2420402113348,980.4497742746025L1741.2064975406975,1089.6979331038892L1849.4776138756424,930.1678138319403Z" fill="#f30000" stroke="#f30000"></path><path d="M1849.4776138756424,930.1678138319403L1741.2064975406975,1089.6979331038892L1929.3839967157692,1140.096910027787Z" fill="#f20000" stroke="#f20000"></path><path d="M1849.4776138756424,930.1678138319403L1929.3839967157692,1140.096910027787L2011.7528437078,1111.0704196058214Z" fill="#f10000" stroke="#f10000"></path><path d="M1849.4776138756424,930.1678138319403L2011.7528437078,1111.0704196058214L2034.3695342168212,948.2266590837389Z" fill="#f00000" stroke="#f00000"></path><path d="M2034.3695342168212,948.2266590837389L2011.7528437078,1111.0704196058214L2040.3055364917964,1223.4536734968424Z" fill="#f00000" stroke="#f00000"></path><path d="M-51.14275921136141,1109.7820509318262L-96.98835127986968,1240.3685862198472L28.31863104365766,1183.793222643435Z" fill="#ff7953" stroke="#ff7953"></path><path d="M28.31863104365766,1183.793222643435L-96.98835127986968,1240.3685862198472L124.67687962576747,1221.0076280962676Z" fill="#ff764f" stroke="#ff764f"></path><path d="M28.31863104365766,1183.793222643435L124.67687962576747,1221.0076280962676L165.86376601830125,1137.246465543285Z" fill="#ff7249" stroke="#ff7249"></path><path d="M165.86376601830125,1137.246465543285L124.67687962576747,1221.0076280962676L260.6499037798494,1327.2655146662146Z" fill="#ff6e44" stroke="#ff6e44"></path><path d="M165.86376601830125,1137.246465543285L260.6499037798494,1327.2655146662146L337.9755238350481,1294.6477320604026Z" fill="#ff6b40" stroke="#ff6b40"></path><path d="M165.86376601830125,1137.246465543285L337.9755238350481,1294.6477320604026L348.1126468721777,1081.7512651439756Z" fill="#ff6a3e" stroke="#ff6a3e"></path><path d="M348.1126468721777,1081.7512651439756L337.9755238350481,1294.6477320604026L555.905236825347,1128.3483395632356Z" fill="#ff6435" stroke="#ff6435"></path><path d="M555.905236825347,1128.3483395632356L337.9755238350481,1294.6477320604026L504.9985964689404,1312.5967934913933Z" fill="#ff6132" stroke="#ff6132"></path><path d="M555.905236825347,1128.3483395632356L504.9985964689404,1312.5967934913933L663.5123670101166,1261.3104129116982Z" fill="#ff5c2b" stroke="#ff5c2b"></path><path d="M555.905236825347,1128.3483395632356L663.5123670101166,1261.3104129116982L663.1470534112304,1129.9892655853182Z" fill="#ff5a27" stroke="#ff5a27"></path><path d="M663.1470534112304,1129.9892655853182L663.5123670101166,1261.3104129116982L780.3653579670936,1156.435507396236Z" fill="#fe5324" stroke="#fe5324"></path><path d="M780.3653579670936,1156.435507396236L663.5123670101166,1261.3104129116982L866.6125579923391,1234.0162315405905Z" fill="#fd4d22" stroke="#fd4d22"></path><path d="M780.3653579670936,1156.435507396236L866.6125579923391,1234.0162315405905L927.5724333710968,1139.0433584712446Z" fill="#fc451f" stroke="#fc451f"></path><path d="M927.5724333710968,1139.0433584712446L866.6125579923391,1234.0162315405905L1013.6181505490094,1327.7076178696007Z" fill="#fc3e1c" stroke="#fc3e1c"></path><path d="M927.5724333710968,1139.0433584712446L1013.6181505490094,1327.7076178696007L1145.848065521568,1235.5733873136342Z" fill="#fa3519" stroke="#fa3519"></path><path d="M927.5724333710968,1139.0433584712446L1145.848065521568,1235.5733873136342L1164.5207520760596,1128.2687807735056Z" fill="#fa3017" stroke="#fa3017"></path><path d="M1164.5207520760596,1128.2687807735056L1145.848065521568,1235.5733873136342L1266.8181439395994,1134.984861742705Z" fill="#f92613" stroke="#f92613"></path><path d="M1266.8181439395994,1134.984861742705L1145.848065521568,1235.5733873136342L1307.8604034148157,1253.478802749887Z" fill="#f82112" stroke="#f82112"></path><path d="M1266.8181439395994,1134.984861742705L1307.8604034148157,1253.478802749887L1370.624787742272,1116.6806999221444Z" fill="#f71a0f" stroke="#f71a0f"></path><path d="M1370.624787742272,1116.6806999221444L1307.8604034148157,1253.478802749887L1415.4249455127865,1255.879352549091Z" fill="#f7160d" stroke="#f7160d"></path><path d="M1370.624787742272,1116.6806999221444L1415.4249455127865,1255.879352549091L1579.4976288545877,1114.3748994916677Z" fill="#f60d0a" stroke="#f60d0a"></path><path d="M1579.4976288545877,1114.3748994916677L1415.4249455127865,1255.879352549091L1618.160155378282,1305.240830462426Z" fill="#f50607" stroke="#f50607"></path><path d="M1579.4976288545877,1114.3748994916677L1618.160155378282,1305.240830462426L1741.2064975406975,1089.6979331038892Z" fill="#f40004" stroke="#f40004"></path><path d="M1741.2064975406975,1089.6979331038892L1618.160155378282,1305.240830462426L1726.874852757901,1328.5775353945792Z" fill="#f30002" stroke="#f30002"></path><path d="M1741.2064975406975,1089.6979331038892L1726.874852757901,1328.5775353945792L1818.562469612807,1284.1555519681424Z" fill="#f20000" stroke="#f20000"></path><path d="M1741.2064975406975,1089.6979331038892L1818.562469612807,1284.1555519681424L1929.3839967157692,1140.096910027787Z" fill="#f20000" stroke="#f20000"></path><path d="M1929.3839967157692,1140.096910027787L1818.562469612807,1284.1555519681424L2040.3055364917964,1223.4536734968424Z" fill="#f10000" stroke="#f10000"></path><path d="M1929.3839967157692,1140.096910027787L2040.3055364917964,1223.4536734968424L2011.7528437078,1111.0704196058214Z" fill="#f00000" stroke="#f00000"></path><path d="M-96.98835127986968,1240.3685862198472L260.6499037798494,1327.2655146662146L124.67687962576747,1221.0076280962676Z" fill="#ff724a" stroke="#ff724a"></path><path d="M260.6499037798494,1327.2655146662146L1726.874852757901,1328.5775353945792L1013.6181505490094,1327.7076178696007Z" fill="#fb381a" stroke="#fb381a"></path><path d="M260.6499037798494,1327.2655146662146L1013.6181505490094,1327.7076178696007L504.9985964689404,1312.5967934913933Z" fill="#ff5b29" stroke="#ff5b29"></path><path d="M260.6499037798494,1327.2655146662146L504.9985964689404,1312.5967934913933L337.9755238350481,1294.6477320604026Z" fill="#ff6638" stroke="#ff6638"></path><path d="M504.9985964689404,1312.5967934913933L1013.6181505490094,1327.7076178696007L663.5123670101166,1261.3104129116982Z" fill="#fe5123" stroke="#fe5123"></path><path d="M663.5123670101166,1261.3104129116982L1013.6181505490094,1327.7076178696007L866.6125579923391,1234.0162315405905Z" fill="#fc461f" stroke="#fc461f"></path><path d="M1013.6181505490094,1327.7076178696007L1726.874852757901,1328.5775353945792L1618.160155378282,1305.240830462426Z" fill="#f60e0a" stroke="#f60e0a"></path><path d="M1013.6181505490094,1327.7076178696007L1618.160155378282,1305.240830462426L1307.8604034148157,1253.478802749887Z" fill="#f71b0f" stroke="#f71b0f"></path><path d="M1013.6181505490094,1327.7076178696007L1307.8604034148157,1253.478802749887L1145.848065521568,1235.5733873136342Z" fill="#f92915" stroke="#f92915"></path><path d="M1307.8604034148157,1253.478802749887L1618.160155378282,1305.240830462426L1415.4249455127865,1255.879352549091Z" fill="#f60e0b" stroke="#f60e0b"></path><path d="M1726.874852757901,1328.5775353945792L2040.3055364917964,1223.4536734968424L1818.562469612807,1284.1555519681424Z" fill="#f10000" stroke="#f10000"></path></g><filter id="noise"><feTurbulence type="fractalNoise" in="fillPaint" fill="#F00" baseFrequency="0.7" numOctaves="10" stitchTiles="stitch"></feTurbulence><feComponentTransfer><feFuncR type="linear" slope="2" intercept="-.5"></feFuncR><feFuncG type="linear" slope="2" intercept="-.5"></feFuncG><feFuncB type="linear" slope="2" intercept="-.5"></feFuncB></feComponentTransfer><feColorMatrix type="matrix" values="0.3333 0.3333 0.3333 0 0 
 0.3333 0.3333 0.3333 0 0 
 0.3333 0.3333 0.3333 0 0 
 0 0 0 1 0"></feColorMatrix></filter><rect opacity="0.20000000000000007" width="100%" height="100%" filter="url(#noise)"></rect></svg>