<svg width="1920" height="1065" xmlns="http://www.w3.org/2000/svg"><g><path d="M-30.957101974636316,-115.64365189522505L-114.34112995862961,98.05775399319828L74.75315214134753,21.211462821811438Z" fill="#ffffc5" stroke="#ffffc5"></path><path d="M-30.957101974636316,-115.64365189522505L74.75315214134753,21.211462821811438L97.64344842173159,-77.31229858472943Z" fill="#fffccc" stroke="#fffccc"></path><path d="M-30.957101974636316,-115.64365189522505L97.64344842173159,-77.31229858472943L399.85565738752484,-80.8402220159769Z" fill="#fff5c7" stroke="#fff5c7"></path><path d="M-30.957101974636316,-115.64365189522505L399.85565738752484,-80.8402220159769L494.88847497850657,-90.88857659138739Z" fill="#ffecb9" stroke="#ffecb9"></path><path d="M-30.957101974636316,-115.64365189522505L494.88847497850657,-90.88857659138739L848.403197452426,-98.82031534798443Z" fill="#ffe1ac" stroke="#ffe1ac"></path><path d="M-30.957101974636316,-115.64365189522505L848.403197452426,-98.82031534798443L2054.738912489265,-134.3817517440766Z" fill="#fbb297" stroke="#fbb297"></path><path d="M97.64344842173159,-77.31229858472943L74.75315214134753,21.211462821811438L229.49957493692636,-50.490463552996516Z" fill="#fff6bd" stroke="#fff6bd"></path><path d="M97.64344842173159,-77.31229858472943L229.49957493692636,-50.490463552996516L399.85565738752484,-80.8402220159769Z" fill="#ffefb9" stroke="#ffefb9"></path><path d="M229.49957493692636,-50.490463552996516L74.75315214134753,21.211462821811438L274.12235448136926,77.63000283390284Z" fill="#fff2aa" stroke="#fff2aa"></path><path d="M229.49957493692636,-50.490463552996516L274.12235448136926,77.63000283390284L332.3525992501527,48.64302299916744Z" fill="#ffec9e" stroke="#ffec9e"></path><path d="M229.49957493692636,-50.490463552996516L332.3525992501527,48.64302299916744L399.85565738752484,-80.8402220159769Z" fill="#ffeaa6" stroke="#ffeaa6"></path><path d="M399.85565738752484,-80.8402220159769L332.3525992501527,48.64302299916744L569.5156506635249,22.78138135559857Z" fill="#ffe297" stroke="#ffe297"></path><path d="M399.85565738752484,-80.8402220159769L569.5156506635249,22.78138135559857L494.88847497850657,-90.88857659138739Z" fill="#ffdda0" stroke="#ffdda0"></path><path d="M494.88847497850657,-90.88857659138739L569.5156506635249,22.78138135559857L727.3275670129806,-68.79300713539124Z" fill="#fed49a" stroke="#fed49a"></path><path d="M494.88847497850657,-90.88857659138739L727.3275670129806,-68.79300713539124L848.403197452426,-98.82031534798443Z" fill="#fecda0" stroke="#fecda0"></path><path d="M727.3275670129806,-68.79300713539124L569.5156506635249,22.78138135559857L730.8485249709338,92.4687329493463Z" fill="#fecd89" stroke="#fecd89"></path><path d="M727.3275670129806,-68.79300713539124L730.8485249709338,92.4687329493463L854.8472265154123,76.05469202622771Z" fill="#fec580" stroke="#fec580"></path><path d="M727.3275670129806,-68.79300713539124L854.8472265154123,76.05469202622771L848.403197452426,-98.82031534798443Z" fill="#fec28e" stroke="#fec28e"></path><path d="M848.403197452426,-98.82031534798443L854.8472265154123,76.05469202622771L938.4559009317309,-36.885871309787035Z" fill="#fcba89" stroke="#fcba89"></path><path d="M848.403197452426,-98.82031534798443L938.4559009317309,-36.885871309787035L1097.7580233011395,-88.59649814665318Z" fill="#fbb293" stroke="#fbb293"></path><path d="M848.403197452426,-98.82031534798443L1097.7580233011395,-88.59649814665318L2054.738912489265,-134.3817517440766Z" fill="#ec8f91" stroke="#ec8f91"></path><path d="M938.4559009317309,-36.885871309787035L854.8472265154123,76.05469202622771L952.3566347267479,66.27443052828312Z" fill="#fcb67a" stroke="#fcb67a"></path><path d="M938.4559009317309,-36.885871309787035L952.3566347267479,66.27443052828312L1097.7580233011395,-88.59649814665318Z" fill="#faae85" stroke="#faae85"></path><path d="M1097.7580233011395,-88.59649814665318L952.3566347267479,66.27443052828312L1150.4788348730654,35.90515245683491Z" fill="#f9a67c" stroke="#f9a67c"></path><path d="M1097.7580233011395,-88.59649814665318L1150.4788348730654,35.90515245683491L1218.6219185125083,-60.43095840141177Z" fill="#f89d83" stroke="#f89d83"></path><path d="M1097.7580233011395,-88.59649814665318L1218.6219185125083,-60.43095840141177L1464.7183682955801,-58.027318473905325Z" fill="#f1958c" stroke="#f1958c"></path><path d="M1097.7580233011395,-88.59649814665318L1464.7183682955801,-58.027318473905325L2054.738912489265,-134.3817517440766Z" fill="#de8093" stroke="#de8093"></path><path d="M1218.6219185125083,-60.43095840141177L1150.4788348730654,35.90515245683491L1278.6648091021925,72.01263609342277Z" fill="#f49877" stroke="#f49877"></path><path d="M1218.6219185125083,-60.43095840141177L1278.6648091021925,72.01263609342277L1464.7183682955801,-58.027318473905325Z" fill="#ed907f" stroke="#ed907f"></path><path d="M1464.7183682955801,-58.027318473905325L1278.6648091021925,72.01263609342277L1437.8877580258995,134.36840761452913Z" fill="#e88970" stroke="#e88970"></path><path d="M1464.7183682955801,-58.027318473905325L1437.8877580258995,134.36840761452913L1532.998572718352,-46.378830363973975Z" fill="#e2847a" stroke="#e2847a"></path><path d="M1464.7183682955801,-58.027318473905325L1532.998572718352,-46.378830363973975L1852.1921845525503,-80.35661693662405Z" fill="#d9808d" stroke="#d9808d"></path><path d="M1464.7183682955801,-58.027318473905325L1852.1921845525503,-80.35661693662405L2054.738912489265,-134.3817517440766Z" fill="#cd8095" stroke="#cd8095"></path><path d="M1532.998572718352,-46.378830363973975L1437.8877580258995,134.36840761452913L1632.0153098367155,76.87699528411031Z" fill="#de7e70" stroke="#de7e70"></path><path d="M1532.998572718352,-46.378830363973975L1632.0153098367155,76.87699528411031L1732.0365401543677,-21.341338846832514Z" fill="#d8807e" stroke="#d8807e"></path><path d="M1532.998572718352,-46.378830363973975L1732.0365401543677,-21.341338846832514L1852.1921845525503,-80.35661693662405Z" fill="#d3808b" stroke="#d3808b"></path><path d="M1732.0365401543677,-21.341338846832514L1632.0153098367155,76.87699528411031L1732.9602077510208,97.92666572146118Z" fill="#d37e72" stroke="#d37e72"></path><path d="M1732.0365401543677,-21.341338846832514L1732.9602077510208,97.92666572146118L1912.3635323904455,26.207035453990102Z" fill="#cd7f77" stroke="#cd7f77"></path><path d="M1732.0365401543677,-21.341338846832514L1912.3635323904455,26.207035453990102L1852.1921845525503,-80.35661693662405Z" fill="#cb8086" stroke="#cb8086"></path><path d="M1852.1921845525503,-80.35661693662405L1912.3635323904455,26.207035453990102L2054.738912489265,-134.3817517440766Z" fill="#c3808f" stroke="#c3808f"></path><path d="M2054.738912489265,-134.3817517440766L1912.3635323904455,26.207035453990102L2040.3862499445677,39.48654594831169Z" fill="#bf8086" stroke="#bf8086"></path><path d="M2054.738912489265,-134.3817517440766L2040.3862499445677,39.48654594831169L2068.270137710497,824.3467270955443Z" fill="#bc744b" stroke="#bc744b"></path><path d="M-114.34112995862961,98.05775399319828L-123.58011650852859,465.3469732403755L-62.073512244969606,257.93638405390084Z" fill="#ffef95" stroke="#ffef95"></path><path d="M-114.34112995862961,98.05775399319828L-62.073512244969606,257.93638405390084L119.88972502760589,174.92124977521598Z" fill="#fffa9a" stroke="#fffa9a"></path><path d="M-114.34112995862961,98.05775399319828L119.88972502760589,174.92124977521598L74.75315214134753,21.211462821811438Z" fill="#fffaa9" stroke="#fffaa9"></path><path d="M74.75315214134753,21.211462821811438L119.88972502760589,174.92124977521598L274.12235448136926,77.63000283390284Z" fill="#fff29c" stroke="#fff29c"></path><path d="M274.12235448136926,77.63000283390284L119.88972502760589,174.92124977521598L274.3618412129581,171.77532526664436Z" fill="#ffec88" stroke="#ffec88"></path><path d="M274.12235448136926,77.63000283390284L274.3618412129581,171.77532526664436L332.3525992501527,48.64302299916744Z" fill="#ffe98a" stroke="#ffe98a"></path><path d="M332.3525992501527,48.64302299916744L274.3618412129581,171.77532526664436L423.2847243268043,263.629393754527Z" fill="#ffe476" stroke="#ffe476"></path><path d="M332.3525992501527,48.64302299916744L423.2847243268043,263.629393754527L563.3496536873281,214.91110308095813Z" fill="#ffdc6b" stroke="#ffdc6b"></path><path d="M332.3525992501527,48.64302299916744L563.3496536873281,214.91110308095813L569.5156506635249,22.78138135559857Z" fill="#ffdb7d" stroke="#ffdb7d"></path><path d="M569.5156506635249,22.78138135559857L563.3496536873281,214.91110308095813L664.0922858845443,211.01471613161266Z" fill="#fed06b" stroke="#fed06b"></path><path d="M569.5156506635249,22.78138135559857L664.0922858845443,211.01471613161266L730.8485249709338,92.4687329493463Z" fill="#fecd72" stroke="#fecd72"></path><path d="M730.8485249709338,92.4687329493463L664.0922858845443,211.01471613161266L879.8977131396532,167.97923281788826Z" fill="#fec363" stroke="#fec363"></path><path d="M730.8485249709338,92.4687329493463L879.8977131396532,167.97923281788826L854.8472265154123,76.05469202622771Z" fill="#fdbd6b" stroke="#fdbd6b"></path><path d="M854.8472265154123,76.05469202622771L879.8977131396532,167.97923281788826L952.3566347267479,66.27443052828312Z" fill="#fcb66b" stroke="#fcb66b"></path><path d="M952.3566347267479,66.27443052828312L879.8977131396532,167.97923281788826L1024.6058211196214,179.86848760396242Z" fill="#fbaf60" stroke="#fbaf60"></path><path d="M952.3566347267479,66.27443052828312L1024.6058211196214,179.86848760396242L1150.4788348730654,35.90515245683491Z" fill="#faa668" stroke="#faa668"></path><path d="M1150.4788348730654,35.90515245683491L1024.6058211196214,179.86848760396242L1101.5231772512197,219.61427483707666Z" fill="#f9a059" stroke="#f9a059"></path><path d="M1150.4788348730654,35.90515245683491L1101.5231772512197,219.61427483707666L1249.2096352670342,212.15312543325126Z" fill="#f79855" stroke="#f79855"></path><path d="M1150.4788348730654,35.90515245683491L1249.2096352670342,212.15312543325126L1278.6648091021925,72.01263609342277Z" fill="#f39561" stroke="#f39561"></path><path d="M1278.6648091021925,72.01263609342277L1249.2096352670342,212.15312543325126L1373.7019039783627,174.66187736950815Z" fill="#ee8d56" stroke="#ee8d56"></path><path d="M1278.6648091021925,72.01263609342277L1373.7019039783627,174.66187736950815L1437.8877580258995,134.36840761452913Z" fill="#ea8a5d" stroke="#ea8a5d"></path><path d="M1437.8877580258995,134.36840761452913L1373.7019039783627,174.66187736950815L1526.3840953074396,221.44055075012147Z" fill="#e48252" stroke="#e48252"></path><path d="M1437.8877580258995,134.36840761452913L1526.3840953074396,221.44055075012147L1632.0153098367155,76.87699528411031Z" fill="#df7c5a" stroke="#df7c5a"></path><path d="M1632.0153098367155,76.87699528411031L1526.3840953074396,221.44055075012147L1724.1456054802984,215.449128029868Z" fill="#d87b54" stroke="#d87b54"></path><path d="M1632.0153098367155,76.87699528411031L1724.1456054802984,215.449128029868L1732.9602077510208,97.92666572146118Z" fill="#d47c5f" stroke="#d47c5f"></path><path d="M1732.9602077510208,97.92666572146118L1724.1456054802984,215.449128029868L1816.6068939585239,242.4896865338087Z" fill="#d07b52" stroke="#d07b52"></path><path d="M1732.9602077510208,97.92666572146118L1816.6068939585239,242.4896865338087L1912.3635323904455,26.207035453990102Z" fill="#cb7c62" stroke="#cb7c62"></path><path d="M1912.3635323904455,26.207035453990102L1816.6068939585239,242.4896865338087L2031.0414016898721,227.39290709607303Z" fill="#c57b58" stroke="#c57b58"></path><path d="M1912.3635323904455,26.207035453990102L2031.0414016898721,227.39290709607303L2040.3862499445677,39.48654594831169Z" fill="#c07d69" stroke="#c07d69"></path><path d="M2040.3862499445677,39.48654594831169L2031.0414016898721,227.39290709607303L2068.270137710497,824.3467270955443Z" fill="#bc5f40" stroke="#bc5f40"></path><path d="M-62.073512244969606,257.93638405390084L-123.58011650852859,465.3469732403755L-39.312453428283334,425.6230966653675Z" fill="#ffdb89" stroke="#ffdb89"></path><path d="M-62.073512244969606,257.93638405390084L-39.312453428283334,425.6230966653675L25.387128721922636,404.51234665699303Z" fill="#ffdf85" stroke="#ffdf85"></path><path d="M-62.073512244969606,257.93638405390084L25.387128721922636,404.51234665699303L119.88972502760589,174.92124977521598Z" fill="#ffec87" stroke="#ffec87"></path><path d="M119.88972502760589,174.92124977521598L25.387128721922636,404.51234665699303L204.3802576046437,386.25079843215644Z" fill="#ffdf79" stroke="#ffdf79"></path><path d="M119.88972502760589,174.92124977521598L204.3802576046437,386.25079843215644L274.3618412129581,171.77532526664436Z" fill="#ffe676" stroke="#ffe676"></path><path d="M274.3618412129581,171.77532526664436L204.3802576046437,386.25079843215644L423.2847243268043,263.629393754527Z" fill="#ffdb69" stroke="#ffdb69"></path><path d="M423.2847243268043,263.629393754527L204.3802576046437,386.25079843215644L397.2305407561362,385.45394914224744Z" fill="#ffcb5d" stroke="#ffcb5d"></path><path d="M423.2847243268043,263.629393754527L397.2305407561362,385.45394914224744L524.5717310998589,365.27101459912956Z" fill="#ffc457" stroke="#ffc457"></path><path d="M423.2847243268043,263.629393754527L524.5717310998589,365.27101459912956L563.3496536873281,214.91110308095813Z" fill="#ffca5a" stroke="#ffca5a"></path><path d="M563.3496536873281,214.91110308095813L524.5717310998589,365.27101459912956L664.0922858845443,211.01471613161266Z" fill="#fec658" stroke="#fec658"></path><path d="M664.0922858845443,211.01471613161266L524.5717310998589,365.27101459912956L731.2164635583758,409.5474573690444Z" fill="#feb650" stroke="#feb650"></path><path d="M664.0922858845443,211.01471613161266L731.2164635583758,409.5474573690444L805.7578474190086,382.1779305394739Z" fill="#feae4b" stroke="#feae4b"></path><path d="M664.0922858845443,211.01471613161266L805.7578474190086,382.1779305394739L879.8977131396532,167.97923281788826Z" fill="#feb851" stroke="#feb851"></path><path d="M879.8977131396532,167.97923281788826L805.7578474190086,382.1779305394739L985.1050139218569,339.73293229937553Z" fill="#fca549" stroke="#fca549"></path><path d="M879.8977131396532,167.97923281788826L985.1050139218569,339.73293229937553L1024.6058211196214,179.86848760396242Z" fill="#fba84c" stroke="#fba84c"></path><path d="M1024.6058211196214,179.86848760396242L985.1050139218569,339.73293229937553L1101.5231772512197,219.61427483707666Z" fill="#fa9e48" stroke="#fa9e48"></path><path d="M1101.5231772512197,219.61427483707666L985.1050139218569,339.73293229937553L1093.400859637186,388.8505144044757Z" fill="#f98f41" stroke="#f98f41"></path><path d="M1101.5231772512197,219.61427483707666L1093.400859637186,388.8505144044757L1249.2096352670342,212.15312543325126Z" fill="#f88d41" stroke="#f88d41"></path><path d="M1249.2096352670342,212.15312543325126L1093.400859637186,388.8505144044757L1285.75290187262,426.03029639460146Z" fill="#f47c3c" stroke="#f47c3c"></path><path d="M1249.2096352670342,212.15312543325126L1285.75290187262,426.03029639460146L1389.7609794326127,376.6940454393625Z" fill="#ed753d" stroke="#ed753d"></path><path d="M1249.2096352670342,212.15312543325126L1389.7609794326127,376.6940454393625L1373.7019039783627,174.66187736950815Z" fill="#eb8145" stroke="#eb8145"></path><path d="M1373.7019039783627,174.66187736950815L1389.7609794326127,376.6940454393625L1526.3840953074396,221.44055075012147Z" fill="#e57a45" stroke="#e57a45"></path><path d="M1526.3840953074396,221.44055075012147L1389.7609794326127,376.6940454393625L1571.3512405380607,428.6899767257273Z" fill="#e1663e" stroke="#e1663e"></path><path d="M1526.3840953074396,221.44055075012147L1571.3512405380607,428.6899767257273L1668.0122028943151,426.5287628956139Z" fill="#db603d" stroke="#db603d"></path><path d="M1526.3840953074396,221.44055075012147L1668.0122028943151,426.5287628956139L1724.1456054802984,215.449128029868Z" fill="#d76d44" stroke="#d76d44"></path><path d="M1724.1456054802984,215.449128029868L1668.0122028943151,426.5287628956139L1816.6068939585239,242.4896865338087Z" fill="#d16b44" stroke="#d16b44"></path><path d="M1816.6068939585239,242.4896865338087L1668.0122028943151,426.5287628956139L1921.6841872874647,359.78951602242887Z" fill="#cd6340" stroke="#cd6340"></path><path d="M1816.6068939585239,242.4896865338087L1921.6841872874647,359.78951602242887L2031.0414016898721,227.39290709607303Z" fill="#c56f47" stroke="#c56f47"></path><path d="M2031.0414016898721,227.39290709607303L1921.6841872874647,359.78951602242887L2031.9768043141812,425.7540087774396Z" fill="#c06442" stroke="#c06442"></path><path d="M2031.0414016898721,227.39290709607303L2031.9768043141812,425.7540087774396L2068.270137710497,824.3467270955443Z" fill="#bd4536" stroke="#bd4536"></path><path d="M-39.312453428283334,425.6230966653675L-123.58011650852859,465.3469732403755L-65.35738499835134,731.5650231018662Z" fill="#ffb97c" stroke="#ffb97c"></path><path d="M-39.312453428283334,425.6230966653675L-65.35738499835134,731.5650231018662L25.59177489951253,733.5610473621637Z" fill="#ffa570" stroke="#ffa570"></path><path d="M-39.312453428283334,425.6230966653675L25.59177489951253,733.5610473621637L101.90967947244644,476.537362318486Z" fill="#ffb670" stroke="#ffb670"></path><path d="M-39.312453428283334,425.6230966653675L101.90967947244644,476.537362318486L25.387128721922636,404.51234665699303Z" fill="#ffd079" stroke="#ffd079"></path><path d="M25.387128721922636,404.51234665699303L101.90967947244644,476.537362318486L204.3802576046437,386.25079843215644Z" fill="#ffcd71" stroke="#ffcd71"></path><path d="M204.3802576046437,386.25079843215644L101.90967947244644,476.537362318486L260.0652168318629,465.42951637879014Z" fill="#ffc366" stroke="#ffc366"></path><path d="M204.3802576046437,386.25079843215644L260.0652168318629,465.42951637879014L397.2305407561362,385.45394914224744Z" fill="#ffc35e" stroke="#ffc35e"></path><path d="M397.2305407561362,385.45394914224744L260.0652168318629,465.42951637879014L370.880533978343,482.67913294024765Z" fill="#ffb855" stroke="#ffb855"></path><path d="M397.2305407561362,385.45394914224744L370.880533978343,482.67913294024765L524.5717310998589,365.27101459912956Z" fill="#ffb951" stroke="#ffb951"></path><path d="M524.5717310998589,365.27101459912956L370.880533978343,482.67913294024765L485.8973917644471,582.4670805037022Z" fill="#ffa84b" stroke="#ffa84b"></path><path d="M524.5717310998589,365.27101459912956L485.8973917644471,582.4670805037022L633.7604266963899,563.7971588876098Z" fill="#ff9b45" stroke="#ff9b45"></path><path d="M524.5717310998589,365.27101459912956L633.7604266963899,563.7971588876098L731.2164635583758,409.5474573690444Z" fill="#fea246" stroke="#fea246"></path><path d="M731.2164635583758,409.5474573690444L633.7604266963899,563.7971588876098L796.604889119044,552.5110236089677Z" fill="#fe8c3d" stroke="#fe8c3d"></path><path d="M731.2164635583758,409.5474573690444L796.604889119044,552.5110236089677L805.7578474190086,382.1779305394739Z" fill="#fe9540" stroke="#fe9540"></path><path d="M805.7578474190086,382.1779305394739L796.604889119044,552.5110236089677L989.7600824665278,467.83011292107403Z" fill="#fd873b" stroke="#fd873b"></path><path d="M805.7578474190086,382.1779305394739L989.7600824665278,467.83011292107403L985.1050139218569,339.73293229937553Z" fill="#fc8f3e" stroke="#fc8f3e"></path><path d="M985.1050139218569,339.73293229937553L989.7600824665278,467.83011292107403L1093.400859637186,388.8505144044757Z" fill="#fa853b" stroke="#fa853b"></path><path d="M1093.400859637186,388.8505144044757L989.7600824665278,467.83011292107403L1179.7878693882376,488.4075052756816Z" fill="#f97435" stroke="#f97435"></path><path d="M1093.400859637186,388.8505144044757L1179.7878693882376,488.4075052756816L1285.75290187262,426.03029639460146Z" fill="#f56d34" stroke="#f56d34"></path><path d="M1285.75290187262,426.03029639460146L1179.7878693882376,488.4075052756816L1271.6431123763323,487.9733005631715Z" fill="#f26131" stroke="#f26131"></path><path d="M1285.75290187262,426.03029639460146L1271.6431123763323,487.9733005631715L1395.6798252370209,554.6447471994907Z" fill="#ed5730" stroke="#ed5730"></path><path d="M1285.75290187262,426.03029639460146L1395.6798252370209,554.6447471994907L1389.7609794326127,376.6940454393625Z" fill="#ea5c33" stroke="#ea5c33"></path><path d="M1389.7609794326127,376.6940454393625L1395.6798252370209,554.6447471994907L1571.3512405380607,428.6899767257273Z" fill="#e45434" stroke="#e45434"></path><path d="M1571.3512405380607,428.6899767257273L1395.6798252370209,554.6447471994907L1569.076494416222,517.1170600131154Z" fill="#e04531" stroke="#e04531"></path><path d="M1571.3512405380607,428.6899767257273L1569.076494416222,517.1170600131154L1666.2176331225783,496.216055592522Z" fill="#da4833" stroke="#da4833"></path><path d="M1571.3512405380607,428.6899767257273L1666.2176331225783,496.216055592522L1668.0122028943151,426.5287628956139Z" fill="#d84f36" stroke="#d84f36"></path><path d="M1668.0122028943151,426.5287628956139L1666.2176331225783,496.216055592522L1862.0248954184353,530.7459418103099Z" fill="#d14734" stroke="#d14734"></path><path d="M1668.0122028943151,426.5287628956139L1862.0248954184353,530.7459418103099L1921.6841872874647,359.78951602242887Z" fill="#cc5138" stroke="#cc5138"></path><path d="M1921.6841872874647,359.78951602242887L1862.0248954184353,530.7459418103099L2031.9768043141812,425.7540087774396Z" fill="#c45139" stroke="#c45139"></path><path d="M2031.9768043141812,425.7540087774396L1862.0248954184353,530.7459418103099L2032.020307481289,544.6097545512021Z" fill="#c14334" stroke="#c14334"></path><path d="M2031.9768043141812,425.7540087774396L2032.020307481289,544.6097545512021L2068.270137710497,824.3467270955443Z" fill="#bd2d2d" stroke="#bd2d2d"></path><path d="M-123.58011650852859,465.3469732403755L-118.59491961076856,765.4482790734619L-65.35738499835134,731.5650231018662Z" fill="#fea078" stroke="#fea078"></path><path d="M101.90967947244644,476.537362318486L25.59177489951253,733.5610473621637L269.28759433329105,664.1004426497966Z" fill="#ff9d5e" stroke="#ff9d5e"></path><path d="M101.90967947244644,476.537362318486L269.28759433329105,664.1004426497966L260.0652168318629,465.42951637879014Z" fill="#ffad5d" stroke="#ffad5d"></path><path d="M260.0652168318629,465.42951637879014L269.28759433329105,664.1004426497966L370.880533978343,482.67913294024765Z" fill="#ffa653" stroke="#ffa653"></path><path d="M370.880533978343,482.67913294024765L269.28759433329105,664.1004426497966L423.4712151065469,658.2336331252009Z" fill="#ff9448" stroke="#ff9448"></path><path d="M370.880533978343,482.67913294024765L423.4712151065469,658.2336331252009L485.8973917644471,582.4670805037022Z" fill="#ff9544" stroke="#ff9544"></path><path d="M485.8973917644471,582.4670805037022L423.4712151065469,658.2336331252009L532.4424433708191,703.8714436814189Z" fill="#fe803d" stroke="#fe803d"></path><path d="M485.8973917644471,582.4670805037022L532.4424433708191,703.8714436814189L633.7604266963899,563.7971588876098Z" fill="#ff813c" stroke="#ff813c"></path><path d="M633.7604266963899,563.7971588876098L532.4424433708191,703.8714436814189L719.6862230915576,629.854587726295Z" fill="#fe7738" stroke="#fe7738"></path><path d="M633.7604266963899,563.7971588876098L719.6862230915576,629.854587726295L796.604889119044,552.5110236089677Z" fill="#fe7b38" stroke="#fe7b38"></path><path d="M796.604889119044,552.5110236089677L719.6862230915576,629.854587726295L772.4800182972103,618.5956183355302Z" fill="#fe7334" stroke="#fe7334"></path><path d="M796.604889119044,552.5110236089677L772.4800182972103,618.5956183355302L956.8336479272693,617.1714601758868Z" fill="#fd6c32" stroke="#fd6c32"></path><path d="M796.604889119044,552.5110236089677L956.8336479272693,617.1714601758868L989.7600824665278,467.83011292107403Z" fill="#fc7033" stroke="#fc7033"></path><path d="M989.7600824665278,467.83011292107403L956.8336479272693,617.1714601758868L1179.7878693882376,488.4075052756816Z" fill="#fa6730" stroke="#fa6730"></path><path d="M1179.7878693882376,488.4075052756816L956.8336479272693,617.1714601758868L1125.4162402264774,710.7660206314176Z" fill="#f94f28" stroke="#f94f28"></path><path d="M1179.7878693882376,488.4075052756816L1125.4162402264774,710.7660206314176L1271.6431123763323,487.9733005631715Z" fill="#f54f2a" stroke="#f54f2a"></path><path d="M1271.6431123763323,487.9733005631715L1125.4162402264774,710.7660206314176L1323.8016020692885,727.300329208374Z" fill="#f23924" stroke="#f23924"></path><path d="M1271.6431123763323,487.9733005631715L1323.8016020692885,727.300329208374L1395.6798252370209,554.6447471994907Z" fill="#ec3f29" stroke="#ec3f29"></path><path d="M1395.6798252370209,554.6447471994907L1323.8016020692885,727.300329208374L1427.3605601023883,634.7855688538402Z" fill="#e82f25" stroke="#e82f25"></path><path d="M1395.6798252370209,554.6447471994907L1427.3605601023883,634.7855688538402L1569.076494416222,517.1170600131154Z" fill="#e3392b" stroke="#e3392b"></path><path d="M1569.076494416222,517.1170600131154L1427.3605601023883,634.7855688538402L1615.395949780941,696.47764778696Z" fill="#de2928" stroke="#de2928"></path><path d="M1569.076494416222,517.1170600131154L1615.395949780941,696.47764778696L1671.988900238648,636.7374659422785Z" fill="#d92828" stroke="#d92828"></path><path d="M1569.076494416222,517.1170600131154L1671.988900238648,636.7374659422785L1666.2176331225783,496.216055592522Z" fill="#d8382e" stroke="#d8382e"></path><path d="M1666.2176331225783,496.216055592522L1671.988900238648,636.7374659422785L1862.0248954184353,530.7459418103099Z" fill="#d1372e" stroke="#d1372e"></path><path d="M1862.0248954184353,530.7459418103099L1671.988900238648,636.7374659422785L1927.1034412365407,672.9869562294334Z" fill="#cb292a" stroke="#cb292a"></path><path d="M1862.0248954184353,530.7459418103099L1927.1034412365407,672.9869562294334L1971.5076980832964,623.9657049346715Z" fill="#c52a2c" stroke="#c52a2c"></path><path d="M1862.0248954184353,530.7459418103099L1971.5076980832964,623.9657049346715L2032.020307481289,544.6097545512021Z" fill="#c2342f" stroke="#c2342f"></path><path d="M2032.020307481289,544.6097545512021L1971.5076980832964,623.9657049346715L2068.270137710497,824.3467270955443Z" fill="#bc1f2b" stroke="#bc1f2b"></path><path d="M-65.35738499835134,731.5650231018662L-118.59491961076856,765.4482790734619L23.53661765344441,870.3409476298839Z" fill="#f58a75" stroke="#f58a75"></path><path d="M-65.35738499835134,731.5650231018662L23.53661765344441,870.3409476298839L25.59177489951253,733.5610473621637Z" fill="#f58c6f" stroke="#f58c6f"></path><path d="M25.59177489951253,733.5610473621637L23.53661765344441,870.3409476298839L255.72841652669013,847.5386704690754Z" fill="#f37f64" stroke="#f37f64"></path><path d="M25.59177489951253,733.5610473621637L255.72841652669013,847.5386704690754L269.28759433329105,664.1004426497966Z" fill="#f8855a" stroke="#f8855a"></path><path d="M269.28759433329105,664.1004426497966L255.72841652669013,847.5386704690754L405.4327747877687,854.3049631174654Z" fill="#f4764c" stroke="#f4764c"></path><path d="M269.28759433329105,664.1004426497966L405.4327747877687,854.3049631174654L465.8465267624706,767.8954074159265Z" fill="#f67644" stroke="#f67644"></path><path d="M269.28759433329105,664.1004426497966L465.8465267624706,767.8954074159265L423.4712151065469,658.2336331252009Z" fill="#fb8042" stroke="#fb8042"></path><path d="M423.4712151065469,658.2336331252009L465.8465267624706,767.8954074159265L532.4424433708191,703.8714436814189Z" fill="#fa763f" stroke="#fa763f"></path><path d="M532.4424433708191,703.8714436814189L465.8465267624706,767.8954074159265L713.6978235840797,785.4018909484148Z" fill="#f7673b" stroke="#f7673b"></path><path d="M532.4424433708191,703.8714436814189L713.6978235840797,785.4018909484148L719.6862230915576,629.854587726295Z" fill="#fa6837" stroke="#fa6837"></path><path d="M719.6862230915576,629.854587726295L713.6978235840797,785.4018909484148L772.4800182972103,618.5956183355302Z" fill="#fc6633" stroke="#fc6633"></path><path d="M772.4800182972103,618.5956183355302L713.6978235840797,785.4018909484148L950.0445097312331,813.347358154133Z" fill="#f75531" stroke="#f75531"></path><path d="M772.4800182972103,618.5956183355302L950.0445097312331,813.347358154133L956.8336479272693,617.1714601758868Z" fill="#f9552d" stroke="#f9552d"></path><path d="M956.8336479272693,617.1714601758868L950.0445097312331,813.347358154133L1125.4162402264774,710.7660206314176Z" fill="#f54329" stroke="#f54329"></path><path d="M1125.4162402264774,710.7660206314176L950.0445097312331,813.347358154133L1082.5715212058276,849.7236934583634Z" fill="#ef3229" stroke="#ef3229"></path><path d="M1125.4162402264774,710.7660206314176L1082.5715212058276,849.7236934583634L1241.457389127463,875.7245937176049Z" fill="#ec2426" stroke="#ec2426"></path><path d="M1125.4162402264774,710.7660206314176L1241.457389127463,875.7245937176049L1323.8016020692885,727.300329208374Z" fill="#e92526" stroke="#e92526"></path><path d="M1323.8016020692885,727.300329208374L1241.457389127463,875.7245937176049L1429.7801971435547,823.503745989874Z" fill="#e01728" stroke="#e01728"></path><path d="M1323.8016020692885,727.300329208374L1429.7801971435547,823.503745989874L1427.3605601023883,634.7855688538402Z" fill="#e12027" stroke="#e12027"></path><path d="M1427.3605601023883,634.7855688538402L1429.7801971435547,823.503745989874L1583.7123414874077,798.5796888079494Z" fill="#da1528" stroke="#da1528"></path><path d="M1427.3605601023883,634.7855688538402L1583.7123414874077,798.5796888079494L1615.395949780941,696.47764778696Z" fill="#d91827" stroke="#d91827"></path><path d="M1615.395949780941,696.47764778696L1583.7123414874077,798.5796888079494L1692.7762645762414,831.844913335517Z" fill="#ce0d29" stroke="#ce0d29"></path><path d="M1615.395949780941,696.47764778696L1692.7762645762414,831.844913335517L1671.988900238648,636.7374659422785Z" fill="#d01629" stroke="#d01629"></path><path d="M1671.988900238648,636.7374659422785L1692.7762645762414,831.844913335517L1927.1034412365407,672.9869562294334Z" fill="#ca1729" stroke="#ca1729"></path><path d="M1927.1034412365407,672.9869562294334L1692.7762645762414,831.844913335517L1911.9716577138752,811.5265231858939Z" fill="#c00d2b" stroke="#c00d2b"></path><path d="M1927.1034412365407,672.9869562294334L1911.9716577138752,811.5265231858939L2068.270137710497,824.3467270955443Z" fill="#b80e2c" stroke="#b80e2c"></path><path d="M1927.1034412365407,672.9869562294334L2068.270137710497,824.3467270955443L1971.5076980832964,623.9657049346715Z" fill="#bb182b" stroke="#bb182b"></path><path d="M-118.59491961076856,765.4482790734619L-111.02029211819172,988.8098074961454L23.53661765344441,870.3409476298839Z" fill="#ef8078" stroke="#ef8078"></path><path d="M23.53661765344441,870.3409476298839L-111.02029211819172,988.8098074961454L34.96692809276283,971.0149823036045Z" fill="#ea8073" stroke="#ea8073"></path><path d="M23.53661765344441,870.3409476298839L34.96692809276283,971.0149823036045L255.72841652669013,847.5386704690754Z" fill="#ed7965" stroke="#ed7965"></path><path d="M255.72841652669013,847.5386704690754L34.96692809276283,971.0149823036045L230.623716423288,1022.7849392965436Z" fill="#ea745e" stroke="#ea745e"></path><path d="M255.72841652669013,847.5386704690754L230.623716423288,1022.7849392965436L415.76747621409595,973.163000587374Z" fill="#e96c50" stroke="#e96c50"></path><path d="M255.72841652669013,847.5386704690754L415.76747621409595,973.163000587374L405.4327747877687,854.3049631174654Z" fill="#ed6848" stroke="#ed6848"></path><path d="M405.4327747877687,854.3049631174654L415.76747621409595,973.163000587374L560.398407233879,1017.9432713147253Z" fill="#e96043" stroke="#e96043"></path><path d="M405.4327747877687,854.3049631174654L560.398407233879,1017.9432713147253L465.8465267624706,767.8954074159265Z" fill="#ee5f41" stroke="#ee5f41"></path><path d="M465.8465267624706,767.8954074159265L560.398407233879,1017.9432713147253L713.6978235840797,785.4018909484148Z" fill="#ef563d" stroke="#ef563d"></path><path d="M713.6978235840797,785.4018909484148L560.398407233879,1017.9432713147253L698.8374094292521,971.1714119743556Z" fill="#ea503a" stroke="#ea503a"></path><path d="M713.6978235840797,785.4018909484148L698.8374094292521,971.1714119743556L845.8955174311996,949.7403203509748Z" fill="#ec4836" stroke="#ec4836"></path><path d="M713.6978235840797,785.4018909484148L845.8955174311996,949.7403203509748L871.1638755351305,882.0664028730243Z" fill="#ed4234" stroke="#ed4234"></path><path d="M713.6978235840797,785.4018909484148L871.1638755351305,882.0664028730243L950.0445097312331,813.347358154133Z" fill="#f04331" stroke="#f04331"></path><path d="M871.1638755351305,882.0664028730243L845.8955174311996,949.7403203509748L919.0914401225746,1031.7858492862433Z" fill="#e63b32" stroke="#e63b32"></path><path d="M871.1638755351305,882.0664028730243L919.0914401225746,1031.7858492862433L950.0445097312331,813.347358154133Z" fill="#e93730" stroke="#e93730"></path><path d="M950.0445097312331,813.347358154133L919.0914401225746,1031.7858492862433L1082.5715212058276,849.7236934583634Z" fill="#e8302e" stroke="#e8302e"></path><path d="M1082.5715212058276,849.7236934583634L919.0914401225746,1031.7858492862433L1112.3768373951316,982.1667068917304Z" fill="#e42a2c" stroke="#e42a2c"></path><path d="M1082.5715212058276,849.7236934583634L1112.3768373951316,982.1667068917304L1241.457389127463,875.7245937176049Z" fill="#e51e28" stroke="#e51e28"></path><path d="M1241.457389127463,875.7245937176049L1112.3768373951316,982.1667068917304L1292.7376410830766,989.7267685364932Z" fill="#de1929" stroke="#de1929"></path><path d="M1241.457389127463,875.7245937176049L1292.7376410830766,989.7267685364932L1429.7801971435547,823.503745989874Z" fill="#db1129" stroke="#db1129"></path><path d="M1429.7801971435547,823.503745989874L1292.7376410830766,989.7267685364932L1482.8465761989355,1034.7528169211Z" fill="#d10b2a" stroke="#d10b2a"></path><path d="M1429.7801971435547,823.503745989874L1482.8465761989355,1034.7528169211L1590.9107267763466,972.4448211025447Z" fill="#cb032b" stroke="#cb032b"></path><path d="M1429.7801971435547,823.503745989874L1590.9107267763466,972.4448211025447L1583.7123414874077,798.5796888079494Z" fill="#ce002a" stroke="#ce002a"></path><path d="M1583.7123414874077,798.5796888079494L1590.9107267763466,972.4448211025447L1692.7762645762414,831.844913335517Z" fill="#c9002b" stroke="#c9002b"></path><path d="M1692.7762645762414,831.844913335517L1590.9107267763466,972.4448211025447L1717.5935617089272,1009.9191330559552Z" fill="#c1002c" stroke="#c1002c"></path><path d="M1692.7762645762414,831.844913335517L1717.5935617089272,1009.9191330559552L1911.9716577138752,811.5265231858939Z" fill="#bd002c" stroke="#bd002c"></path><path d="M1911.9716577138752,811.5265231858939L1717.5935617089272,1009.9191330559552L1910.167594794184,1012.3749652504921Z" fill="#b4002e" stroke="#b4002e"></path><path d="M1911.9716577138752,811.5265231858939L1910.167594794184,1012.3749652504921L2060.3725300636142,920.452110785991Z" fill="#af002e" stroke="#af002e"></path><path d="M1911.9716577138752,811.5265231858939L2060.3725300636142,920.452110785991L2068.270137710497,824.3467270955443Z" fill="#b0002d" stroke="#b0002d"></path><path d="M2068.270137710497,824.3467270955443L2060.3725300636142,920.452110785991L2052.9260919895023,1321.831114673987Z" fill="#a00031" stroke="#a00031"></path><path d="M-111.02029211819172,988.8098074961454L-95.1393945235759,1332.2080372832716L-101.37399475090206,1105.0688037648797Z" fill="#dc8080" stroke="#dc8080"></path><path d="M-111.02029211819172,988.8098074961454L-101.37399475090206,1105.0688037648797L34.96692809276283,971.0149823036045Z" fill="#e48079" stroke="#e48079"></path><path d="M34.96692809276283,971.0149823036045L-101.37399475090206,1105.0688037648797L51.20066958479583,1117.879526624456Z" fill="#e18074" stroke="#e18074"></path><path d="M34.96692809276283,971.0149823036045L51.20066958479583,1117.879526624456L230.623716423288,1022.7849392965436Z" fill="#e37967" stroke="#e37967"></path><path d="M230.623716423288,1022.7849392965436L51.20066958479583,1117.879526624456L193.5790714994073,1152.2079703956842Z" fill="#df7562" stroke="#df7562"></path><path d="M230.623716423288,1022.7849392965436L193.5790714994073,1152.2079703956842L388.20356911048293,1067.7130615711212Z" fill="#e06e55" stroke="#e06e55"></path><path d="M230.623716423288,1022.7849392965436L388.20356911048293,1067.7130615711212L415.76747621409595,973.163000587374Z" fill="#e4694c" stroke="#e4694c"></path><path d="M415.76747621409595,973.163000587374L388.20356911048293,1067.7130615711212L477.986417748034,1116.0082039888948Z" fill="#e26346" stroke="#e26346"></path><path d="M415.76747621409595,973.163000587374L477.986417748034,1116.0082039888948L560.398407233879,1017.9432713147253Z" fill="#e35e44" stroke="#e35e44"></path><path d="M560.398407233879,1017.9432713147253L477.986417748034,1116.0082039888948L642.14893813245,1180.3160320501775Z" fill="#de5841" stroke="#de5841"></path><path d="M560.398407233879,1017.9432713147253L642.14893813245,1180.3160320501775L698.8374094292521,971.1714119743556Z" fill="#e1523e" stroke="#e1523e"></path><path d="M698.8374094292521,971.1714119743556L642.14893813245,1180.3160320501775L831.34027345106,1071.734234271571Z" fill="#e04a3a" stroke="#e04a3a"></path><path d="M698.8374094292521,971.1714119743556L831.34027345106,1071.734234271571L845.8955174311996,949.7403203509748Z" fill="#e54436" stroke="#e54436"></path><path d="M845.8955174311996,949.7403203509748L831.34027345106,1071.734234271571L919.0914401225746,1031.7858492862433Z" fill="#e23c34" stroke="#e23c34"></path><path d="M919.0914401225746,1031.7858492862433L831.34027345106,1071.734234271571L961.7355662584305,1117.4208197928965Z" fill="#dd3833" stroke="#dd3833"></path><path d="M919.0914401225746,1031.7858492862433L961.7355662584305,1117.4208197928965L1112.3768373951316,982.1667068917304Z" fill="#de2e2f" stroke="#de2e2f"></path><path d="M1112.3768373951316,982.1667068917304L961.7355662584305,1117.4208197928965L1098.3413910213858,1178.5818626917899Z" fill="#d9282e" stroke="#d9282e"></path><path d="M1112.3768373951316,982.1667068917304L1098.3413910213858,1178.5818626917899L1277.5244492199272,1182.9809017293155Z" fill="#d61d2b" stroke="#d61d2b"></path><path d="M1112.3768373951316,982.1667068917304L1277.5244492199272,1182.9809017293155L1292.7376410830766,989.7267685364932Z" fill="#d6182b" stroke="#d6182b"></path><path d="M1292.7376410830766,989.7267685364932L1277.5244492199272,1182.9809017293155L1437.3080578632653,1154.9099415913224Z" fill="#cb102c" stroke="#cb102c"></path><path d="M1292.7376410830766,989.7267685364932L1437.3080578632653,1154.9099415913224L1482.8465761989355,1034.7528169211Z" fill="#c90a2c" stroke="#c90a2c"></path><path d="M1482.8465761989355,1034.7528169211L1437.3080578632653,1154.9099415913224L1632.2184719704092,1112.5976111367345Z" fill="#bf022e" stroke="#bf022e"></path><path d="M1482.8465761989355,1034.7528169211L1632.2184719704092,1112.5976111367345L1590.9107267763466,972.4448211025447Z" fill="#c0002d" stroke="#c0002d"></path><path d="M1590.9107267763466,972.4448211025447L1632.2184719704092,1112.5976111367345L1717.5935617089272,1009.9191330559552Z" fill="#bb002e" stroke="#bb002e"></path><path d="M1717.5935617089272,1009.9191330559552L1632.2184719704092,1112.5976111367345L1667.3504865914583,1165.9921239037067Z" fill="#b5002f" stroke="#b5002f"></path><path d="M1717.5935617089272,1009.9191330559552L1667.3504865914583,1165.9921239037067L1879.2044196277857,1174.7073346562684Z" fill="#ae0030" stroke="#ae0030"></path><path d="M1717.5935617089272,1009.9191330559552L1879.2044196277857,1174.7073346562684L1910.167594794184,1012.3749652504921Z" fill="#ac0030" stroke="#ac0030"></path><path d="M1910.167594794184,1012.3749652504921L1879.2044196277857,1174.7073346562684L2037.1781094465405,1177.0223970897496Z" fill="#a10031" stroke="#a10031"></path><path d="M1910.167594794184,1012.3749652504921L2037.1781094465405,1177.0223970897496L2060.3725300636142,920.452110785991Z" fill="#a30030" stroke="#a30030"></path><path d="M2060.3725300636142,920.452110785991L2037.1781094465405,1177.0223970897496L2052.9260919895023,1321.831114673987Z" fill="#990032" stroke="#990032"></path><path d="M-101.37399475090206,1105.0688037648797L-95.1393945235759,1332.2080372832716L51.20066958479583,1117.879526624456Z" fill="#d9807b" stroke="#d9807b"></path><path d="M51.20066958479583,1117.879526624456L-95.1393945235759,1332.2080372832716L121.34936059825122,1258.4031711425632Z" fill="#d57e73" stroke="#d57e73"></path><path d="M51.20066958479583,1117.879526624456L121.34936059825122,1258.4031711425632L193.5790714994073,1152.2079703956842Z" fill="#d97868" stroke="#d97868"></path><path d="M193.5790714994073,1152.2079703956842L121.34936059825122,1258.4031711425632L190.06674234755337,1325.4688638076186Z" fill="#d57563" stroke="#d57563"></path><path d="M193.5790714994073,1152.2079703956842L190.06674234755337,1325.4688638076186L375.15054599381983,1289.4278102461249Z" fill="#d36f5a" stroke="#d36f5a"></path><path d="M193.5790714994073,1152.2079703956842L375.15054599381983,1289.4278102461249L388.20356911048293,1067.7130615711212Z" fill="#d96b51" stroke="#d96b51"></path><path d="M388.20356911048293,1067.7130615711212L375.15054599381983,1289.4278102461249L477.986417748034,1116.0082039888948Z" fill="#da6449" stroke="#da6449"></path><path d="M477.986417748034,1116.0082039888948L375.15054599381983,1289.4278102461249L524.1470239218324,1303.9224955346435Z" fill="#d56048" stroke="#d56048"></path><path d="M477.986417748034,1116.0082039888948L524.1470239218324,1303.9224955346435L642.14893813245,1180.3160320501775Z" fill="#d75943" stroke="#d75943"></path><path d="M642.14893813245,1180.3160320501775L524.1470239218324,1303.9224955346435L694.2214735876769,1277.471096003428Z" fill="#d35341" stroke="#d35341"></path><path d="M642.14893813245,1180.3160320501775L694.2214735876769,1277.471096003428L863.0941620189697,1250.589062590152Z" fill="#d44a3d" stroke="#d44a3d"></path><path d="M642.14893813245,1180.3160320501775L863.0941620189697,1250.589062590152L831.34027345106,1071.734234271571Z" fill="#d94639" stroke="#d94639"></path><path d="M831.34027345106,1071.734234271571L863.0941620189697,1250.589062590152L961.7355662584305,1117.4208197928965Z" fill="#d93a35" stroke="#d93a35"></path><path d="M961.7355662584305,1117.4208197928965L863.0941620189697,1250.589062590152L968.7997879553586,1239.75620476529Z" fill="#d43535" stroke="#d43535"></path><path d="M961.7355662584305,1117.4208197928965L968.7997879553586,1239.75620476529L1098.3413910213858,1178.5818626917899Z" fill="#d42d31" stroke="#d42d31"></path><path d="M1098.3413910213858,1178.5818626917899L968.7997879553586,1239.75620476529L1163.8200344145298,1289.782397216186Z" fill="#cf2630" stroke="#cf2630"></path><path d="M1098.3413910213858,1178.5818626917899L1163.8200344145298,1289.782397216186L1277.5244492199272,1182.9809017293155Z" fill="#cd1c2d" stroke="#cd1c2d"></path><path d="M1277.5244492199272,1182.9809017293155L1163.8200344145298,1289.782397216186L1295.9483908116817,1265.2361075766385Z" fill="#c7172e" stroke="#c7172e"></path><path d="M1277.5244492199272,1182.9809017293155L1295.9483908116817,1265.2361075766385L1437.3080578632653,1154.9099415913224Z" fill="#c4102e" stroke="#c4102e"></path><path d="M1437.3080578632653,1154.9099415913224L1295.9483908116817,1265.2361075766385L1451.4570456091315,1256.1087462957948Z" fill="#be0b2f" stroke="#be0b2f"></path><path d="M1437.3080578632653,1154.9099415913224L1451.4570456091315,1256.1087462957948L1610.5651283729821,1237.9433755204082Z" fill="#b8032f" stroke="#b8032f"></path><path d="M1437.3080578632653,1154.9099415913224L1610.5651283729821,1237.9433755204082L1632.2184719704092,1112.5976111367345Z" fill="#b7002f" stroke="#b7002f"></path><path d="M1632.2184719704092,1112.5976111367345L1610.5651283729821,1237.9433755204082L1667.3504865914583,1165.9921239037067Z" fill="#b20030" stroke="#b20030"></path><path d="M1667.3504865914583,1165.9921239037067L1610.5651283729821,1237.9433755204082L1771.1908195819706,1234.6568312868476Z" fill="#ac0031" stroke="#ac0031"></path><path d="M1667.3504865914583,1165.9921239037067L1771.1908195819706,1234.6568312868476L1879.2044196277857,1174.7073346562684Z" fill="#a80031" stroke="#a80031"></path><path d="M1879.2044196277857,1174.7073346562684L1771.1908195819706,1234.6568312868476L1865.4964208509773,1235.5274253711104Z" fill="#a20032" stroke="#a20032"></path><path d="M1879.2044196277857,1174.7073346562684L1865.4964208509773,1235.5274253711104L2037.1781094465405,1177.0223970897496Z" fill="#9d0032" stroke="#9d0032"></path><path d="M2037.1781094465405,1177.0223970897496L1865.4964208509773,1235.5274253711104L2052.9260919895023,1321.831114673987Z" fill="#960034" stroke="#960034"></path><path d="M-95.1393945235759,1332.2080372832716L2052.9260919895023,1321.831114673987L190.06674234755337,1325.4688638076186Z" fill="#ce4b3f" stroke="#ce4b3f"></path><path d="M-95.1393945235759,1332.2080372832716L190.06674234755337,1325.4688638076186L121.34936059825122,1258.4031711425632Z" fill="#d07b6f" stroke="#d07b6f"></path><path d="M190.06674234755337,1325.4688638076186L2052.9260919895023,1321.831114673987L1163.8200344145298,1289.782397216186Z" fill="#c9202f" stroke="#c9202f"></path><path d="M190.06674234755337,1325.4688638076186L1163.8200344145298,1289.782397216186L524.1470239218324,1303.9224955346435Z" fill="#cf5242" stroke="#cf5242"></path><path d="M190.06674234755337,1325.4688638076186L524.1470239218324,1303.9224955346435L375.15054599381983,1289.4278102461249Z" fill="#d0684f" stroke="#d0684f"></path><path d="M524.1470239218324,1303.9224955346435L1163.8200344145298,1289.782397216186L694.2214735876769,1277.471096003428Z" fill="#d0443b" stroke="#d0443b"></path><path d="M694.2214735876769,1277.471096003428L1163.8200344145298,1289.782397216186L863.0941620189697,1250.589062590152Z" fill="#cf3837" stroke="#cf3837"></path><path d="M863.0941620189697,1250.589062590152L1163.8200344145298,1289.782397216186L968.7997879553586,1239.75620476529Z" fill="#cf2e33" stroke="#cf2e33"></path><path d="M1163.8200344145298,1289.782397216186L2052.9260919895023,1321.831114673987L1451.4570456091315,1256.1087462957948Z" fill="#af0031" stroke="#af0031"></path><path d="M1163.8200344145298,1289.782397216186L1451.4570456091315,1256.1087462957948L1295.9483908116817,1265.2361075766385Z" fill="#c1122f" stroke="#c1122f"></path><path d="M1451.4570456091315,1256.1087462957948L2052.9260919895023,1321.831114673987L1610.5651283729821,1237.9433755204082Z" fill="#a70032" stroke="#a70032"></path><path d="M1610.5651283729821,1237.9433755204082L2052.9260919895023,1321.831114673987L1771.1908195819706,1234.6568312868476Z" fill="#a00033" stroke="#a00033"></path><path d="M1771.1908195819706,1234.6568312868476L2052.9260919895023,1321.831114673987L1865.4964208509773,1235.5274253711104Z" fill="#9a0034" stroke="#9a0034"></path></g></svg>