<svg width="1920" height="1065" xmlns="http://www.w3.org/2000/svg"><g><path d="M-90.67978399805725,-28.01448899321258L-134.32244528084993,959.7619729209691L-105.61336730606854,425.4229674395174Z" fill="#cae6fc" stroke="#cae6fc"></path><path d="M-90.67978399805725,-28.01448899321258L-105.61336730606854,425.4229674395174L-52.91412807069719,220.6149966828525Z" fill="#fdfcff" stroke="#fdfcff"></path><path d="M-90.67978399805725,-28.01448899321258L-52.91412807069719,220.6149966828525L-36.00631766952574,52.89599231444299Z" fill="#fffdff" stroke="#fffdff"></path><path d="M-90.67978399805725,-28.01448899321258L-36.00631766952574,52.89599231444299L41.76269939169288,-70.43782018125057Z" fill="#fffcfe" stroke="#fffcfe"></path><path d="M41.76269939169288,-70.43782018125057L-36.00631766952574,52.89599231444299L107.21652592532337,40.78980912454426Z" fill="#fefafc" stroke="#fefafc"></path><path d="M41.76269939169288,-70.43782018125057L107.21652592532337,40.78980912454426L178.4878065995872,-19.01784360408783Z" fill="#faf7fb" stroke="#faf7fb"></path><path d="M41.76269939169288,-70.43782018125057L178.4878065995872,-19.01784360408783L316.55796345323324,-102.62784420512617Z" fill="#f7f5f9" stroke="#f7f5f9"></path><path d="M178.4878065995872,-19.01784360408783L107.21652592532337,40.78980912454426L185.32845066860318,82.48064682818949Z" fill="#f8f5fa" stroke="#f8f5fa"></path><path d="M178.4878065995872,-19.01784360408783L185.32845066860318,82.48064682818949L380.1204058807343,44.79375039227307Z" fill="#f3f1f8" stroke="#f3f1f8"></path><path d="M178.4878065995872,-19.01784360408783L380.1204058807343,44.79375039227307L316.55796345323324,-102.62784420512617Z" fill="#f1eff7" stroke="#f1eff7"></path><path d="M316.55796345323324,-102.62784420512617L380.1204058807343,44.79375039227307L504.66169215738773,-87.0156286843121Z" fill="#e9eaf3" stroke="#e9eaf3"></path><path d="M316.55796345323324,-102.62784420512617L504.66169215738773,-87.0156286843121L695.5457821022719,-133.18564614281058Z" fill="#e0e5f1" stroke="#e0e5f1"></path><path d="M504.66169215738773,-87.0156286843121L380.1204058807343,44.79375039227307L572.3071277327836,133.0142411403358Z" fill="#e2e5f1" stroke="#e2e5f1"></path><path d="M504.66169215738773,-87.0156286843121L572.3071277327836,133.0142411403358L702.0535266492516,29.137404542416334Z" fill="#d7e0ee" stroke="#d7e0ee"></path><path d="M504.66169215738773,-87.0156286843121L702.0535266492516,29.137404542416334L695.5457821022719,-133.18564614281058Z" fill="#d3dfed" stroke="#d3dfed"></path><path d="M695.5457821022719,-133.18564614281058L702.0535266492516,29.137404542416334L791.7326623946428,-68.56239940971136Z" fill="#c8daeb" stroke="#c8daeb"></path><path d="M695.5457821022719,-133.18564614281058L791.7326623946428,-68.56239940971136L990.3549601882696,-63.91519465483725Z" fill="#bdd6e8" stroke="#bdd6e8"></path><path d="M695.5457821022719,-133.18564614281058L990.3549601882696,-63.91519465483725L1304.1219118516892,-122.08755919709802Z" fill="#a5cce2" stroke="#a5cce2"></path><path d="M695.5457821022719,-133.18564614281058L1304.1219118516892,-122.08755919709802L1388.2880537677556,-121.58824120648205Z" fill="#94c3dd" stroke="#94c3dd"></path><path d="M791.7326623946428,-68.56239940971136L702.0535266492516,29.137404542416334L851.6902236174792,95.31877029687166Z" fill="#c2d8e9" stroke="#c2d8e9"></path><path d="M791.7326623946428,-68.56239940971136L851.6902236174792,95.31877029687166L978.7070640921593,18.13167250715196Z" fill="#b7d3e7" stroke="#b7d3e7"></path><path d="M791.7326623946428,-68.56239940971136L978.7070640921593,18.13167250715196L990.3549601882696,-63.91519465483725Z" fill="#b0d0e5" stroke="#b0d0e5"></path><path d="M990.3549601882696,-63.91519465483725L978.7070640921593,18.13167250715196L1112.5046499911696,-51.91446983255446Z" fill="#a0cae1" stroke="#a0cae1"></path><path d="M990.3549601882696,-63.91519465483725L1112.5046499911696,-51.91446983255446L1304.1219118516892,-122.08755919709802Z" fill="#93c3dd" stroke="#93c3dd"></path><path d="M1112.5046499911696,-51.91446983255446L978.7070640921593,18.13167250715196L1177.418063459918,62.723087472841144Z" fill="#98c6df" stroke="#98c6df"></path><path d="M1112.5046499911696,-51.91446983255446L1177.418063459918,62.723087472841144L1244.673948744312,69.17028721421957Z" fill="#8ebfdc" stroke="#8ebfdc"></path><path d="M1112.5046499911696,-51.91446983255446L1244.673948744312,69.17028721421957L1304.1219118516892,-122.08755919709802Z" fill="#89bcda" stroke="#89bcda"></path><path d="M1304.1219118516892,-122.08755919709802L1244.673948744312,69.17028721421957L1460.256456406787,27.038793163374066Z" fill="#82b5d3" stroke="#82b5d3"></path><path d="M1304.1219118516892,-122.08755919709802L1460.256456406787,27.038793163374066L1388.2880537677556,-121.58824120648205Z" fill="#82b2cf" stroke="#82b2cf"></path><path d="M1388.2880537677556,-121.58824120648205L1460.256456406787,27.038793163374066L1534.2007589433342,-41.62930000573397Z" fill="#82aec9" stroke="#82aec9"></path><path d="M1388.2880537677556,-121.58824120648205L1534.2007589433342,-41.62930000573397L1764.6602213568985,-43.468160005286336Z" fill="#81a7be" stroke="#81a7be"></path><path d="M1388.2880537677556,-121.58824120648205L1764.6602213568985,-43.468160005286336L2058.3173426706344,-22.29782913811505Z" fill="#8199a8" stroke="#8199a8"></path><path d="M1534.2007589433342,-41.62930000573397L1460.256456406787,27.038793163374066L1540.1218912750483,40.489520486444235Z" fill="#82abc4" stroke="#82abc4"></path><path d="M1534.2007589433342,-41.62930000573397L1540.1218912750483,40.489520486444235L1699.3683411553502,51.4934454113245Z" fill="#81a5ba" stroke="#81a5ba"></path><path d="M1534.2007589433342,-41.62930000573397L1699.3683411553502,51.4934454113245L1764.6602213568985,-43.468160005286336Z" fill="#819fb1" stroke="#819fb1"></path><path d="M1764.6602213568985,-43.468160005286336L1699.3683411553502,51.4934454113245L1824.3966593407094,-32.055376432836056Z" fill="#8097a5" stroke="#8097a5"></path><path d="M1764.6602213568985,-43.468160005286336L1824.3966593407094,-32.055376432836056L2058.3173426706344,-22.29782913811505Z" fill="#808e96" stroke="#808e96"></path><path d="M1824.3966593407094,-32.055376432836056L1699.3683411553502,51.4934454113245L1819.707690468058,127.91157823987305Z" fill="#8096a2" stroke="#8096a2"></path><path d="M1824.3966593407094,-32.055376432836056L1819.707690468058,127.91157823987305L2013.5980135481805,44.687785897403955Z" fill="#808d95" stroke="#808d95"></path><path d="M1824.3966593407094,-32.055376432836056L2013.5980135481805,44.687785897403955L2058.3173426706344,-22.29782913811505Z" fill="#80878c" stroke="#80878c"></path><path d="M2058.3173426706344,-22.29782913811505L2013.5980135481805,44.687785897403955L2043.6031591426581,197.78494158759713Z" fill="#808183" stroke="#808183"></path><path d="M2058.3173426706344,-22.29782913811505L2043.6031591426581,197.78494158759713L2032.881363015622,702.1921237092465Z" fill="#707882" stroke="#707882"></path><path d="M2058.3173426706344,-22.29782913811505L2032.881363015622,702.1921237092465L2059.914214583114,1319.3466830067337Z" fill="#174a6e" stroke="#174a6e"></path><path d="M-36.00631766952574,52.89599231444299L-52.91412807069719,220.6149966828525L123.91198145225644,233.63553626462817Z" fill="#fdf9fd" stroke="#fdf9fd"></path><path d="M-36.00631766952574,52.89599231444299L123.91198145225644,233.63553626462817L107.21652592532337,40.78980912454426Z" fill="#fcf9fc" stroke="#fcf9fc"></path><path d="M107.21652592532337,40.78980912454426L123.91198145225644,233.63553626462817L185.32845066860318,82.48064682818949Z" fill="#f9f6fa" stroke="#f9f6fa"></path><path d="M185.32845066860318,82.48064682818949L123.91198145225644,233.63553626462817L247.36098267138004,243.7642406579107Z" fill="#f5f3f9" stroke="#f5f3f9"></path><path d="M185.32845066860318,82.48064682818949L247.36098267138004,243.7642406579107L380.1204058807343,44.79375039227307Z" fill="#f2f0f7" stroke="#f2f0f7"></path><path d="M380.1204058807343,44.79375039227307L247.36098267138004,243.7642406579107L410.9270741790533,189.8384036589414Z" fill="#ecebf5" stroke="#ecebf5"></path><path d="M380.1204058807343,44.79375039227307L410.9270741790533,189.8384036589414L572.3071277327836,133.0142411403358Z" fill="#e5e7f2" stroke="#e5e7f2"></path><path d="M572.3071277327836,133.0142411403358L410.9270741790533,189.8384036589414L521.2150372378528,278.99920457974076Z" fill="#dee3f1" stroke="#dee3f1"></path><path d="M572.3071277327836,133.0142411403358L521.2150372378528,278.99920457974076L632.5227782595903,204.63970804587007Z" fill="#d7dfef" stroke="#d7dfef"></path><path d="M572.3071277327836,133.0142411403358L632.5227782595903,204.63970804587007L702.0535266492516,29.137404542416334Z" fill="#d3deed" stroke="#d3deed"></path><path d="M702.0535266492516,29.137404542416334L632.5227782595903,204.63970804587007L851.6902236174792,95.31877029687166Z" fill="#c8daeb" stroke="#c8daeb"></path><path d="M851.6902236174792,95.31877029687166L632.5227782595903,204.63970804587007L767.3377613537014,269.5615196786821Z" fill="#c4d7ea" stroke="#c4d7ea"></path><path d="M851.6902236174792,95.31877029687166L767.3377613537014,269.5615196786821L1030.5236588884145,227.2355941683054Z" fill="#b3d1e6" stroke="#b3d1e6"></path><path d="M851.6902236174792,95.31877029687166L1030.5236588884145,227.2355941683054L978.7070640921593,18.13167250715196Z" fill="#abcee4" stroke="#abcee4"></path><path d="M978.7070640921593,18.13167250715196L1030.5236588884145,227.2355941683054L1177.418063459918,62.723087472841144Z" fill="#9bc8e0" stroke="#9bc8e0"></path><path d="M1177.418063459918,62.723087472841144L1030.5236588884145,227.2355941683054L1177.023180546239,202.08843156695366Z" fill="#92c2dd" stroke="#92c2dd"></path><path d="M1177.418063459918,62.723087472841144L1177.023180546239,202.08843156695366L1244.673948744312,69.17028721421957Z" fill="#8bbedb" stroke="#8bbedb"></path><path d="M1244.673948744312,69.17028721421957L1177.023180546239,202.08843156695366L1315.4907610360533,191.16214122623205Z" fill="#85b9d9" stroke="#85b9d9"></path><path d="M1244.673948744312,69.17028721421957L1315.4907610360533,191.16214122623205L1460.256456406787,27.038793163374066Z" fill="#82b5d3" stroke="#82b5d3"></path><path d="M1460.256456406787,27.038793163374066L1315.4907610360533,191.16214122623205L1373.2439141906798,204.09466582350433Z" fill="#82b2cf" stroke="#82b2cf"></path><path d="M1460.256456406787,27.038793163374066L1373.2439141906798,204.09466582350433L1540.1218912750483,40.489520486444235Z" fill="#82afc9" stroke="#82afc9"></path><path d="M1540.1218912750483,40.489520486444235L1373.2439141906798,204.09466582350433L1624.0086096525192,202.34842473641038Z" fill="#81aac4" stroke="#81aac4"></path><path d="M1540.1218912750483,40.489520486444235L1624.0086096525192,202.34842473641038L1699.3683411553502,51.4934454113245Z" fill="#81a3b6" stroke="#81a3b6"></path><path d="M1699.3683411553502,51.4934454113245L1624.0086096525192,202.34842473641038L1819.707690468058,127.91157823987305Z" fill="#809bab" stroke="#809bab"></path><path d="M1819.707690468058,127.91157823987305L1624.0086096525192,202.34842473641038L1715.8082443568856,271.92494354210794Z" fill="#7e99aa" stroke="#7e99aa"></path><path d="M1819.707690468058,127.91157823987305L1715.8082443568856,271.92494354210794L1819.429903132841,251.80221559479833Z" fill="#7d93a2" stroke="#7d93a2"></path><path d="M1819.707690468058,127.91157823987305L1819.429903132841,251.80221559479833L2043.6031591426581,197.78494158759713Z" fill="#7e8b94" stroke="#7e8b94"></path><path d="M1819.707690468058,127.91157823987305L2043.6031591426581,197.78494158759713L2013.5980135481805,44.687785897403955Z" fill="#80888c" stroke="#80888c"></path><path d="M-52.91412807069719,220.6149966828525L-105.61336730606854,425.4229674395174L79.88519612699747,360.57460483163595Z" fill="#e7effe" stroke="#e7effe"></path><path d="M-52.91412807069719,220.6149966828525L79.88519612699747,360.57460483163595L123.91198145225644,233.63553626462817Z" fill="#f2f3fc" stroke="#f2f3fc"></path><path d="M123.91198145225644,233.63553626462817L79.88519612699747,360.57460483163595L260.7164351083338,322.8160166926682Z" fill="#e6ebfa" stroke="#e6ebfa"></path><path d="M123.91198145225644,233.63553626462817L260.7164351083338,322.8160166926682L247.36098267138004,243.7642406579107Z" fill="#ecedf9" stroke="#ecedf9"></path><path d="M247.36098267138004,243.7642406579107L260.7164351083338,322.8160166926682L344.11297135055065,319.63084788993Z" fill="#e1e7f7" stroke="#e1e7f7"></path><path d="M247.36098267138004,243.7642406579107L344.11297135055065,319.63084788993L410.9270741790533,189.8384036589414Z" fill="#e7e9f5" stroke="#e7e9f5"></path><path d="M410.9270741790533,189.8384036589414L344.11297135055065,319.63084788993L490.579897351563,336.59805505536497Z" fill="#dce1f3" stroke="#dce1f3"></path><path d="M410.9270741790533,189.8384036589414L490.579897351563,336.59805505536497L521.2150372378528,278.99920457974076Z" fill="#d9e0f2" stroke="#d9e0f2"></path><path d="M521.2150372378528,278.99920457974076L490.579897351563,336.59805505536497L709.4141255691648,406.87976497225463Z" fill="#c0d4ef" stroke="#c0d4ef"></path><path d="M521.2150372378528,278.99920457974076L709.4141255691648,406.87976497225463L632.5227782595903,204.63970804587007Z" fill="#c5d6ee" stroke="#c5d6ee"></path><path d="M632.5227782595903,204.63970804587007L709.4141255691648,406.87976497225463L767.3377613537014,269.5615196786821Z" fill="#bcd2eb" stroke="#bcd2eb"></path><path d="M767.3377613537014,269.5615196786821L709.4141255691648,406.87976497225463L770.1163340359926,344.68121104873717Z" fill="#acccea" stroke="#acccea"></path><path d="M767.3377613537014,269.5615196786821L770.1163340359926,344.68121104873717L971.1257940810174,384.32300766929984Z" fill="#a4c8e8" stroke="#a4c8e8"></path><path d="M767.3377613537014,269.5615196786821L971.1257940810174,384.32300766929984L1030.5236588884145,227.2355941683054Z" fill="#a0c7e5" stroke="#a0c7e5"></path><path d="M1030.5236588884145,227.2355941683054L971.1257940810174,384.32300766929984L1079.717598259449,323.20549805648625Z" fill="#8dc0e1" stroke="#8dc0e1"></path><path d="M1030.5236588884145,227.2355941683054L1079.717598259449,323.20549805648625L1177.023180546239,202.08843156695366Z" fill="#91c1df" stroke="#91c1df"></path><path d="M1177.023180546239,202.08843156695366L1079.717598259449,323.20549805648625L1268.2662102766335,315.59162124060094Z" fill="#82b8dc" stroke="#82b8dc"></path><path d="M1177.023180546239,202.08843156695366L1268.2662102766335,315.59162124060094L1315.4907610360533,191.16214122623205Z" fill="#82b7d9" stroke="#82b7d9"></path><path d="M1315.4907610360533,191.16214122623205L1268.2662102766335,315.59162124060094L1373.2439141906798,204.09466582350433Z" fill="#7fb3d5" stroke="#7fb3d5"></path><path d="M1373.2439141906798,204.09466582350433L1268.2662102766335,315.59162124060094L1387.0660335291177,414.45670695975423Z" fill="#6faad3" stroke="#6faad3"></path><path d="M1373.2439141906798,204.09466582350433L1387.0660335291177,414.45670695975423L1592.7160784695297,357.2229174245149Z" fill="#6ca3ca" stroke="#6ca3ca"></path><path d="M1373.2439141906798,204.09466582350433L1592.7160784695297,357.2229174245149L1624.0086096525192,202.34842473641038Z" fill="#7aa5c2" stroke="#7aa5c2"></path><path d="M1624.0086096525192,202.34842473641038L1592.7160784695297,357.2229174245149L1715.8082443568856,271.92494354210794Z" fill="#759ab4" stroke="#759ab4"></path><path d="M1715.8082443568856,271.92494354210794L1592.7160784695297,357.2229174245149L1734.5747802313417,383.164129704237Z" fill="#6891af" stroke="#6891af"></path><path d="M1715.8082443568856,271.92494354210794L1734.5747802313417,383.164129704237L1819.429903132841,251.80221559479833Z" fill="#6f8ea6" stroke="#6f8ea6"></path><path d="M1819.429903132841,251.80221559479833L1734.5747802313417,383.164129704237L1894.0080210752785,416.9965801388025Z" fill="#65859e" stroke="#65859e"></path><path d="M1819.429903132841,251.80221559479833L1894.0080210752785,416.9965801388025L2026.036206688732,347.69673055037856Z" fill="#677e92" stroke="#677e92"></path><path d="M1819.429903132841,251.80221559479833L2026.036206688732,347.69673055037856L2043.6031591426581,197.78494158759713Z" fill="#76818c" stroke="#76818c"></path><path d="M2043.6031591426581,197.78494158759713L2026.036206688732,347.69673055037856L2032.881363015622,702.1921237092465Z" fill="#546d81" stroke="#546d81"></path><path d="M-105.61336730606854,425.4229674395174L-134.32244528084993,959.7619729209691L-116.89648565836251,686.0664885677397Z" fill="#94c5ea" stroke="#94c5ea"></path><path d="M-105.61336730606854,425.4229674395174L-116.89648565836251,686.0664885677397L-36.53511964716017,530.9781158063561Z" fill="#aedaf6" stroke="#aedaf6"></path><path d="M-105.61336730606854,425.4229674395174L-36.53511964716017,530.9781158063561L79.88519612699747,360.57460483163595Z" fill="#cde5fb" stroke="#cde5fb"></path><path d="M79.88519612699747,360.57460483163595L-36.53511964716017,530.9781158063561L112.18102673068643,485.5941474158317Z" fill="#c6e0f9" stroke="#c6e0f9"></path><path d="M79.88519612699747,360.57460483163595L112.18102673068643,485.5941474158317L183.92152790911496,481.16659926250577Z" fill="#c7dff8" stroke="#c7dff8"></path><path d="M79.88519612699747,360.57460483163595L183.92152790911496,481.16659926250577L260.7164351083338,322.8160166926682Z" fill="#d2e2f9" stroke="#d2e2f9"></path><path d="M260.7164351083338,322.8160166926682L183.92152790911496,481.16659926250577L344.11297135055065,319.63084788993Z" fill="#d1e0f7" stroke="#d1e0f7"></path><path d="M344.11297135055065,319.63084788993L183.92152790911496,481.16659926250577L408.57096875086427,524.2887708172202Z" fill="#bdd6f3" stroke="#bdd6f3"></path><path d="M344.11297135055065,319.63084788993L408.57096875086427,524.2887708172202L490.579897351563,336.59805505536497Z" fill="#c2d6f2" stroke="#c2d6f2"></path><path d="M490.579897351563,336.59805505536497L408.57096875086427,524.2887708172202L495.59262212365866,518.7449283432215Z" fill="#adcdee" stroke="#adcdee"></path><path d="M490.579897351563,336.59805505536497L495.59262212365866,518.7449283432215L709.4141255691648,406.87976497225463Z" fill="#adcced" stroke="#adcced"></path><path d="M709.4141255691648,406.87976497225463L495.59262212365866,518.7449283432215L714.5976570993662,487.8809593990445Z" fill="#99c3e9" stroke="#99c3e9"></path><path d="M709.4141255691648,406.87976497225463L714.5976570993662,487.8809593990445L814.7146444860846,479.49150094762444Z" fill="#90c0e7" stroke="#90c0e7"></path><path d="M709.4141255691648,406.87976497225463L814.7146444860846,479.49150094762444L770.1163340359926,344.68121104873717Z" fill="#9ac4e8" stroke="#9ac4e8"></path><path d="M770.1163340359926,344.68121104873717L814.7146444860846,479.49150094762444L971.1257940810174,384.32300766929984Z" fill="#91c0e6" stroke="#91c0e6"></path><path d="M971.1257940810174,384.32300766929984L814.7146444860846,479.49150094762444L1002.2991402167827,493.7594579625875Z" fill="#7ab7e1" stroke="#7ab7e1"></path><path d="M971.1257940810174,384.32300766929984L1002.2991402167827,493.7594579625875L1079.717598259449,323.20549805648625Z" fill="#7ab7e0" stroke="#7ab7e0"></path><path d="M1079.717598259449,323.20549805648625L1002.2991402167827,493.7594579625875L1114.233109736815,561.4497318025678Z" fill="#64aedc" stroke="#64aedc"></path><path d="M1079.717598259449,323.20549805648625L1114.233109736815,561.4497318025678L1268.2662102766335,315.59162124060094Z" fill="#69aedb" stroke="#69aedb"></path><path d="M1268.2662102766335,315.59162124060094L1114.233109736815,561.4497318025678L1320.8390041720122,561.0500812064856Z" fill="#4ba0d5" stroke="#4ba0d5"></path><path d="M1268.2662102766335,315.59162124060094L1320.8390041720122,561.0500812064856L1387.0660335291177,414.45670695975423Z" fill="#539fd2" stroke="#539fd2"></path><path d="M1387.0660335291177,414.45670695975423L1320.8390041720122,561.0500812064856L1392.5903990864754,529.9199165124446Z" fill="#3f95cb" stroke="#3f95cb"></path><path d="M1387.0660335291177,414.45670695975423L1392.5903990864754,529.9199165124446L1573.1966869533062,466.1212307587266Z" fill="#4894c6" stroke="#4894c6"></path><path d="M1387.0660335291177,414.45670695975423L1573.1966869533062,466.1212307587266L1592.7160784695297,357.2229174245149Z" fill="#5796c1" stroke="#5796c1"></path><path d="M1592.7160784695297,357.2229174245149L1573.1966869533062,466.1212307587266L1734.5747802313417,383.164129704237Z" fill="#598eb3" stroke="#598eb3"></path><path d="M1734.5747802313417,383.164129704237L1573.1966869533062,466.1212307587266L1758.0518034752458,497.7761052455753Z" fill="#4c85ab" stroke="#4c85ab"></path><path d="M1734.5747802313417,383.164129704237L1758.0518034752458,497.7761052455753L1894.0080210752785,416.9965801388025Z" fill="#507e9e" stroke="#507e9e"></path><path d="M1894.0080210752785,416.9965801388025L1758.0518034752458,497.7761052455753L1834.5798007305712,529.7542883176357Z" fill="#437698" stroke="#437698"></path><path d="M1894.0080210752785,416.9965801388025L1834.5798007305712,529.7542883176357L2009.6657397877425,525.0833368208259Z" fill="#406e8d" stroke="#406e8d"></path><path d="M1894.0080210752785,416.9965801388025L2009.6657397877425,525.0833368208259L2026.036206688732,347.69673055037856Z" fill="#507088" stroke="#507088"></path><path d="M2026.036206688732,347.69673055037856L2009.6657397877425,525.0833368208259L2032.881363015622,702.1921237092465Z" fill="#35617c" stroke="#35617c"></path><path d="M-36.53511964716017,530.9781158063561L-116.89648565836251,686.0664885677397L71.95151645690203,665.8098426740617Z" fill="#9bcdee" stroke="#9bcdee"></path><path d="M-36.53511964716017,530.9781158063561L71.95151645690203,665.8098426740617L112.18102673068643,485.5941474158317Z" fill="#a7d4f2" stroke="#a7d4f2"></path><path d="M112.18102673068643,485.5941474158317L71.95151645690203,665.8098426740617L183.92152790911496,481.16659926250577Z" fill="#a9d3f1" stroke="#a9d3f1"></path><path d="M183.92152790911496,481.16659926250577L71.95151645690203,665.8098426740617L277.39059328101575,654.1342690307647Z" fill="#97caec" stroke="#97caec"></path><path d="M183.92152790911496,481.16659926250577L277.39059328101575,654.1342690307647L349.14203147403896,619.857813064009Z" fill="#95c8eb" stroke="#95c8eb"></path><path d="M183.92152790911496,481.16659926250577L349.14203147403896,619.857813064009L408.57096875086427,524.2887708172202Z" fill="#9fcbed" stroke="#9fcbed"></path><path d="M408.57096875086427,524.2887708172202L349.14203147403896,619.857813064009L560.8820152189583,656.2190568353981Z" fill="#86bde5" stroke="#86bde5"></path><path d="M408.57096875086427,524.2887708172202L560.8820152189583,656.2190568353981L495.59262212365866,518.7449283432215Z" fill="#8abfe6" stroke="#8abfe6"></path><path d="M495.59262212365866,518.7449283432215L560.8820152189583,656.2190568353981L714.5976570993662,487.8809593990445Z" fill="#84bce5" stroke="#84bce5"></path><path d="M714.5976570993662,487.8809593990445L560.8820152189583,656.2190568353981L714.1838622931391,632.6864204462618Z" fill="#71b4e0" stroke="#71b4e0"></path><path d="M714.5976570993662,487.8809593990445L714.1838622931391,632.6864204462618L814.7146444860846,479.49150094762444Z" fill="#79b7e2" stroke="#79b7e2"></path><path d="M814.7146444860846,479.49150094762444L714.1838622931391,632.6864204462618L811.8067978788167,655.3693288844079Z" fill="#64afdc" stroke="#64afdc"></path><path d="M814.7146444860846,479.49150094762444L811.8067978788167,655.3693288844079L955.5885911174119,675.3983723558486Z" fill="#58a8d9" stroke="#58a8d9"></path><path d="M814.7146444860846,479.49150094762444L955.5885911174119,675.3983723558486L1002.2991402167827,493.7594579625875Z" fill="#5dacdb" stroke="#5dacdb"></path><path d="M1002.2991402167827,493.7594579625875L955.5885911174119,675.3983723558486L1114.233109736815,561.4497318025678Z" fill="#46a3d5" stroke="#46a3d5"></path><path d="M1114.233109736815,561.4497318025678L955.5885911174119,675.3983723558486L1076.890101581812,680.2337100170553Z" fill="#3897cf" stroke="#3897cf"></path><path d="M1114.233109736815,561.4497318025678L1076.890101581812,680.2337100170553L1263.7432614527643,668.1040300615132Z" fill="#2c90cc" stroke="#2c90cc"></path><path d="M1114.233109736815,561.4497318025678L1263.7432614527643,668.1040300615132L1320.8390041720122,561.0500812064856Z" fill="#2891cc" stroke="#2891cc"></path><path d="M1320.8390041720122,561.0500812064856L1263.7432614527643,668.1040300615132L1399.0558873303235,731.1871490813792Z" fill="#1b82c2" stroke="#1b82c2"></path><path d="M1320.8390041720122,561.0500812064856L1399.0558873303235,731.1871490813792L1392.5903990864754,529.9199165124446Z" fill="#2187c2" stroke="#2187c2"></path><path d="M1392.5903990864754,529.9199165124446L1399.0558873303235,731.1871490813792L1549.6852717828006,705.1660187635571Z" fill="#1a7bb8" stroke="#1a7bb8"></path><path d="M1392.5903990864754,529.9199165124446L1549.6852717828006,705.1660187635571L1573.1966869533062,466.1212307587266Z" fill="#2a85ba" stroke="#2a85ba"></path><path d="M1573.1966869533062,466.1212307587266L1549.6852717828006,705.1660187635571L1758.0518034752458,497.7761052455753Z" fill="#2d7dab" stroke="#2d7dab"></path><path d="M1758.0518034752458,497.7761052455753L1549.6852717828006,705.1660187635571L1775.9688889514655,707.571547050029Z" fill="#1c6c9d" stroke="#1c6c9d"></path><path d="M1758.0518034752458,497.7761052455753L1775.9688889514655,707.571547050029L1834.5798007305712,529.7542883176357Z" fill="#256d95" stroke="#256d95"></path><path d="M1834.5798007305712,529.7542883176357L1775.9688889514655,707.571547050029L1872.1831521950662,687.6215229090303Z" fill="#1b618c" stroke="#1b618c"></path><path d="M1834.5798007305712,529.7542883176357L1872.1831521950662,687.6215229090303L2009.6657397877425,525.0833368208259Z" fill="#246487" stroke="#246487"></path><path d="M2009.6657397877425,525.0833368208259L1872.1831521950662,687.6215229090303L2032.881363015622,702.1921237092465Z" fill="#1b567a" stroke="#1b567a"></path><path d="M-116.89648565836251,686.0664885677397L-134.32244528084993,959.7619729209691L-111.96742010302842,794.8812018055469Z" fill="#91b7d6" stroke="#91b7d6"></path><path d="M-116.89648565836251,686.0664885677397L-111.96742010302842,794.8812018055469L36.596482107415795,827.1550146862864Z" fill="#91bade" stroke="#91bade"></path><path d="M-116.89648565836251,686.0664885677397L36.596482107415795,827.1550146862864L71.95151645690203,665.8098426740617Z" fill="#91bce4" stroke="#91bce4"></path><path d="M71.95151645690203,665.8098426740617L36.596482107415795,827.1550146862864L218.6439099535346,833.1594440247864Z" fill="#8cb3d9" stroke="#8cb3d9"></path><path d="M71.95151645690203,665.8098426740617L218.6439099535346,833.1594440247864L277.39059328101575,654.1342690307647Z" fill="#89b6e1" stroke="#89b6e1"></path><path d="M277.39059328101575,654.1342690307647L218.6439099535346,833.1594440247864L322.6471819449216,828.2135383039713Z" fill="#84acd6" stroke="#84acd6"></path><path d="M277.39059328101575,654.1342690307647L322.6471819449216,828.2135383039713L349.14203147403896,619.857813064009Z" fill="#82b2e0" stroke="#82b2e0"></path><path d="M349.14203147403896,619.857813064009L322.6471819449216,828.2135383039713L560.8820152189583,656.2190568353981Z" fill="#7caedd" stroke="#7caedd"></path><path d="M560.8820152189583,656.2190568353981L322.6471819449216,828.2135383039713L567.4362586811185,811.7588732298464Z" fill="#74a3d1" stroke="#74a3d1"></path><path d="M560.8820152189583,656.2190568353981L567.4362586811185,811.7588732298464L714.1838622931391,632.6864204462618Z" fill="#68a4d8" stroke="#68a4d8"></path><path d="M714.1838622931391,632.6864204462618L567.4362586811185,811.7588732298464L649.0697415545583,873.6297665163875Z" fill="#649acc" stroke="#649acc"></path><path d="M714.1838622931391,632.6864204462618L649.0697415545583,873.6297665163875L811.8067978788167,655.3693288844079Z" fill="#5b9cd2" stroke="#5b9cd2"></path><path d="M811.8067978788167,655.3693288844079L649.0697415545583,873.6297665163875L834.9644745793194,864.9587998911738Z" fill="#5692c4" stroke="#5692c4"></path><path d="M811.8067978788167,655.3693288844079L834.9644745793194,864.9587998911738L955.5885911174119,675.3983723558486Z" fill="#4a94cc" stroke="#4a94cc"></path><path d="M955.5885911174119,675.3983723558486L834.9644745793194,864.9587998911738L933.7997983396053,875.0099590793252Z" fill="#448abe" stroke="#448abe"></path><path d="M955.5885911174119,675.3983723558486L933.7997983396053,875.0099590793252L1076.890101581812,680.2337100170553Z" fill="#388cc6" stroke="#388cc6"></path><path d="M1076.890101581812,680.2337100170553L933.7997983396053,875.0099590793252L1158.6894915439188,831.8209308106452Z" fill="#2e82bb" stroke="#2e82bb"></path><path d="M1076.890101581812,680.2337100170553L1158.6894915439188,831.8209308106452L1263.7432614527643,668.1040300615132Z" fill="#2181c3" stroke="#2181c3"></path><path d="M1263.7432614527643,668.1040300615132L1158.6894915439188,831.8209308106452L1255.3847025800496,838.8398435991257Z" fill="#1a77b7" stroke="#1a77b7"></path><path d="M1263.7432614527643,668.1040300615132L1255.3847025800496,838.8398435991257L1399.0558873303235,731.1871490813792Z" fill="#1475b9" stroke="#1475b9"></path><path d="M1399.0558873303235,731.1871490813792L1255.3847025800496,838.8398435991257L1478.3419146761298,775.7047682628036Z" fill="#146eac" stroke="#146eac"></path><path d="M1399.0558873303235,731.1871490813792L1478.3419146761298,775.7047682628036L1549.6852717828006,705.1660187635571Z" fill="#146eac" stroke="#146eac"></path><path d="M1549.6852717828006,705.1660187635571L1478.3419146761298,775.7047682628036L1547.1129111852497,856.0541778802872Z" fill="#1466a0" stroke="#1466a0"></path><path d="M1549.6852717828006,705.1660187635571L1547.1129111852497,856.0541778802872L1682.798403929919,810.5304694734514Z" fill="#135f95" stroke="#135f95"></path><path d="M1549.6852717828006,705.1660187635571L1682.798403929919,810.5304694734514L1775.9688889514655,707.571547050029Z" fill="#135e94" stroke="#135e94"></path><path d="M1775.9688889514655,707.571547050029L1682.798403929919,810.5304694734514L1934.574346896261,781.7795512732118Z" fill="#125180" stroke="#125180"></path><path d="M1775.9688889514655,707.571547050029L1934.574346896261,781.7795512732118L1872.1831521950662,687.6215229090303Z" fill="#12517f" stroke="#12517f"></path><path d="M1872.1831521950662,687.6215229090303L1934.574346896261,781.7795512732118L2032.881363015622,702.1921237092465Z" fill="#124a75" stroke="#124a75"></path><path d="M2032.881363015622,702.1921237092465L1934.574346896261,781.7795512732118L1981.8955140933394,854.6010172460228Z" fill="#124166" stroke="#124166"></path><path d="M2032.881363015622,702.1921237092465L1981.8955140933394,854.6010172460228L2037.5822497252375,972.4778262153268Z" fill="#123656" stroke="#123656"></path><path d="M2032.881363015622,702.1921237092465L2037.5822497252375,972.4778262153268L2059.914214583114,1319.3466830067337Z" fill="#121929" stroke="#121929"></path><path d="M-111.96742010302842,794.8812018055469L-134.32244528084993,959.7619729209691L36.596482107415795,827.1550146862864Z" fill="#91aecb" stroke="#91aecb"></path><path d="M36.596482107415795,827.1550146862864L-134.32244528084993,959.7619729209691L30.5374741461128,1025.9284662175924Z" fill="#919fb5" stroke="#919fb5"></path><path d="M36.596482107415795,827.1550146862864L30.5374741461128,1025.9284662175924L220.66809939220548,922.2606446128339Z" fill="#8d9db6" stroke="#8d9db6"></path><path d="M36.596482107415795,827.1550146862864L220.66809939220548,922.2606446128339L218.6439099535346,833.1594440247864Z" fill="#8aa6c6" stroke="#8aa6c6"></path><path d="M218.6439099535346,833.1594440247864L220.66809939220548,922.2606446128339L322.6471819449216,828.2135383039713Z" fill="#85a2c3" stroke="#85a2c3"></path><path d="M322.6471819449216,828.2135383039713L220.66809939220548,922.2606446128339L394.9110399931669,968.6926306318492Z" fill="#8197b5" stroke="#8197b5"></path><path d="M322.6471819449216,828.2135383039713L394.9110399931669,968.6926306318492L567.4362586811185,811.7588732298464Z" fill="#7a97bc" stroke="#7a97bc"></path><path d="M567.4362586811185,811.7588732298464L394.9110399931669,968.6926306318492L481.50021985173225,987.7803888078779Z" fill="#748bad" stroke="#748bad"></path><path d="M567.4362586811185,811.7588732298464L481.50021985173225,987.7803888078779L649.0697415545583,873.6297665163875Z" fill="#6c8db3" stroke="#6c8db3"></path><path d="M649.0697415545583,873.6297665163875L481.50021985173225,987.7803888078779L668.9998330827802,1030.6003235187382Z" fill="#697f9f" stroke="#697f9f"></path><path d="M649.0697415545583,873.6297665163875L668.9998330827802,1030.6003235187382L778.4103254880756,926.481856321916Z" fill="#5e7da2" stroke="#5e7da2"></path><path d="M649.0697415545583,873.6297665163875L778.4103254880756,926.481856321916L834.9644745793194,864.9587998911738Z" fill="#5784af" stroke="#5784af"></path><path d="M834.9644745793194,864.9587998911738L778.4103254880756,926.481856321916L945.8062998577952,1030.1002099178731Z" fill="#4c779e" stroke="#4c779e"></path><path d="M834.9644745793194,864.9587998911738L945.8062998577952,1030.1002099178731L933.7997983396053,875.0099590793252Z" fill="#4477a0" stroke="#4477a0"></path><path d="M933.7997983396053,875.0099590793252L945.8062998577952,1030.1002099178731L1177.6735078264028,964.7252286504954Z" fill="#346b94" stroke="#346b94"></path><path d="M933.7997983396053,875.0099590793252L1177.6735078264028,964.7252286504954L1158.6894915439188,831.8209308106452Z" fill="#2a71a3" stroke="#2a71a3"></path><path d="M1158.6894915439188,831.8209308106452L1177.6735078264028,964.7252286504954L1255.3847025800496,838.8398435991257Z" fill="#1e6ba2" stroke="#1e6ba2"></path><path d="M1255.3847025800496,838.8398435991257L1177.6735078264028,964.7252286504954L1215.2801551111042,1008.0723832547665Z" fill="#1c6092" stroke="#1c6092"></path><path d="M1255.3847025800496,838.8398435991257L1215.2801551111042,1008.0723832547665L1405.590356150642,1023.5505903046578Z" fill="#145789" stroke="#145789"></path><path d="M1255.3847025800496,838.8398435991257L1405.590356150642,1023.5505903046578L1478.3419146761298,775.7047682628036Z" fill="#146097" stroke="#146097"></path><path d="M1478.3419146761298,775.7047682628036L1405.590356150642,1023.5505903046578L1547.1129111852497,856.0541778802872Z" fill="#145a8d" stroke="#145a8d"></path><path d="M1547.1129111852497,856.0541778802872L1405.590356150642,1023.5505903046578L1588.0499890912324,1026.5781847201288Z" fill="#144973" stroke="#144973"></path><path d="M1547.1129111852497,856.0541778802872L1588.0499890912324,1026.5781847201288L1734.6012612059712,990.9261325187981Z" fill="#134268" stroke="#134268"></path><path d="M1547.1129111852497,856.0541778802872L1734.6012612059712,990.9261325187981L1682.798403929919,810.5304694734514Z" fill="#134c77" stroke="#134c77"></path><path d="M1682.798403929919,810.5304694734514L1734.6012612059712,990.9261325187981L1886.1325177084655,992.5938805751503Z" fill="#123b5d" stroke="#123b5d"></path><path d="M1682.798403929919,810.5304694734514L1886.1325177084655,992.5938805751503L1934.574346896261,781.7795512732118Z" fill="#124267" stroke="#124267"></path><path d="M1934.574346896261,781.7795512732118L1886.1325177084655,992.5938805751503L1981.8955140933394,854.6010172460228Z" fill="#123757" stroke="#123757"></path><path d="M1981.8955140933394,854.6010172460228L1886.1325177084655,992.5938805751503L2037.5822497252375,972.4778262153268Z" fill="#122942" stroke="#122942"></path><path d="M-134.32244528084993,959.7619729209691L-44.13768595084548,1325.104031888768L-81.07443778775632,1124.5219868794084Z" fill="#917f82" stroke="#917f82"></path><path d="M-134.32244528084993,959.7619729209691L-81.07443778775632,1124.5219868794084L30.5374741461128,1025.9284662175924Z" fill="#91909c" stroke="#91909c"></path><path d="M30.5374741461128,1025.9284662175924L-81.07443778775632,1124.5219868794084L83.81446690298617,1139.100052099675Z" fill="#91828a" stroke="#91828a"></path><path d="M30.5374741461128,1025.9284662175924L83.81446690298617,1139.100052099675L220.66809939220548,922.2606446128339Z" fill="#8c8a9a" stroke="#8c8a9a"></path><path d="M220.66809939220548,922.2606446128339L83.81446690298617,1139.100052099675L237.4264631420374,1157.501017889008Z" fill="#89808d" stroke="#89808d"></path><path d="M220.66809939220548,922.2606446128339L237.4264631420374,1157.501017889008L376.5407732035965,1089.6943592000753Z" fill="#837e8f" stroke="#837e8f"></path><path d="M220.66809939220548,922.2606446128339L376.5407732035965,1089.6943592000753L394.9110399931669,968.6926306318492Z" fill="#80879e" stroke="#80879e"></path><path d="M394.9110399931669,968.6926306318492L376.5407732035965,1089.6943592000753L481.50021985173225,987.7803888078779Z" fill="#7a7e96" stroke="#7a7e96"></path><path d="M481.50021985173225,987.7803888078779L376.5407732035965,1089.6943592000753L508.37683456018567,1078.8753823656589Z" fill="#77768b" stroke="#77768b"></path><path d="M481.50021985173225,987.7803888078779L508.37683456018567,1078.8753823656589L668.9998330827802,1030.6003235187382Z" fill="#6d758d" stroke="#6d758d"></path><path d="M668.9998330827802,1030.6003235187382L508.37683456018567,1078.8753823656589L704.8950179480016,1138.2540718931705Z" fill="#66697f" stroke="#66697f"></path><path d="M668.9998330827802,1030.6003235187382L704.8950179480016,1138.2540718931705L865.3094086702913,1148.818945242092Z" fill="#585f75" stroke="#585f75"></path><path d="M668.9998330827802,1030.6003235187382L865.3094086702913,1148.818945242092L778.4103254880756,926.481856321916Z" fill="#556a87" stroke="#556a87"></path><path d="M778.4103254880756,926.481856321916L865.3094086702913,1148.818945242092L945.8062998577952,1030.1002099178731Z" fill="#4a6684" stroke="#4a6684"></path><path d="M945.8062998577952,1030.1002099178731L865.3094086702913,1148.818945242092L995.8499163296074,1110.977041600272Z" fill="#405771" stroke="#405771"></path><path d="M945.8062998577952,1030.1002099178731L995.8499163296074,1110.977041600272L1086.116650365293,1125.4207473993301Z" fill="#355471" stroke="#355471"></path><path d="M945.8062998577952,1030.1002099178731L1086.116650365293,1125.4207473993301L1177.6735078264028,964.7252286504954Z" fill="#2c597c" stroke="#2c597c"></path><path d="M1177.6735078264028,964.7252286504954L1086.116650365293,1125.4207473993301L1215.2801551111042,1008.0723832547665Z" fill="#22537a" stroke="#22537a"></path><path d="M1215.2801551111042,1008.0723832547665L1086.116650365293,1125.4207473993301L1262.9674523882568,1090.2038399130106Z" fill="#1f4a6e" stroke="#1f4a6e"></path><path d="M1215.2801551111042,1008.0723832547665L1262.9674523882568,1090.2038399130106L1405.590356150642,1023.5505903046578Z" fill="#144873" stroke="#144873"></path><path d="M1405.590356150642,1023.5505903046578L1262.9674523882568,1090.2038399130106L1466.1563385184854,1113.4163070749491Z" fill="#143e62" stroke="#143e62"></path><path d="M1405.590356150642,1023.5505903046578L1466.1563385184854,1113.4163070749491L1588.0499890912324,1026.5781847201288Z" fill="#143c5f" stroke="#143c5f"></path><path d="M1588.0499890912324,1026.5781847201288L1466.1563385184854,1113.4163070749491L1588.9823985937983,1150.372523283586Z" fill="#13304c" stroke="#13304c"></path><path d="M1588.0499890912324,1026.5781847201288L1588.9823985937983,1150.372523283586L1671.6237138491124,1149.5091245044023Z" fill="#132841" stroke="#132841"></path><path d="M1588.0499890912324,1026.5781847201288L1671.6237138491124,1149.5091245044023L1734.6012612059712,990.9261325187981Z" fill="#132e49" stroke="#132e49"></path><path d="M1734.6012612059712,990.9261325187981L1671.6237138491124,1149.5091245044023L1883.7184133939445,1086.206293227151Z" fill="#122237" stroke="#122237"></path><path d="M1734.6012612059712,990.9261325187981L1883.7184133939445,1086.206293227151L1886.1325177084655,992.5938805751503Z" fill="#12263c" stroke="#12263c"></path><path d="M1886.1325177084655,992.5938805751503L1883.7184133939445,1086.206293227151L1991.2451496720314,1116.7861162964255Z" fill="#121827" stroke="#121827"></path><path d="M1886.1325177084655,992.5938805751503L1991.2451496720314,1116.7861162964255L2037.5822497252375,972.4778262153268Z" fill="#121a2a" stroke="#121a2a"></path><path d="M2037.5822497252375,972.4778262153268L1991.2451496720314,1116.7861162964255L2059.914214583114,1319.3466830067337Z" fill="#120306" stroke="#120306"></path><path d="M-81.07443778775632,1124.5219868794084L-44.13768595084548,1325.104031888768L35.18316010013223,1269.2802972067147Z" fill="#917d7e" stroke="#917d7e"></path><path d="M-81.07443778775632,1124.5219868794084L35.18316010013223,1269.2802972067147L83.81446690298617,1139.100052099675Z" fill="#917b7d" stroke="#917b7d"></path><path d="M83.81446690298617,1139.100052099675L35.18316010013223,1269.2802972067147L225.14226090162992,1226.4664615876973Z" fill="#8c777b" stroke="#8c777b"></path><path d="M83.81446690298617,1139.100052099675L225.14226090162992,1226.4664615876973L237.4264631420374,1157.501017889008Z" fill="#89757a" stroke="#89757a"></path><path d="M237.4264631420374,1157.501017889008L225.14226090162992,1226.4664615876973L331.1655385326594,1273.0349605623633Z" fill="#847178" stroke="#847178"></path><path d="M237.4264631420374,1157.501017889008L331.1655385326594,1273.0349605623633L376.5407732035965,1089.6943592000753Z" fill="#816f76" stroke="#816f76"></path><path d="M376.5407732035965,1089.6943592000753L331.1655385326594,1273.0349605623633L474.6895207744092,1262.0231469534338Z" fill="#7c6a74" stroke="#7c6a74"></path><path d="M376.5407732035965,1089.6943592000753L474.6895207744092,1262.0231469534338L508.37683456018567,1078.8753823656589Z" fill="#776873" stroke="#776873"></path><path d="M508.37683456018567,1078.8753823656589L474.6895207744092,1262.0231469534338L641.286435071379,1290.0800535734743Z" fill="#6e6370" stroke="#6e6370"></path><path d="M508.37683456018567,1078.8753823656589L641.286435071379,1290.0800535734743L704.8950179480016,1138.2540718931705Z" fill="#67606e" stroke="#67606e"></path><path d="M704.8950179480016,1138.2540718931705L641.286435071379,1290.0800535734743L846.0597132705152,1266.3093180488795Z" fill="#5a5a6b" stroke="#5a5a6b"></path><path d="M704.8950179480016,1138.2540718931705L846.0597132705152,1266.3093180488795L865.3094086702913,1148.818945242092Z" fill="#515769" stroke="#515769"></path><path d="M865.3094086702913,1148.818945242092L846.0597132705152,1266.3093180488795L928.3828651718795,1306.6718565300107Z" fill="#485367" stroke="#485367"></path><path d="M865.3094086702913,1148.818945242092L928.3828651718795,1306.6718565300107L995.8499163296074,1110.977041600272Z" fill="#415065" stroke="#415065"></path><path d="M995.8499163296074,1110.977041600272L928.3828651718795,1306.6718565300107L1106.671432564035,1297.3495758790523Z" fill="#354c62" stroke="#354c62"></path><path d="M995.8499163296074,1110.977041600272L1106.671432564035,1297.3495758790523L1086.116650365293,1125.4207473993301Z" fill="#2d4860" stroke="#2d4860"></path><path d="M1086.116650365293,1125.4207473993301L1106.671432564035,1297.3495758790523L1292.0335803832859,1252.2984458506107Z" fill="#22415d" stroke="#22415d"></path><path d="M1086.116650365293,1125.4207473993301L1292.0335803832859,1252.2984458506107L1262.9674523882568,1090.2038399130106Z" fill="#1c3d5b" stroke="#1c3d5b"></path><path d="M1262.9674523882568,1090.2038399130106L1292.0335803832859,1252.2984458506107L1466.1563385184854,1113.4163070749491Z" fill="#143553" stroke="#143553"></path><path d="M1466.1563385184854,1113.4163070749491L1292.0335803832859,1252.2984458506107L1430.0453260168433,1304.5659423619509Z" fill="#14324f" stroke="#14324f"></path><path d="M1466.1563385184854,1113.4163070749491L1430.0453260168433,1304.5659423619509L1588.9823985937983,1150.372523283586Z" fill="#142d47" stroke="#142d47"></path><path d="M1588.9823985937983,1150.372523283586L1430.0453260168433,1304.5659423619509L1579.9257863592356,1304.313152153045Z" fill="#142a42" stroke="#142a42"></path><path d="M1588.9823985937983,1150.372523283586L1579.9257863592356,1304.313152153045L1671.6237138491124,1149.5091245044023Z" fill="#132438" stroke="#132438"></path><path d="M1671.6237138491124,1149.5091245044023L1579.9257863592356,1304.313152153045L1672.5711343623698,1318.8400371652097Z" fill="#132134" stroke="#132134"></path><path d="M1671.6237138491124,1149.5091245044023L1672.5711343623698,1318.8400371652097L1829.1909165121615,1230.1356384996325Z" fill="#131b2a" stroke="#131b2a"></path><path d="M1671.6237138491124,1149.5091245044023L1829.1909165121615,1230.1356384996325L1883.7184133939445,1086.206293227151Z" fill="#121521" stroke="#121521"></path><path d="M1883.7184133939445,1086.206293227151L1829.1909165121615,1230.1356384996325L1991.2451496720314,1116.7861162964255Z" fill="#120d14" stroke="#120d14"></path><path d="M1991.2451496720314,1116.7861162964255L1829.1909165121615,1230.1356384996325L2059.914214583114,1319.3466830067337Z" fill="#12080d" stroke="#12080d"></path><path d="M-44.13768595084548,1325.104031888768L2059.914214583114,1319.3466830067337L1672.5711343623698,1318.8400371652097Z" fill="#1a3c5a" stroke="#1a3c5a"></path><path d="M-44.13768595084548,1325.104031888768L1672.5711343623698,1318.8400371652097L928.3828651718795,1306.6718565300107Z" fill="#4c5568" stroke="#4c5568"></path><path d="M-44.13768595084548,1325.104031888768L928.3828651718795,1306.6718565300107L641.286435071379,1290.0800535734743Z" fill="#726571" stroke="#726571"></path><path d="M-44.13768595084548,1325.104031888768L641.286435071379,1290.0800535734743L331.1655385326594,1273.0349605623633Z" fill="#816f77" stroke="#816f77"></path><path d="M-44.13768595084548,1325.104031888768L331.1655385326594,1273.0349605623633L35.18316010013223,1269.2802972067147Z" fill="#8c787b" stroke="#8c787b"></path><path d="M35.18316010013223,1269.2802972067147L331.1655385326594,1273.0349605623633L225.14226090162992,1226.4664615876973Z" fill="#88747a" stroke="#88747a"></path><path d="M331.1655385326594,1273.0349605623633L641.286435071379,1290.0800535734743L474.6895207744092,1262.0231469534338Z" fill="#746672" stroke="#746672"></path><path d="M641.286435071379,1290.0800535734743L928.3828651718795,1306.6718565300107L846.0597132705152,1266.3093180488795Z" fill="#515769" stroke="#515769"></path><path d="M928.3828651718795,1306.6718565300107L1672.5711343623698,1318.8400371652097L1430.0453260168433,1304.5659423619509Z" fill="#143553" stroke="#143553"></path><path d="M928.3828651718795,1306.6718565300107L1430.0453260168433,1304.5659423619509L1106.671432564035,1297.3495758790523Z" fill="#23425d" stroke="#23425d"></path><path d="M1106.671432564035,1297.3495758790523L1430.0453260168433,1304.5659423619509L1292.0335803832859,1252.2984458506107Z" fill="#153958" stroke="#153958"></path><path d="M1430.0453260168433,1304.5659423619509L1672.5711343623698,1318.8400371652097L1579.9257863592356,1304.313152153045Z" fill="#13283e" stroke="#13283e"></path><path d="M1672.5711343623698,1318.8400371652097L2059.914214583114,1319.3466830067337L1829.1909165121615,1230.1356384996325Z" fill="#12111a" stroke="#12111a"></path></g><filter id="noise"><feTurbulence type="fractalNoise" in="fillPaint" fill="#F00" baseFrequency="0.7" numOctaves="10" stitchTiles="stitch"></feTurbulence><feComponentTransfer><feFuncR type="linear" slope="2" intercept="-.5"></feFuncR><feFuncG type="linear" slope="2" intercept="-.5"></feFuncG><feFuncB type="linear" slope="2" intercept="-.5"></feFuncB></feComponentTransfer><feColorMatrix type="matrix" values="0.3333 0.3333 0.3333 0 0 
 0.3333 0.3333 0.3333 0 0 
 0.3333 0.3333 0.3333 0 0 
 0 0 0 1 0"></feColorMatrix></filter><rect opacity="0.20000000000000007" width="100%" height="100%" filter="url(#noise)"></rect></svg>