<svg width="1920" height="1065" xmlns="http://www.w3.org/2000/svg"><g><path d="M-124.97246325016022,-123.87173876166344L-129.5606628153473,952.5042508542538L-70.80917266197503,247.00173949822783Z" fill="#9c7777" stroke="#9c7777"></path><path d="M-124.97246325016022,-123.87173876166344L-70.80917266197503,247.00173949822783L-41.506089521571994,118.12353517860174Z" fill="#850f26" stroke="#850f26"></path><path d="M-124.97246325016022,-123.87173876166344L-41.506089521571994,118.12353517860174L50.73363795876503,73.45248034223914Z" fill="#730422" stroke="#730422"></path><path d="M-124.97246325016022,-123.87173876166344L50.73363795876503,73.45248034223914L67.30265320278704,-92.95381542295218Z" fill="#5b001f" stroke="#5b001f"></path><path d="M-124.97246325016022,-123.87173876166344L67.30265320278704,-92.95381542295218L672.9249108117074,-69.90052937529981Z" fill="#6e1324" stroke="#6e1324"></path><path d="M-124.97246325016022,-123.87173876166344L672.9249108117074,-69.90052937529981L942.5971587561071,-88.83549484424293Z" fill="#8a4d49" stroke="#8a4d49"></path><path d="M-124.97246325016022,-123.87173876166344L942.5971587561071,-88.83549484424293L1124.0720800403506,-105.77161489985883Z" fill="#8a6665" stroke="#8a6665"></path><path d="M-124.97246325016022,-123.87173876166344L1124.0720800403506,-105.77161489985883L1301.831970596686,-114.14145768620074Z" fill="#887579" stroke="#887579"></path><path d="M67.30265320278704,-92.95381542295218L50.73363795876503,73.45248034223914L221.97927941568196,-70.40002344176173Z" fill="#7c0824" stroke="#7c0824"></path><path d="M67.30265320278704,-92.95381542295218L221.97927941568196,-70.40002344176173L672.9249108117074,-69.90052937529981Z" fill="#822a31" stroke="#822a31"></path><path d="M221.97927941568196,-70.40002344176173L50.73363795876503,73.45248034223914L248.76588930375874,73.87128671631217Z" fill="#a3112a" stroke="#a3112a"></path><path d="M221.97927941568196,-70.40002344176173L248.76588930375874,73.87128671631217L319.549421723932,-45.17344216816127Z" fill="#991f30" stroke="#991f30"></path><path d="M221.97927941568196,-70.40002344176173L319.549421723932,-45.17344216816127L497.6759090088308,-36.555894082412124Z" fill="#913035" stroke="#913035"></path><path d="M221.97927941568196,-70.40002344176173L497.6759090088308,-36.555894082412124L672.9249108117074,-69.90052937529981Z" fill="#984746" stroke="#984746"></path><path d="M319.549421723932,-45.17344216816127L248.76588930375874,73.87128671631217L394.23776496201754,130.22180177271366Z" fill="#be343a" stroke="#be343a"></path><path d="M319.549421723932,-45.17344216816127L394.23776496201754,130.22180177271366L497.6759090088308,-36.555894082412124Z" fill="#b53e43" stroke="#b53e43"></path><path d="M497.6759090088308,-36.555894082412124L394.23776496201754,130.22180177271366L519.4623740203679,54.067408572882414Z" fill="#ca514f" stroke="#ca514f"></path><path d="M497.6759090088308,-36.555894082412124L519.4623740203679,54.067408572882414L628.4719979669899,62.743051489815116Z" fill="#c55c5b" stroke="#c55c5b"></path><path d="M497.6759090088308,-36.555894082412124L628.4719979669899,62.743051489815116L672.9249108117074,-69.90052937529981Z" fill="#b35f62" stroke="#b35f62"></path><path d="M672.9249108117074,-69.90052937529981L628.4719979669899,62.743051489815116L775.1324033550918,116.1972720734775Z" fill="#cd7378" stroke="#cd7378"></path><path d="M672.9249108117074,-69.90052937529981L775.1324033550918,116.1972720734775L870.6237300205976,-35.836174143478274Z" fill="#be7683" stroke="#be7683"></path><path d="M672.9249108117074,-69.90052937529981L870.6237300205976,-35.836174143478274L942.5971587561071,-88.83549484424293Z" fill="#9f7b87" stroke="#9f7b87"></path><path d="M870.6237300205976,-35.836174143478274L775.1324033550918,116.1972720734775L1008.7671343144029,78.09627215377986Z" fill="#d58895" stroke="#d58895"></path><path d="M870.6237300205976,-35.836174143478274L1008.7671343144029,78.09627215377986L942.5971587561071,-88.83549484424293Z" fill="#b07a8b" stroke="#b07a8b"></path><path d="M942.5971587561071,-88.83549484424293L1008.7671343144029,78.09627215377986L1124.0720800403506,-105.77161489985883Z" fill="#9e7282" stroke="#9e7282"></path><path d="M1124.0720800403506,-105.77161489985883L1008.7671343144029,78.09627215377986L1176.6227318253368,44.83758115209639Z" fill="#aa6b7d" stroke="#aa6b7d"></path><path d="M1124.0720800403506,-105.77161489985883L1176.6227318253368,44.83758115209639L1301.831970596686,-114.14145768620074Z" fill="#82606e" stroke="#82606e"></path><path d="M1301.831970596686,-114.14145768620074L1176.6227318253368,44.83758115209639L1298.2845075801015,26.21286727488041Z" fill="#8f5869" stroke="#8f5869"></path><path d="M1301.831970596686,-114.14145768620074L1298.2845075801015,26.21286727488041L1399.1116939857602,-104.03862764127553Z" fill="#6d4d5b" stroke="#6d4d5b"></path><path d="M1301.831970596686,-114.14145768620074L1399.1116939857602,-104.03862764127553L1600.4137569386512,-90.81676659174263Z" fill="#4c3e49" stroke="#4c3e49"></path><path d="M1301.831970596686,-114.14145768620074L1600.4137569386512,-90.81676659174263L2010.0260770507157,-86.16794032976031Z" fill="#2e1d29" stroke="#2e1d29"></path><path d="M1399.1116939857602,-104.03862764127553L1298.2845075801015,26.21286727488041L1416.8360823579133,45.058755269274116Z" fill="#804759" stroke="#804759"></path><path d="M1399.1116939857602,-104.03862764127553L1416.8360823579133,45.058755269274116L1600.4137569386512,-90.81676659174263Z" fill="#5e3746" stroke="#5e3746"></path><path d="M1600.4137569386512,-90.81676659174263L1416.8360823579133,45.058755269274116L1550.1366711314768,65.49065848812461Z" fill="#6f3042" stroke="#6f3042"></path><path d="M1600.4137569386512,-90.81676659174263L1550.1366711314768,65.49065848812461L1709.466464901343,24.089368460699916Z" fill="#5d2032" stroke="#5d2032"></path><path d="M1600.4137569386512,-90.81676659174263L1709.466464901343,24.089368460699916L1777.7033718768507,-16.248096842318773Z" fill="#451425" stroke="#451425"></path><path d="M1600.4137569386512,-90.81676659174263L1777.7033718768507,-16.248096842318773L1827.4800991080701,-79.74217806011438Z" fill="#300f1d" stroke="#300f1d"></path><path d="M1600.4137569386512,-90.81676659174263L1827.4800991080701,-79.74217806011438L2010.0260770507157,-86.16794032976031Z" fill="#190310" stroke="#190310"></path><path d="M1777.7033718768507,-16.248096842318773L1709.466464901343,24.089368460699916L1837.1917538903654,25.4865675419569Z" fill="#4b0b1c" stroke="#4b0b1c"></path><path d="M1777.7033718768507,-16.248096842318773L1837.1917538903654,25.4865675419569L1827.4800991080701,-79.74217806011438Z" fill="#360314" stroke="#360314"></path><path d="M1827.4800991080701,-79.74217806011438L1837.1917538903654,25.4865675419569L2010.0260770507157,-86.16794032976031Z" fill="#28000f" stroke="#28000f"></path><path d="M2010.0260770507157,-86.16794032976031L1837.1917538903654,25.4865675419569L2070.0926504004747,115.8671598136425Z" fill="#460414" stroke="#460414"></path><path d="M-41.506089521571994,118.12353517860174L-70.80917266197503,247.00173949822783L101.12786524929106,192.3696728143841Z" fill="#b1363c" stroke="#b1363c"></path><path d="M-41.506089521571994,118.12353517860174L101.12786524929106,192.3696728143841L50.73363795876503,73.45248034223914Z" fill="#ad2131" stroke="#ad2131"></path><path d="M50.73363795876503,73.45248034223914L101.12786524929106,192.3696728143841L248.76588930375874,73.87128671631217Z" fill="#be2131" stroke="#be2131"></path><path d="M248.76588930375874,73.87128671631217L101.12786524929106,192.3696728143841L258.6307499092072,218.09612193144858Z" fill="#d53e40" stroke="#d53e40"></path><path d="M248.76588930375874,73.87128671631217L258.6307499092072,218.09612193144858L394.23776496201754,130.22180177271366Z" fill="#da4a45" stroke="#da4a45"></path><path d="M394.23776496201754,130.22180177271366L258.6307499092072,218.09612193144858L347.7359551470727,277.3452603444457Z" fill="#e96d58" stroke="#e96d58"></path><path d="M394.23776496201754,130.22180177271366L347.7359551470727,277.3452603444457L502.62445664964616,195.56841772980988Z" fill="#f07961" stroke="#f07961"></path><path d="M394.23776496201754,130.22180177271366L502.62445664964616,195.56841772980988L519.4623740203679,54.067408572882414Z" fill="#e66659" stroke="#e66659"></path><path d="M519.4623740203679,54.067408572882414L502.62445664964616,195.56841772980988L628.4719979669899,62.743051489815116Z" fill="#e66b61" stroke="#e66b61"></path><path d="M628.4719979669899,62.743051489815116L502.62445664964616,195.56841772980988L707.7380327135324,244.52177407220006Z" fill="#f68f7b" stroke="#f68f7b"></path><path d="M628.4719979669899,62.743051489815116L707.7380327135324,244.52177407220006L775.1324033550918,116.1972720734775Z" fill="#f39288" stroke="#f39288"></path><path d="M775.1324033550918,116.1972720734775L707.7380327135324,244.52177407220006L795.7876722514629,204.4840482249856Z" fill="#feab9b" stroke="#feab9b"></path><path d="M775.1324033550918,116.1972720734775L795.7876722514629,204.4840482249856L957.0320610422641,224.19297896325588Z" fill="#fdb1a6" stroke="#fdb1a6"></path><path d="M775.1324033550918,116.1972720734775L957.0320610422641,224.19297896325588L1008.7671343144029,78.09627215377986Z" fill="#f09f9f" stroke="#f09f9f"></path><path d="M1008.7671343144029,78.09627215377986L957.0320610422641,224.19297896325588L1141.361842341721,276.43869009800255Z" fill="#f1aa9f" stroke="#f1aa9f"></path><path d="M1008.7671343144029,78.09627215377986L1141.361842341721,276.43869009800255L1176.6227318253368,44.83758115209639Z" fill="#dc8a8b" stroke="#dc8a8b"></path><path d="M1176.6227318253368,44.83758115209639L1141.361842341721,276.43869009800255L1262.6497268211097,176.04531289078295Z" fill="#da8e88" stroke="#da8e88"></path><path d="M1176.6227318253368,44.83758115209639L1262.6497268211097,176.04531289078295L1298.2845075801015,26.21286727488041Z" fill="#bd6972" stroke="#bd6972"></path><path d="M1298.2845075801015,26.21286727488041L1262.6497268211097,176.04531289078295L1416.8360823579133,45.058755269274116Z" fill="#b25d67" stroke="#b25d67"></path><path d="M1416.8360823579133,45.058755269274116L1262.6497268211097,176.04531289078295L1482.1447790320963,172.25398273207247Z" fill="#b76566" stroke="#b76566"></path><path d="M1416.8360823579133,45.058755269274116L1482.1447790320963,172.25398273207247L1550.1366711314768,65.49065848812461Z" fill="#9e464f" stroke="#9e464f"></path><path d="M1550.1366711314768,65.49065848812461L1482.1447790320963,172.25398273207247L1598.2176827453077,251.93716985173523Z" fill="#a45853" stroke="#a45853"></path><path d="M1550.1366711314768,65.49065848812461L1598.2176827453077,251.93716985173523L1721.5247344505042,224.3199396505952Z" fill="#9c534a" stroke="#9c534a"></path><path d="M1550.1366711314768,65.49065848812461L1721.5247344505042,224.3199396505952L1709.466464901343,24.089368460699916Z" fill="#852e35" stroke="#852e35"></path><path d="M1709.466464901343,24.089368460699916L1721.5247344505042,224.3199396505952L1837.1917538903654,25.4865675419569Z" fill="#731c25" stroke="#731c25"></path><path d="M1837.1917538903654,25.4865675419569L1721.5247344505042,224.3199396505952L1924.0638296026736,251.75357418134809Z" fill="#7b2f2a" stroke="#7b2f2a"></path><path d="M1837.1917538903654,25.4865675419569L1924.0638296026736,251.75357418134809L2042.8464742004871,179.26066967658699Z" fill="#772825" stroke="#772825"></path><path d="M1837.1917538903654,25.4865675419569L2042.8464742004871,179.26066967658699L2070.0926504004747,115.8671598136425Z" fill="#6c161c" stroke="#6c161c"></path><path d="M2070.0926504004747,115.8671598136425L2042.8464742004871,179.26066967658699L2060.4243775829673,403.82431626319885Z" fill="#804a3b" stroke="#804a3b"></path><path d="M2070.0926504004747,115.8671598136425L2060.4243775829673,403.82431626319885L2072.0249276887625,483.7589717656374Z" fill="#807060" stroke="#807060"></path><path d="M2070.0926504004747,115.8671598136425L2072.0249276887625,483.7589717656374L2079.4094122666866,995.9709507599473Z" fill="#808080" stroke="#808080"></path><path d="M-70.80917266197503,247.00173949822783L-129.5606628153473,952.5042508542538L-52.44170604273677,529.4910326041281Z" fill="#a1808c" stroke="#a1808c"></path><path d="M-70.80917266197503,247.00173949822783L-52.44170604273677,529.4910326041281L-55.67373560741544,343.80809035152197Z" fill="#a67c7e" stroke="#a67c7e"></path><path d="M-70.80917266197503,247.00173949822783L-55.67373560741544,343.80809035152197L101.12786524929106,192.3696728143841Z" fill="#b15653" stroke="#b15653"></path><path d="M101.12786524929106,192.3696728143841L-55.67373560741544,343.80809035152197L125.3993915207684,424.7572912182659Z" fill="#bf706c" stroke="#bf706c"></path><path d="M101.12786524929106,192.3696728143841L125.3993915207684,424.7572912182659L226.90496421419084,402.8203957155347Z" fill="#d47c77" stroke="#d47c77"></path><path d="M101.12786524929106,192.3696728143841L226.90496421419084,402.8203957155347L258.6307499092072,218.09612193144858Z" fill="#db6b5f" stroke="#db6b5f"></path><path d="M258.6307499092072,218.09612193144858L226.90496421419084,402.8203957155347L347.7359551470727,277.3452603444457Z" fill="#e38771" stroke="#e38771"></path><path d="M347.7359551470727,277.3452603444457L226.90496421419084,402.8203957155347L412.7558486815542,407.76683969423175Z" fill="#e9a491" stroke="#e9a491"></path><path d="M347.7359551470727,277.3452603444457L412.7558486815542,407.76683969423175L498.5974563192576,324.0722047537565Z" fill="#f1af92" stroke="#f1af92"></path><path d="M347.7359551470727,277.3452603444457L498.5974563192576,324.0722047537565L502.62445664964616,195.56841772980988Z" fill="#f39c7c" stroke="#f39c7c"></path><path d="M502.62445664964616,195.56841772980988L498.5974563192576,324.0722047537565L659.5722639374435,333.15652870573103Z" fill="#fbb793" stroke="#fbb793"></path><path d="M502.62445664964616,195.56841772980988L659.5722639374435,333.15652870573103L707.7380327135324,244.52177407220006Z" fill="#fcb798" stroke="#fcb798"></path><path d="M707.7380327135324,244.52177407220006L659.5722639374435,333.15652870573103L842.0487574115396,362.0694479998201Z" fill="#fedbc1" stroke="#fedbc1"></path><path d="M707.7380327135324,244.52177407220006L842.0487574115396,362.0694479998201L795.7876722514629,204.4840482249856Z" fill="#ffd0b8" stroke="#ffd0b8"></path><path d="M795.7876722514629,204.4840482249856L842.0487574115396,362.0694479998201L957.0320610422641,224.19297896325588Z" fill="#ffd6c4" stroke="#ffd6c4"></path><path d="M957.0320610422641,224.19297896325588L842.0487574115396,362.0694479998201L989.9967834167182,336.20596250519156Z" fill="#fae2cf" stroke="#fae2cf"></path><path d="M957.0320610422641,224.19297896325588L989.9967834167182,336.20596250519156L1141.361842341721,276.43869009800255Z" fill="#f1cfbc" stroke="#f1cfbc"></path><path d="M1141.361842341721,276.43869009800255L989.9967834167182,336.20596250519156L1092.9967825021595,433.4591087512672Z" fill="#ede1d3" stroke="#ede1d3"></path><path d="M1141.361842341721,276.43869009800255L1092.9967825021595,433.4591087512672L1250.4424582701176,337.767615057528Z" fill="#e3d8ca" stroke="#e3d8ca"></path><path d="M1141.361842341721,276.43869009800255L1250.4424582701176,337.767615057528L1262.6497268211097,176.04531289078295Z" fill="#ddb5a2" stroke="#ddb5a2"></path><path d="M1262.6497268211097,176.04531289078295L1250.4424582701176,337.767615057528L1482.1447790320963,172.25398273207247Z" fill="#cd9587" stroke="#cd9587"></path><path d="M1482.1447790320963,172.25398273207247L1250.4424582701176,337.767615057528L1482.376174684614,374.7978015895933Z" fill="#c2a692" stroke="#c2a692"></path><path d="M1482.1447790320963,172.25398273207247L1482.376174684614,374.7978015895933L1598.2176827453077,251.93716985173523Z" fill="#af8775" stroke="#af8775"></path><path d="M1598.2176827453077,251.93716985173523L1482.376174684614,374.7978015895933L1613.7935857102275,411.13028325140476Z" fill="#a79b8d" stroke="#a79b8d"></path><path d="M1598.2176827453077,251.93716985173523L1613.7935857102275,411.13028325140476L1689.358022538945,331.5903515741229Z" fill="#9d8d7d" stroke="#9d8d7d"></path><path d="M1598.2176827453077,251.93716985173523L1689.358022538945,331.5903515741229L1721.5247344505042,224.3199396505952Z" fill="#98725f" stroke="#98725f"></path><path d="M1721.5247344505042,224.3199396505952L1689.358022538945,331.5903515741229L1839.0852930117399,364.04166290536523Z" fill="#8c7461" stroke="#8c7461"></path><path d="M1721.5247344505042,224.3199396505952L1839.0852930117399,364.04166290536523L1924.0638296026736,251.75357418134809Z" fill="#815f4b" stroke="#815f4b"></path><path d="M1924.0638296026736,251.75357418134809L1839.0852930117399,364.04166290536523L2060.4243775829673,403.82431626319885Z" fill="#807263" stroke="#807263"></path><path d="M1924.0638296026736,251.75357418134809L2060.4243775829673,403.82431626319885L2042.8464742004871,179.26066967658699Z" fill="#805e4a" stroke="#805e4a"></path><path d="M-55.67373560741544,343.80809035152197L-52.44170604273677,529.4910326041281L125.3993915207684,424.7572912182659Z" fill="#b4808a" stroke="#b4808a"></path><path d="M125.3993915207684,424.7572912182659L-52.44170604273677,529.4910326041281L59.14878001436591,569.6102828811854Z" fill="#bd8391" stroke="#bd8391"></path><path d="M125.3993915207684,424.7572912182659L59.14878001436591,569.6102828811854L235.57103019207716,512.1798651013523Z" fill="#d18994" stroke="#d18994"></path><path d="M125.3993915207684,424.7572912182659L235.57103019207716,512.1798651013523L226.90496421419084,402.8203957155347Z" fill="#db9094" stroke="#db9094"></path><path d="M226.90496421419084,402.8203957155347L235.57103019207716,512.1798651013523L355.72353542782366,483.2535707205534Z" fill="#e3a09d" stroke="#e3a09d"></path><path d="M226.90496421419084,402.8203957155347L355.72353542782366,483.2535707205534L412.7558486815542,407.76683969423175Z" fill="#e9aca0" stroke="#e9aca0"></path><path d="M412.7558486815542,407.76683969423175L355.72353542782366,483.2535707205534L514.2947941459715,496.12069490365684Z" fill="#f1bfb0" stroke="#f1bfb0"></path><path d="M412.7558486815542,407.76683969423175L514.2947941459715,496.12069490365684L498.5974563192576,324.0722047537565Z" fill="#f6c9b2" stroke="#f6c9b2"></path><path d="M498.5974563192576,324.0722047537565L514.2947941459715,496.12069490365684L659.5722639374435,333.15652870573103Z" fill="#fbd6bd" stroke="#fbd6bd"></path><path d="M659.5722639374435,333.15652870573103L514.2947941459715,496.12069490365684L615.5694400146604,525.9260481130332Z" fill="#fcdecc" stroke="#fcdecc"></path><path d="M659.5722639374435,333.15652870573103L615.5694400146604,525.9260481130332L801.8846265412867,523.8506836909801Z" fill="#feece0" stroke="#feece0"></path><path d="M659.5722639374435,333.15652870573103L801.8846265412867,523.8506836909801L842.0487574115396,362.0694479998201Z" fill="#fff4e7" stroke="#fff4e7"></path><path d="M842.0487574115396,362.0694479998201L801.8846265412867,523.8506836909801L973.118709102273,465.6993444263935Z" fill="#fffffc" stroke="#fffffc"></path><path d="M842.0487574115396,362.0694479998201L973.118709102273,465.6993444263935L989.9967834167182,336.20596250519156Z" fill="#fafaf1" stroke="#fafaf1"></path><path d="M989.9967834167182,336.20596250519156L973.118709102273,465.6993444263935L1092.9967825021595,433.4591087512672Z" fill="#f2f2ec" stroke="#f2f2ec"></path><path d="M1092.9967825021595,433.4591087512672L973.118709102273,465.6993444263935L1109.032333586365,570.4569209832698Z" fill="#efefef" stroke="#efefef"></path><path d="M1092.9967825021595,433.4591087512672L1109.032333586365,570.4569209832698L1263.5328562930226,521.5487654227763Z" fill="#e4e4e4" stroke="#e4e4e4"></path><path d="M1092.9967825021595,433.4591087512672L1263.5328562930226,521.5487654227763L1250.4424582701176,337.767615057528Z" fill="#dfdfda" stroke="#dfdfda"></path><path d="M1250.4424582701176,337.767615057528L1263.5328562930226,521.5487654227763L1368.5761844180524,545.9270100854337Z" fill="#d2d2d1" stroke="#d2d2d1"></path><path d="M1250.4424582701176,337.767615057528L1368.5761844180524,545.9270100854337L1482.376174684614,374.7978015895933Z" fill="#c8c8c2" stroke="#c8c8c2"></path><path d="M1482.376174684614,374.7978015895933L1368.5761844180524,545.9270100854337L1478.2116721663624,637.4519051145762Z" fill="#bbbbbb" stroke="#bbbbbb"></path><path d="M1482.376174684614,374.7978015895933L1478.2116721663624,637.4519051145762L1623.8756704051048,471.5156436804682Z" fill="#adadad" stroke="#adadad"></path><path d="M1482.376174684614,374.7978015895933L1623.8756704051048,471.5156436804682L1613.7935857102275,411.13028325140476Z" fill="#a6a6a0" stroke="#a6a6a0"></path><path d="M1613.7935857102275,411.13028325140476L1623.8756704051048,471.5156436804682L1689.358022538945,331.5903515741229Z" fill="#9c9c94" stroke="#9c9c94"></path><path d="M1689.358022538945,331.5903515741229L1623.8756704051048,471.5156436804682L1701.9893475528806,529.2950866185129Z" fill="#989894" stroke="#989894"></path><path d="M1689.358022538945,331.5903515741229L1701.9893475528806,529.2950866185129L1839.0852930117399,364.04166290536523Z" fill="#8d8d86" stroke="#8d8d86"></path><path d="M1839.0852930117399,364.04166290536523L1701.9893475528806,529.2950866185129L1866.345771420747,542.885157270357Z" fill="#848484" stroke="#848484"></path><path d="M1839.0852930117399,364.04166290536523L1866.345771420747,542.885157270357L2060.4243775829673,403.82431626319885Z" fill="#80807b" stroke="#80807b"></path><path d="M2060.4243775829673,403.82431626319885L1866.345771420747,542.885157270357L2072.0249276887625,483.7589717656374Z" fill="#80807f" stroke="#80807f"></path><path d="M-52.44170604273677,529.4910326041281L-129.5606628153473,952.5042508542538L-72.5729853194207,733.2232816983014Z" fill="#7e5c69" stroke="#7e5c69"></path><path d="M-52.44170604273677,529.4910326041281L-72.5729853194207,733.2232816983014L59.14878001436591,569.6102828811854Z" fill="#aa7b89" stroke="#aa7b89"></path><path d="M59.14878001436591,569.6102828811854L-72.5729853194207,733.2232816983014L63.849005810916424,703.4912474546582Z" fill="#a87281" stroke="#a87281"></path><path d="M59.14878001436591,569.6102828811854L63.849005810916424,703.4912474546582L178.5174339171499,672.9950945265591Z" fill="#bd7b87" stroke="#bd7b87"></path><path d="M59.14878001436591,569.6102828811854L178.5174339171499,672.9950945265591L235.57103019207716,512.1798651013523Z" fill="#d58a94" stroke="#d58a94"></path><path d="M235.57103019207716,512.1798651013523L178.5174339171499,672.9950945265591L341.3145570270717,628.4813484828919Z" fill="#dd9899" stroke="#dd9899"></path><path d="M235.57103019207716,512.1798651013523L341.3145570270717,628.4813484828919L355.72353542782366,483.2535707205534Z" fill="#e7a8a3" stroke="#e7a8a3"></path><path d="M355.72353542782366,483.2535707205534L341.3145570270717,628.4813484828919L514.2947941459715,496.12069490365684Z" fill="#efbbaf" stroke="#efbbaf"></path><path d="M514.2947941459715,496.12069490365684L341.3145570270717,628.4813484828919L556.4816065505147,656.9775554258376Z" fill="#f3c6b7" stroke="#f3c6b7"></path><path d="M514.2947941459715,496.12069490365684L556.4816065505147,656.9775554258376L615.5694400146604,525.9260481130332Z" fill="#fbd8c8" stroke="#fbd8c8"></path><path d="M615.5694400146604,525.9260481130332L556.4816065505147,656.9775554258376L644.9257747549564,724.8912196978927Z" fill="#f2d5c7" stroke="#f2d5c7"></path><path d="M615.5694400146604,525.9260481130332L644.9257747549564,724.8912196978927L801.8846265412867,523.8506836909801Z" fill="#fceadf" stroke="#fceadf"></path><path d="M801.8846265412867,523.8506836909801L644.9257747549564,724.8912196978927L846.9646245148033,644.6930901054293Z" fill="#f6ece5" stroke="#f6ece5"></path><path d="M801.8846265412867,523.8506836909801L846.9646245148033,644.6930901054293L986.7656115163118,616.4692056644708Z" fill="#fcfcfc" stroke="#fcfcfc"></path><path d="M801.8846265412867,523.8506836909801L986.7656115163118,616.4692056644708L973.118709102273,465.6993444263935Z" fill="#fbfbfb" stroke="#fbfbfb"></path><path d="M973.118709102273,465.6993444263935L986.7656115163118,616.4692056644708L1109.032333586365,570.4569209832698Z" fill="#f2f2f2" stroke="#f2f2f2"></path><path d="M1109.032333586365,570.4569209832698L986.7656115163118,616.4692056644708L1159.0180690214038,674.153348794207Z" fill="#e5e5e5" stroke="#e5e5e5"></path><path d="M1109.032333586365,570.4569209832698L1159.0180690214038,674.153348794207L1263.5328562930226,521.5487654227763Z" fill="#e0e0e0" stroke="#e0e0e0"></path><path d="M1263.5328562930226,521.5487654227763L1159.0180690214038,674.153348794207L1289.7613626625389,643.3827030938119Z" fill="#d5d5d5" stroke="#d5d5d5"></path><path d="M1263.5328562930226,521.5487654227763L1289.7613626625389,643.3827030938119L1368.5761844180524,545.9270100854337Z" fill="#d0d0d0" stroke="#d0d0d0"></path><path d="M1368.5761844180524,545.9270100854337L1289.7613626625389,643.3827030938119L1478.2116721663624,637.4519051145762Z" fill="#c1c1c1" stroke="#c1c1c1"></path><path d="M1623.8756704051048,471.5156436804682L1478.2116721663624,637.4519051145762L1625.6771596893668,648.7329879496247Z" fill="#a5a5a5" stroke="#a5a5a5"></path><path d="M1623.8756704051048,471.5156436804682L1625.6771596893668,648.7329879496247L1701.9893475528806,529.2950866185129Z" fill="#9b9b9b" stroke="#9b9b9b"></path><path d="M1701.9893475528806,529.2950866185129L1625.6771596893668,648.7329879496247L1755.0218311417848,722.4521896708757Z" fill="#8b8b8b" stroke="#8b8b8b"></path><path d="M1701.9893475528806,529.2950866185129L1755.0218311417848,722.4521896708757L1866.345771420747,542.885157270357Z" fill="#868686" stroke="#868686"></path><path d="M1866.345771420747,542.885157270357L1755.0218311417848,722.4521896708757L1866.5163986105472,696.5934904944152Z" fill="#747474" stroke="#747474"></path><path d="M1866.345771420747,542.885157270357L1866.5163986105472,696.5934904944152L2026.2682715523988,691.2821468990296Z" fill="#757575" stroke="#757575"></path><path d="M1866.345771420747,542.885157270357L2026.2682715523988,691.2821468990296L2072.0249276887625,483.7589717656374Z" fill="#808080" stroke="#808080"></path><path d="M2072.0249276887625,483.7589717656374L2026.2682715523988,691.2821468990296L2079.4094122666866,995.9709507599473Z" fill="#616161" stroke="#616161"></path><path d="M-72.5729853194207,733.2232816983014L-129.5606628153473,952.5042508542538L-21.713821403682232,852.620546836406Z" fill="#5b3744" stroke="#5b3744"></path><path d="M-72.5729853194207,733.2232816983014L-21.713821403682232,852.620546836406L63.849005810916424,703.4912474546582Z" fill="#865463" stroke="#865463"></path><path d="M63.849005810916424,703.4912474546582L-21.713821403682232,852.620546836406L80.0650907959789,876.6442783735693Z" fill="#804755" stroke="#804755"></path><path d="M63.849005810916424,703.4912474546582L80.0650907959789,876.6442783735693L236.89406485296786,851.4400923997164Z" fill="#934c58" stroke="#934c58"></path><path d="M63.849005810916424,703.4912474546582L236.89406485296786,851.4400923997164L178.5174339171499,672.9950945265591Z" fill="#b16670" stroke="#b16670"></path><path d="M178.5174339171499,672.9950945265591L236.89406485296786,851.4400923997164L341.3145570270717,628.4813484828919Z" fill="#c47f80" stroke="#c47f80"></path><path d="M341.3145570270717,628.4813484828919L236.89406485296786,851.4400923997164L387.55843318998814,869.9794061947614Z" fill="#b67872" stroke="#b67872"></path><path d="M341.3145570270717,628.4813484828919L387.55843318998814,869.9794061947614L548.7237541470677,787.2904725931585Z" fill="#c69487" stroke="#c69487"></path><path d="M341.3145570270717,628.4813484828919L548.7237541470677,787.2904725931585L556.4816065505147,656.9775554258376Z" fill="#e2b6a6" stroke="#e2b6a6"></path><path d="M556.4816065505147,656.9775554258376L548.7237541470677,787.2904725931585L644.9257747549564,724.8912196978927Z" fill="#dcbcae" stroke="#dcbcae"></path><path d="M644.9257747549564,724.8912196978927L548.7237541470677,787.2904725931585L653.0752682872117,874.7989769093692Z" fill="#c6aa9c" stroke="#c6aa9c"></path><path d="M644.9257747549564,724.8912196978927L653.0752682872117,874.7989769093692L822.8343284502625,873.7810872215778Z" fill="#bdada4" stroke="#bdada4"></path><path d="M644.9257747549564,724.8912196978927L822.8343284502625,873.7810872215778L846.9646245148033,644.6930901054293Z" fill="#d8cec9" stroke="#d8cec9"></path><path d="M846.9646245148033,644.6930901054293L822.8343284502625,873.7810872215778L975.216516237706,843.4754950460047Z" fill="#cbcbcb" stroke="#cbcbcb"></path><path d="M846.9646245148033,644.6930901054293L975.216516237706,843.4754950460047L986.7656115163118,616.4692056644708Z" fill="#e2e2e2" stroke="#e2e2e2"></path><path d="M986.7656115163118,616.4692056644708L975.216516237706,843.4754950460047L1159.0180690214038,674.153348794207Z" fill="#d5d5d5" stroke="#d5d5d5"></path><path d="M1159.0180690214038,674.153348794207L975.216516237706,843.4754950460047L1181.7100334633142,781.3039739336818Z" fill="#bdbdbd" stroke="#bdbdbd"></path><path d="M1159.0180690214038,674.153348794207L1181.7100334633142,781.3039739336818L1289.7613626625389,643.3827030938119Z" fill="#c7c7c7" stroke="#c7c7c7"></path><path d="M1289.7613626625389,643.3827030938119L1181.7100334633142,781.3039739336818L1325.2515177894384,834.5618676301092Z" fill="#aeaeae" stroke="#aeaeae"></path><path d="M1289.7613626625389,643.3827030938119L1325.2515177894384,834.5618676301092L1457.9188223741949,807.8212391026318Z" fill="#9e9e9e" stroke="#9e9e9e"></path><path d="M1289.7613626625389,643.3827030938119L1457.9188223741949,807.8212391026318L1478.2116721663624,637.4519051145762Z" fill="#ababab" stroke="#ababab"></path><path d="M1478.2116721663624,637.4519051145762L1457.9188223741949,807.8212391026318L1609.8624525871128,780.2185427304357Z" fill="#8b8b8b" stroke="#8b8b8b"></path><path d="M1478.2116721663624,637.4519051145762L1609.8624525871128,780.2185427304357L1625.6771596893668,648.7329879496247Z" fill="#929292" stroke="#929292"></path><path d="M1625.6771596893668,648.7329879496247L1609.8624525871128,780.2185427304357L1755.0218311417848,722.4521896708757Z" fill="#7c7c7c" stroke="#7c7c7c"></path><path d="M1755.0218311417848,722.4521896708757L1609.8624525871128,780.2185427304357L1728.0555462185293,838.6251145787537Z" fill="#636363" stroke="#636363"></path><path d="M1755.0218311417848,722.4521896708757L1728.0555462185293,838.6251145787537L1859.975025113672,842.1039514616132Z" fill="#4f4f4f" stroke="#4f4f4f"></path><path d="M1755.0218311417848,722.4521896708757L1859.975025113672,842.1039514616132L1866.5163986105472,696.5934904944152Z" fill="#585858" stroke="#585858"></path><path d="M1866.5163986105472,696.5934904944152L1859.975025113672,842.1039514616132L1976.7735825944692,853.5246812179685Z" fill="#494949" stroke="#494949"></path><path d="M1866.5163986105472,696.5934904944152L1976.7735825944692,853.5246812179685L2026.2682715523988,691.2821468990296Z" fill="#595959" stroke="#595959"></path><path d="M2026.2682715523988,691.2821468990296L1976.7735825944692,853.5246812179685L2079.4094122666866,995.9709507599473Z" fill="#373737" stroke="#373737"></path><path d="M-21.713821403682232,852.620546836406L-129.5606628153473,952.5042508542538L120.93402343802154,934.4758006185293Z" fill="#532231" stroke="#532231"></path><path d="M-21.713821403682232,852.620546836406L120.93402343802154,934.4758006185293L80.0650907959789,876.6442783735693Z" fill="#6a2d3b" stroke="#6a2d3b"></path><path d="M80.0650907959789,876.6442783735693L120.93402343802154,934.4758006185293L236.89406485296786,851.4400923997164Z" fill="#7c333e" stroke="#7c333e"></path><path d="M236.89406485296786,851.4400923997164L120.93402343802154,934.4758006185293L262.99780486151576,965.2825259976089Z" fill="#7d3339" stroke="#7d3339"></path><path d="M236.89406485296786,851.4400923997164L262.99780486151576,965.2825259976089L387.55843318998814,869.9794061947614Z" fill="#8d4c49" stroke="#8d4c49"></path><path d="M387.55843318998814,869.9794061947614L262.99780486151576,965.2825259976089L402.68240723758936,1020.0993423443288Z" fill="#82473e" stroke="#82473e"></path><path d="M387.55843318998814,869.9794061947614L402.68240723758936,1020.0993423443288L481.2257278896868,1023.2833712361753Z" fill="#825043" stroke="#825043"></path><path d="M387.55843318998814,869.9794061947614L481.2257278896868,1023.2833712361753L548.7237541470677,787.2904725931585Z" fill="#9d7061" stroke="#9d7061"></path><path d="M548.7237541470677,787.2904725931585L481.2257278896868,1023.2833712361753L653.0752682872117,874.7989769093692Z" fill="#a28070" stroke="#a28070"></path><path d="M653.0752682872117,874.7989769093692L481.2257278896868,1023.2833712361753L620.1634919922799,1094.8612616211176Z" fill="#856556" stroke="#856556"></path><path d="M653.0752682872117,874.7989769093692L620.1634919922799,1094.8612616211176L716.2646428216249,920.6537564378232Z" fill="#917b70" stroke="#917b70"></path><path d="M653.0752682872117,874.7989769093692L716.2646428216249,920.6537564378232L822.8343284502625,873.7810872215778Z" fill="#a79a91" stroke="#a79a91"></path><path d="M822.8343284502625,873.7810872215778L716.2646428216249,920.6537564378232L880.7430432736874,1004.7207112424076Z" fill="#9b9591" stroke="#9b9591"></path><path d="M822.8343284502625,873.7810872215778L880.7430432736874,1004.7207112424076L975.216516237706,843.4754950460047Z" fill="#a1a1a1" stroke="#a1a1a1"></path><path d="M975.216516237706,843.4754950460047L880.7430432736874,1004.7207112424076L958.0648793186992,1018.9993613865227Z" fill="#8f8f8f" stroke="#8f8f8f"></path><path d="M975.216516237706,843.4754950460047L958.0648793186992,1018.9993613865227L1120.0090677570552,995.1385548803955Z" fill="#898989" stroke="#898989"></path><path d="M975.216516237706,843.4754950460047L1120.0090677570552,995.1385548803955L1181.7100334633142,781.3039739336818Z" fill="#999999" stroke="#999999"></path><path d="M1181.7100334633142,781.3039739336818L1120.0090677570552,995.1385548803955L1230.9057122189552,921.0237827897072Z" fill="#888888" stroke="#888888"></path><path d="M1181.7100334633142,781.3039739336818L1230.9057122189552,921.0237827897072L1325.2515177894384,834.5618676301092Z" fill="#919191" stroke="#919191"></path><path d="M1325.2515177894384,834.5618676301092L1230.9057122189552,921.0237827897072L1375.6332295574248,932.2929118294269Z" fill="#777777" stroke="#777777"></path><path d="M1325.2515177894384,834.5618676301092L1375.6332295574248,932.2929118294269L1457.9188223741949,807.8212391026318Z" fill="#787878" stroke="#787878"></path><path d="M1457.9188223741949,807.8212391026318L1375.6332295574248,932.2929118294269L1543.4605670068413,1010.9181057661772Z" fill="#5a5a5a" stroke="#5a5a5a"></path><path d="M1457.9188223741949,807.8212391026318L1543.4605670068413,1010.9181057661772L1609.8624525871128,780.2185427304357Z" fill="#5c5c5c" stroke="#5c5c5c"></path><path d="M1609.8624525871128,780.2185427304357L1543.4605670068413,1010.9181057661772L1728.0555462185293,838.6251145787537Z" fill="#4b4b4b" stroke="#4b4b4b"></path><path d="M1728.0555462185293,838.6251145787537L1543.4605670068413,1010.9181057661772L1781.9778555259109,1021.1616933904588Z" fill="#2b2b2b" stroke="#2b2b2b"></path><path d="M1728.0555462185293,838.6251145787537L1781.9778555259109,1021.1616933904588L1859.975025113672,842.1039514616132Z" fill="#2c2c2c" stroke="#2c2c2c"></path><path d="M1859.975025113672,842.1039514616132L1781.9778555259109,1021.1616933904588L1925.5344658903778,1002.2814055066556Z" fill="#161616" stroke="#161616"></path><path d="M1859.975025113672,842.1039514616132L1925.5344658903778,1002.2814055066556L1976.7735825944692,853.5246812179685Z" fill="#262626" stroke="#262626"></path><path d="M1976.7735825944692,853.5246812179685L1925.5344658903778,1002.2814055066556L2079.4094122666866,995.9709507599473Z" fill="#171717" stroke="#171717"></path><path d="M-129.5606628153473,952.5042508542538L-21.039794571697712,1235.9704478178173L-32.209354089573026,1127.7289840579033Z" fill="#27000e" stroke="#27000e"></path><path d="M-129.5606628153473,952.5042508542538L-32.209354089573026,1127.7289840579033L120.93402343802154,934.4758006185293Z" fill="#370716" stroke="#370716"></path><path d="M120.93402343802154,934.4758006185293L-32.209354089573026,1127.7289840579033L37.36466011963785,1149.0355259925127Z" fill="#3d0311" stroke="#3d0311"></path><path d="M120.93402343802154,934.4758006185293L37.36466011963785,1149.0355259925127L212.26272809319198,1175.1265536155552Z" fill="#4e0914" stroke="#4e0914"></path><path d="M120.93402343802154,934.4758006185293L212.26272809319198,1175.1265536155552L262.99780486151576,965.2825259976089Z" fill="#5d1219" stroke="#5d1219"></path><path d="M262.99780486151576,965.2825259976089L212.26272809319198,1175.1265536155552L364.5324587356299,1151.390656605363Z" fill="#642220" stroke="#642220"></path><path d="M262.99780486151576,965.2825259976089L364.5324587356299,1151.390656605363L402.68240723758936,1020.0993423443288Z" fill="#6b2f26" stroke="#6b2f26"></path><path d="M402.68240723758936,1020.0993423443288L364.5324587356299,1151.390656605363L467.93425912968814,1170.186179894954Z" fill="#713d30" stroke="#713d30"></path><path d="M402.68240723758936,1020.0993423443288L467.93425912968814,1170.186179894954L481.2257278896868,1023.2833712361753Z" fill="#744436" stroke="#744436"></path><path d="M481.2257278896868,1023.2833712361753L467.93425912968814,1170.186179894954L620.1634919922799,1094.8612616211176Z" fill="#7a5341" stroke="#7a5341"></path><path d="M716.2646428216249,920.6537564378232L620.1634919922799,1094.8612616211176L773.566086133942,1113.8847394566983Z" fill="#7f6e65" stroke="#7f6e65"></path><path d="M716.2646428216249,920.6537564378232L773.566086133942,1113.8847394566983L880.7430432736874,1004.7207112424076Z" fill="#847c77" stroke="#847c77"></path><path d="M880.7430432736874,1004.7207112424076L773.566086133942,1113.8847394566983L1008.6349894758314,1104.4710926525295Z" fill="#7e7e7e" stroke="#7e7e7e"></path><path d="M880.7430432736874,1004.7207112424076L1008.6349894758314,1104.4710926525295L958.0648793186992,1018.9993613865227Z" fill="#797979" stroke="#797979"></path><path d="M958.0648793186992,1018.9993613865227L1008.6349894758314,1104.4710926525295L1120.0090677570552,995.1385548803955Z" fill="#727272" stroke="#727272"></path><path d="M1120.0090677570552,995.1385548803955L1008.6349894758314,1104.4710926525295L1130.3431432507932,1088.965946054086Z" fill="#6c6c6c" stroke="#6c6c6c"></path><path d="M1120.0090677570552,995.1385548803955L1130.3431432507932,1088.965946054086L1262.8098664619029,1082.576654618606Z" fill="#636363" stroke="#636363"></path><path d="M1120.0090677570552,995.1385548803955L1262.8098664619029,1082.576654618606L1230.9057122189552,921.0237827897072Z" fill="#686868" stroke="#686868"></path><path d="M1230.9057122189552,921.0237827897072L1262.8098664619029,1082.576654618606L1375.6332295574248,932.2929118294269Z" fill="#626262" stroke="#626262"></path><path d="M1375.6332295574248,932.2929118294269L1262.8098664619029,1082.576654618606L1429.9499117955565,1089.2049007304013Z" fill="#4a4a4a" stroke="#4a4a4a"></path><path d="M1375.6332295574248,932.2929118294269L1429.9499117955565,1089.2049007304013L1543.4605670068413,1010.9181057661772Z" fill="#404040" stroke="#404040"></path><path d="M1543.4605670068413,1010.9181057661772L1429.9499117955565,1089.2049007304013L1625.8106293715537,1141.718744840473Z" fill="#2d2d2d" stroke="#2d2d2d"></path><path d="M1543.4605670068413,1010.9181057661772L1625.8106293715537,1141.718744840473L1781.9778555259109,1021.1616933904588Z" fill="#1b1b1b" stroke="#1b1b1b"></path><path d="M1781.9778555259109,1021.1616933904588L1625.8106293715537,1141.718744840473L1715.308305490762,1168.6326041445136Z" fill="#131313" stroke="#131313"></path><path d="M1781.9778555259109,1021.1616933904588L1715.308305490762,1168.6326041445136L1900.25633437559,1131.9836192764342Z" fill="#050505" stroke="#050505"></path><path d="M1781.9778555259109,1021.1616933904588L1900.25633437559,1131.9836192764342L1925.5344658903778,1002.2814055066556Z" fill="#000000" stroke="#000000"></path><path d="M1925.5344658903778,1002.2814055066556L1900.25633437559,1131.9836192764342L2067.414043061435,1071.3037577457726Z" fill="#000000" stroke="#000000"></path><path d="M1925.5344658903778,1002.2814055066556L2067.414043061435,1071.3037577457726L2079.4094122666866,995.9709507599473Z" fill="#020202" stroke="#020202"></path><path d="M2079.4094122666866,995.9709507599473L2067.414043061435,1071.3037577457726L2060.3336292319,1309.4318266678602Z" fill="#000000" stroke="#000000"></path><path d="M-32.209354089573026,1127.7289840579033L-21.039794571697712,1235.9704478178173L37.36466011963785,1149.0355259925127Z" fill="#330010" stroke="#330010"></path><path d="M37.36466011963785,1149.0355259925127L-21.039794571697712,1235.9704478178173L57.66688937321305,1325.7977633737028Z" fill="#390211" stroke="#390211"></path><path d="M37.36466011963785,1149.0355259925127L57.66688937321305,1325.7977633737028L212.26272809319198,1175.1265536155552Z" fill="#4a0713" stroke="#4a0713"></path><path d="M212.26272809319198,1175.1265536155552L57.66688937321305,1325.7977633737028L252.65354940667748,1281.6306347306818Z" fill="#590c16" stroke="#590c16"></path><path d="M212.26272809319198,1175.1265536155552L252.65354940667748,1281.6306347306818L364.5324587356299,1151.390656605363Z" fill="#642120" stroke="#642120"></path><path d="M364.5324587356299,1151.390656605363L252.65354940667748,1281.6306347306818L353.98082284256816,1305.8387125935405Z" fill="#692b24" stroke="#692b24"></path><path d="M364.5324587356299,1151.390656605363L353.98082284256816,1305.8387125935405L467.93425912968814,1170.186179894954Z" fill="#6f392e" stroke="#6f392e"></path><path d="M467.93425912968814,1170.186179894954L353.98082284256816,1305.8387125935405L530.0268995482475,1224.9059926439077Z" fill="#744436" stroke="#744436"></path><path d="M467.93425912968814,1170.186179894954L530.0268995482475,1224.9059926439077L620.1634919922799,1094.8612616211176Z" fill="#7b5544" stroke="#7b5544"></path><path d="M620.1634919922799,1094.8612616211176L530.0268995482475,1224.9059926439077L652.1180076990277,1222.360438881442Z" fill="#7c5f50" stroke="#7c5f50"></path><path d="M620.1634919922799,1094.8612616211176L652.1180076990277,1222.360438881442L773.566086133942,1113.8847394566983Z" fill="#7e6b61" stroke="#7e6b61"></path><path d="M773.566086133942,1113.8847394566983L652.1180076990277,1222.360438881442L846.5181606262922,1332.1423526387662Z" fill="#7f746d" stroke="#7f746d"></path><path d="M773.566086133942,1113.8847394566983L846.5181606262922,1332.1423526387662L1008.6349894758314,1104.4710926525295Z" fill="#7f7f7f" stroke="#7f7f7f"></path><path d="M1008.6349894758314,1104.4710926525295L846.5181606262922,1332.1423526387662L1028.4431303478777,1311.4763222448528Z" fill="#787878" stroke="#787878"></path><path d="M1008.6349894758314,1104.4710926525295L1028.4431303478777,1311.4763222448528L1177.168377796188,1264.8855679761618Z" fill="#6e6e6e" stroke="#6e6e6e"></path><path d="M1008.6349894758314,1104.4710926525295L1177.168377796188,1264.8855679761618L1130.3431432507932,1088.965946054086Z" fill="#6a6a6a" stroke="#6a6a6a"></path><path d="M1130.3431432507932,1088.965946054086L1177.168377796188,1264.8855679761618L1262.8098664619029,1082.576654618606Z" fill="#616161" stroke="#616161"></path><path d="M1262.8098664619029,1082.576654618606L1177.168377796188,1264.8855679761618L1279.5200951211154,1305.3809626121074Z" fill="#5b5b5b" stroke="#5b5b5b"></path><path d="M1262.8098664619029,1082.576654618606L1279.5200951211154,1305.3809626121074L1429.9499117955565,1089.2049007304013Z" fill="#4e4e4e" stroke="#4e4e4e"></path><path d="M1429.9499117955565,1089.2049007304013L1279.5200951211154,1305.3809626121074L1472.432888802141,1258.5694560594857Z" fill="#444444" stroke="#444444"></path><path d="M1429.9499117955565,1089.2049007304013L1472.432888802141,1258.5694560594857L1585.125087518245,1241.1983765568584Z" fill="#333333" stroke="#333333"></path><path d="M1429.9499117955565,1089.2049007304013L1585.125087518245,1241.1983765568584L1625.8106293715537,1141.718744840473Z" fill="#2b2b2b" stroke="#2b2b2b"></path><path d="M1625.8106293715537,1141.718744840473L1585.125087518245,1241.1983765568584L1700.4966122936457,1222.350316643715Z" fill="#1d1d1d" stroke="#1d1d1d"></path><path d="M1625.8106293715537,1141.718744840473L1700.4966122936457,1222.350316643715L1715.308305490762,1168.6326041445136Z" fill="#171717" stroke="#171717"></path><path d="M1715.308305490762,1168.6326041445136L1700.4966122936457,1222.350316643715L1848.7702438328415,1258.8467880897224Z" fill="#0c0c0c" stroke="#0c0c0c"></path><path d="M1715.308305490762,1168.6326041445136L1848.7702438328415,1258.8467880897224L1900.25633437559,1131.9836192764342Z" fill="#020202" stroke="#020202"></path><path d="M1900.25633437559,1131.9836192764342L1848.7702438328415,1258.8467880897224L2060.3336292319,1309.4318266678602Z" fill="#000000" stroke="#000000"></path><path d="M1900.25633437559,1131.9836192764342L2060.3336292319,1309.4318266678602L2067.414043061435,1071.3037577457726Z" fill="#000000" stroke="#000000"></path><path d="M57.66688937321305,1325.7977633737028L846.5181606262922,1332.1423526387662L353.98082284256816,1305.8387125935405Z" fill="#713e31" stroke="#713e31"></path><path d="M57.66688937321305,1325.7977633737028L353.98082284256816,1305.8387125935405L252.65354940667748,1281.6306347306818Z" fill="#5e161a" stroke="#5e161a"></path><path d="M353.98082284256816,1305.8387125935405L846.5181606262922,1332.1423526387662L530.0268995482475,1224.9059926439077Z" fill="#7c5b4c" stroke="#7c5b4c"></path><path d="M530.0268995482475,1224.9059926439077L846.5181606262922,1332.1423526387662L652.1180076990277,1222.360438881442Z" fill="#7e6a5f" stroke="#7e6a5f"></path><path d="M846.5181606262922,1332.1423526387662L2060.3336292319,1309.4318266678602L1279.5200951211154,1305.3809626121074Z" fill="#444444" stroke="#444444"></path><path d="M846.5181606262922,1332.1423526387662L1279.5200951211154,1305.3809626121074L1028.4431303478777,1311.4763222448528Z" fill="#707070" stroke="#707070"></path><path d="M1028.4431303478777,1311.4763222448528L1279.5200951211154,1305.3809626121074L1177.168377796188,1264.8855679761618Z" fill="#646464" stroke="#646464"></path><path d="M1279.5200951211154,1305.3809626121074L2060.3336292319,1309.4318266678602L1848.7702438328415,1258.8467880897224Z" fill="#101010" stroke="#101010"></path><path d="M1279.5200951211154,1305.3809626121074L1848.7702438328415,1258.8467880897224L1472.432888802141,1258.5694560594857Z" fill="#2d2d2d" stroke="#2d2d2d"></path><path d="M1472.432888802141,1258.5694560594857L1848.7702438328415,1258.8467880897224L1585.125087518245,1241.1983765568584Z" fill="#1d1d1d" stroke="#1d1d1d"></path><path d="M1585.125087518245,1241.1983765568584L1848.7702438328415,1258.8467880897224L1700.4966122936457,1222.350316643715Z" fill="#121212" stroke="#121212"></path></g></svg>